/* XPM */
static char *result[] = {
/* columns rows colors chars-per-pixel */
"32 32 191 2 ",
"   c #2B2E2F",
".  c #313C2F",
"X  c #2B2F30",
"o  c #2C2F30",
"O  c #2E3031",
"+  c #2D3132",
"@  c #2E3132",
"#  c #2F3232",
"$  c #2F3233",
"%  c #313133",
"&  c #333133",
"*  c #303232",
"=  c #313232",
"-  c #303233",
";  c #313233",
":  c #333233",
">  c #323333",
",  c gray20",
"<  c #343333",
"1  c #313532",
"2  c #333532",
"3  c #333433",
"4  c #333533",
"5  c #333632",
"6  c #343732",
"7  c #343633",
"8  c #333034",
"9  c #333134",
"0  c #363434",
"q  c #383434",
"w  c #3B3635",
"e  c #3D3734",
"r  c #3E3736",
"t  c #303831",
"y  c #313931",
"u  c #323831",
"i  c #323931",
"p  c #323832",
"a  c #333832",
"s  c #333932",
"d  c #343932",
"f  c #343A32",
"g  c #323E30",
"h  c #333E30",
"j  c #343F30",
"k  c #343E31",
"l  c #3F3D34",
"z  c #403736",
"x  c #413736",
"c  c #403836",
"v  c #403D34",
"b  c #4B3A36",
"n  c #4C3836",
"m  c #4C3A36",
"M  c #4D3B37",
"N  c #453C3C",
"B  c #483B38",
"V  c #4A3B38",
"C  c #4B3C38",
"Z  c #4C3D38",
"A  c #4C3C39",
"S  c #503B36",
"D  c #513B36",
"F  c #523E39",
"G  c #513F3A",
"H  c #533F3A",
"J  c #563F3B",
"K  c #573F3B",
"L  c #30432D",
"P  c #31442D",
"I  c #31442E",
"U  c #33452F",
"Y  c #32462E",
"T  c #33462E",
"R  c #35452F",
"E  c #35462F",
"W  c #34472F",
"Q  c #35472F",
"!  c #354B2E",
"~  c #334F2C",
"^  c #354D2D",
"/  c #384E2E",
"(  c #3A4F2F",
")  c #32522B",
"_  c #36562B",
"`  c #35502C",
"'  c #35502D",
"]  c #36502D",
"[  c #36532C",
"{  c #36552C",
"}  c #37562C",
"|  c #335B29",
" . c #365A2A",
".. c #365B2A",
"X. c #365C2A",
"o. c #344130",
"O. c #344230",
"+. c #344330",
"@. c #354330",
"#. c #3A4431",
"$. c #3A4531",
"%. c #3A5030",
"&. c #414333",
"*. c #514139",
"=. c #534239",
"-. c #54403A",
";. c #55403A",
":. c #56403B",
">. c #57413B",
",. c #57453A",
"<. c #51423E",
"1. c #58413B",
"2. c #59413B",
"3. c #5D413C",
"4. c #5F433D",
"5. c #585935",
"6. c #64423A",
"7. c #67443B",
"8. c #68463F",
"9. c #6E463C",
"0. c #674B39",
"q. c #68483E",
"w. c #6A4A3F",
"e. c #79473B",
"r. c #73483E",
"t. c #7B493D",
"y. c #725A3D",
"u. c #514341",
"i. c #514441",
"p. c #5D4D45",
"a. c #604945",
"s. c #634E49",
"d. c #634F49",
"f. c #644F49",
"g. c #654F4A",
"h. c #704941",
"j. c #704A40",
"k. c #734A41",
"l. c #744B42",
"z. c #764B42",
"x. c #714D40",
"c. c #724D43",
"v. c #7A4D41",
"b. c #7B4F42",
"n. c #6B524D",
"m. c #6F554E",
"M. c #865345",
"N. c #895143",
"B. c #8A5243",
"V. c #8D5243",
"C. c #885345",
"Z. c #8B5344",
"A. c #895446",
"S. c #8D5445",
"D. c #8E5647",
"F. c #8E594B",
"G. c #905343",
"H. c #915747",
"J. c #935747",
"K. c #945847",
"L. c #925748",
"P. c #935748",
"I. c #965748",
"U. c #935848",
"Y. c #945848",
"T. c #955848",
"R. c #955948",
"E. c #965848",
"W. c #975848",
"Q. c #965A4A",
"!. c #995A49",
"~. c #995D4D",
"^. c #995D4E",
"/. c #9D5F4E",
"(. c #865C53",
"). c #825E55",
"_. c #9F604F",
"`. c #866259",
"'. c #87635A",
"]. c #88645A",
"[. c #9F6454",
"{. c #936559",
"}. c #A77467",
"|. c #AF7263",
" X c #B07363",
".X c #B27464",
"XX c #B17869",
"oX c #B27869",
"OX c #B3796A",
"+X c #B77B6B",
"@X c None",
/* pixels */
"@X@X@X@X@X@X@X@X@X, , , , < < , , , , < < < < @X@X@X@X@X@X@X@X@X",
", O X o o * : & , : k ! 6 n.n.6 ! . u.`.'.].m.o   o o o o X O , ",
", i.g.f.g.N u O.2 & E X.f (.(.f X.L a.|. X.X{.d.s.s.s.s.s.g.i., ",
"< ).+XXX}.p.P { a 8 R ..f l.l.f ..I K Y.R.J.[.oXOXoXoXoXoX+X).< ",
"< c._.F.<.%.` s 3 & R  .f k.k.f  .I J U.Y.P.Q.~.^.^.^.^.^./.c.< ",
", 6.G.C.e ) [ : , : f o.4 C C 4 o.p &.5.,.r.V.I.W.W.E.K.K.V.6., ",
", D 7.8.w T Q , , , : : , = = , : 9 U | t n 0.y.x.j.v.B.N.9.S , ",
"@X, 7 d 3 , , , , , , , , , , , , & R ..d 8 @.{ d % m e.t.M $ @X",
"@X& O.{ s : , , , , , , , , , , , & R  .d : 2 a 3 - b t.S.-.+ @X",
"@X: i Y ' j : , , , , , , , , , , : f o.2 , , : , * F Z.P.:.@ @X",
"@X; z *./ g : , , , , , , , , , , , : : , , , , , * >.T.Y.;.@ @X",
"@X@ >.C.Z 0 , , , , , , , , , , , , , , , , , , , * >.Y.Y.;.@ @X",
"@X@ :.L.A.G * , , , , , , , , , , , , , , , , , , * >.Y.Y.;.@ @X",
"@X@ ;.T.!.2.# , , , , , , , , , , , , , , , , , , * >.Y.Y.;.@ @X",
"@X+ >.H.z.B ; , , , , , , , , , , , , , , , , , , * >.Y.Y.;.@ @X",
"@X@ H b.v 1 , , , , , , , , , , , , , , , , , , , * >.Y.Y.;.@ @X",
"@X> q l } O.: , , , , , , , , , , , , , , , , , , * :.U.Y.;.@ @X",
"@X& h ~ W d : , , , , , , , , , , , , , , , , , , > r 4.D.1.+ @X",
"@X& j ^ 4 & , , , , , , , , , , , , , , , , , , , : y #.q.V * @X",
"@X, , 3 s 5 , , , , , , , , , , , , , , , , , , , : O._ k 3 , @X",
"@X, : s { +.: , , , , , , , , , , , , , , , , , , , 4 k _ O.& @X",
"@X& k ] Q d : , , , , , , , , , , , , , , , , , , = A w.$.y : @X",
"@X& j ^ 4 & , , , , , , , , , , , , , , , , , , , = C h.3.z ; @X",
"@X, , 3 s 5 , , , , , , , , , , , , , , , , , , , , 1 v b.H @ @X",
"@X, : s { +.: , , , , , , , , , , , , , , , , , , : O.} l q > @X",
"@X& k ] Q d : , , , , , , , , , , , , , , , , , , : d W ~ h & @X",
"@X& j ^ 4 & , , , , , , , , , , , , , , , , , , , , & 4 ^ j & @X",
"@X, , 3 s 5 , , , , , , , , , , , , , , , , , , , , 5 s 3 , , @X",
"@X, : s { +.: , , , , , , , , , , , , , , , , , , : +.{ s : , @X",
"@X& k ' Y i : , , , , , , , , , , , , , , , , , , : i Y ' k & @X",
"@X& h ( =.x > , , , , , , , , , , , , , , , , , , > x =.( h & @X",
"@X, = c M.2.* , , , , , , , , , , , , , , , , , , * 2.M.c = , @X"
};
