/* XPM */
static char *result[] = {
/* columns rows colors chars-per-pixel */
"64 64 184 2 ",
"   c #1D0C06",
".  c #1D0E0B",
"X  c #1E110F",
"o  c #1E1314",
"O  c #1C151C",
"+  c #200F0B",
"@  c #22120E",
"#  c #2B180E",
"$  c #241411",
"%  c #281711",
"&  c #2B1912",
"*  c #291C1C",
"=  c #271814",
"-  c #311E14",
";  c #392316",
":  c #322119",
">  c #3D261A",
",  c #342116",
"<  c #1B1621",
"1  c #1A1A2A",
"2  c #191827",
"3  c #171B31",
"4  c #181C32",
"5  c #2A1E21",
"6  c #231D26",
"7  c #1C2234",
"8  c #25222F",
"9  c #2E2222",
"0  c #332524",
"q  c #362925",
"w  c #3C2C26",
"e  c #362A2B",
"r  c #3B2E2A",
"t  c #24293C",
"y  c #242536",
"u  c #362E34",
"i  c #3D3435",
"p  c #373038",
"a  c #3A333C",
"s  c #373037",
"d  c #432A1A",
"f  c #4A2F1E",
"g  c #4A301F",
"h  c #50331F",
"j  c #432E23",
"k  c #4C3324",
"l  c #443129",
"z  c #4C382F",
"x  c #513623",
"c  c #553926",
"v  c #5A3C25",
"b  c #553B29",
"n  c #593C28",
"m  c #433635",
"M  c #4F3B32",
"N  c #42393A",
"B  c #4B3F3F",
"V  c #533F35",
"C  c #5F422C",
"Z  c #554036",
"A  c #594337",
"S  c #5A4439",
"D  c #5F493C",
"F  c #55433D",
"G  c #65452D",
"H  c #6B4A32",
"J  c #634B3C",
"K  c #664731",
"L  c #714F35",
"P  c #745135",
"I  c #755338",
"U  c #292E44",
"Y  c #252C41",
"T  c #2C334B",
"R  c #2A3045",
"E  c #393846",
"W  c #333C54",
"Q  c #3B3F51",
"!  c #433D44",
"~  c #433E48",
"^  c #3B455F",
"/  c #3C4356",
"(  c #3C4661",
")  c #45424B",
"_  c #484248",
"`  c #494044",
"'  c #544645",
"]  c #564A4B",
"[  c #594C4D",
"{  c #544747",
"}  c #454553",
"|  c #484758",
" . c #4A4A5A",
".. c #464757",
"X. c #5A4F51",
"o. c #504F5C",
"O. c #5B545B",
"+. c #5A5257",
"@. c #6E5542",
"#. c #785D48",
"$. c #615554",
"%. c #6C5E59",
"&. c #7E624B",
"*. c #6E605C",
"=. c #70625D",
"-. c #444C63",
";. c #4B4E62",
":. c #434D6B",
">. c #454B64",
",. c #46516D",
"<. c #4C536A",
"1. c #4E5064",
"2. c #555463",
"3. c #545669",
"4. c #55586A",
"5. c #5E5D6C",
"6. c #5B5864",
"7. c #475472",
"8. c #4D5671",
"9. c #4E5976",
"0. c #4E5B7A",
"q. c #545B74",
"w. c #585F79",
"e. c #605F6F",
"r. c #5D6374",
"t. c #5A627B",
"y. c #7A6B63",
"u. c #756862",
"i. c #626273",
"p. c #60657D",
"a. c #676877",
"s. c #75727B",
"d. c #78757F",
"f. c #8E7B6D",
"g. c #877569",
"h. c #917D6E",
"j. c #556282",
"k. c #5B6684",
"l. c #5D6A8B",
"z. c #606A87",
"x. c #646D8A",
"c. c #626780",
"v. c #697184",
"b. c #6D758D",
"n. c #626F91",
"m. c #657294",
"M. c #667598",
"N. c #687699",
"B. c #69799F",
"V. c #727F9E",
"C. c #7A7780",
"Z. c #6A7BA1",
"A. c #807E83",
"S. c #7D8498",
"D. c #7B8295",
"F. c #7383A6",
"G. c #8A8588",
"H. c #958F8F",
"J. c #97918F",
"K. c #838B9C",
"L. c #959191",
"P. c #9D9693",
"I. c #A19995",
"U. c #8C95A4",
"Y. c #8592AC",
"T. c #9398A6",
"R. c #8897B4",
"E. c #868FA0",
"W. c #9AA3B5",
"Q. c #9CA8BD",
"!. c #9EA2AC",
"~. c #A4A7AF",
"^. c #A5AAB3",
"/. c #ABADB3",
"(. c #A6ADB9",
"). c #AEB0B5",
"_. c #B0B2B6",
"`. c #9EACC2",
"'. c #ACB5C2",
"]. c #AFBBCB",
"[. c #B6BEC8",
"{. c #B9C0CA",
"}. c #BBC6D2",
"|. c None",
/* pixels */
"|.|.|.|.|.|.|.|.|.|.|.|.|.|.|.|.|.|.|.|.|.|.|.|.|.|.|.|.|.|.|.|.|.|.|.|.|.|.|.|.|.|.|.|.|.|.|.|.|.|.|.|.|.|.|.|.|.|.|.|.|.|.|.|.",
"|.|.|.|.|.|.|.|.|.|.|.|.|.|.|.|.|.|.|.|.|.|.|.|.|.|.|.|.|.|.|.|.|.|.|.|.|.|.|.|.|.|.|.|.|.|.|.|.|.|.|.|.|.|.|.|.|.|.|.|.|.|.|.|.",
"|.|.|.|.|.|.|.|.|.|.|.|.|.|.|.|.|.|.|.|.|.|.|.|.|.|.|.|.|.|.|.|.|.|.|.|.|.|.|.|.|.|.|.|.|.|.|.|.|.|.|.|.|.|.|.|.|.|.|.|.|.|.|.|.",
"|.|.|.|.|.|.|.|.|.|.|.|.|.|.|.|.|.|.|.|.|.|.|.|.|.|.|.|.|.|.|.|.|.|.|.|.|.|.|.|.|.|.|.|.|.|.|.|.|.|.|.|.|.|.|.|.|.|.|.|.|.|.|.|.",
"|.|.|.|.|.|.|.|.|.. .                 . . . . + . X   . . $ . . . . . + . . . . + . . .         .         . . |.|.|.|.|.|.|.|.|.",
"|.|.|.|.|.|.|.|.@ @ @ . @ @ @ @ @ + @ + + @ @ + @ @ @ @ @ + $ + @ @ @ @ @ @ X $ + @ @ @ @ X @ @ @ @ o . @ @ @ + |.|.|.|.|.|.|.|.",
"|.|.|.|.|.|.|.|.$ % = * * * 5 5 5 5 5 * = % % % $ $ % $ $ $ % % $ % % @ % $ $ % % % % = * 5 5 5 5 5 5 * = = = % |.|.|.|.|.|.|.|.",
"|.|.|.|.|.|.|.% & - - 0 e p p E E p p e e - - & - - - - - - - - - - - - - - - - - - * 0 e p p E a a p e 0 - - & & |.|.|.|.|.|.|.",
"|.|.|.|.|.+ % & - > w m ~ | o.;.;.;.| ~ m j d > > > > > > > > > > > > > > > > > > > w m ! | ;.;.;.;.| ~ m w > - & % + |.|.|.|.|.",
"|.|.|.|.+ + % - > j z { 2.w.k.x.z.z.w.2.{ z h f f k k k j k k k k k k k k k k f f j z ' 2.w.c.x.x.z.w.2.' z f ; - % @ . |.|.|.|.",
"|.|.|.|.+ @ & - d k A $.a.b.V.F.F.V.b.a.X.V c x x b b b b b c c n x c c c c b c x b A +.a.b.V.F.V.V.b.i.$.V k d - # + + |.|.|.|.",
"|.|.|.|.+ + & - d n J =.C.K.R.R.R.Y.K.C.*.@.V C n C n G C C G n G A C C C C G n n G J *.s.K.R.R.R.R.K.C.%.@.b f - # @ . |.|.|.|.",
"|.|.|.|.. + & > f C @.g.G.T.Q.`.`.Q.T.G.y.@.H G K H H K H H H H K H H H H K H K K H @.y.G.T.Q.`.`.`.T.A.g.I n g > % + . |.|.|.|.",
"|.|.|.|.. @ & - h G #.g.J.~.'.].[._.^.L.g.#.L L L L L L L L L L L H L L L L L H H P I g.J.^.'.[.[.'.^.L.f.I H k > % $ . |.|.|.|.",
"|.|.|.|.. + & > x H I f.I._.[.}.{.{./.P.h.#.I P L I I I I I I I I I I I I I I L P I g.f.I./.[.}.}.[._.I.f.#.H x > % @ . |.|.|.|.",
"|.|.|.|.+ + & d x H g.h.I._.[.}.{.[._.P.g.g.I L P I I I I I I I I I I I I I I I P I I f.I._.{.}.}.[._.I.g.g.H x > % @ . |.|.|.|.",
"|.|.|.|.. + & > h L g.h.I._.{.}.}.{._.P.h.I P P P I I I I I I I I I I I I I P P I I &.f.I._.[.}.}.[._.I.f.&.G v ; # + + |.|.|.|.",
"|.|.|.|.. $ & > h H I f.I._.[.}.}.[._.P.f.g.P P L I I I I I I I I I I P I I P P L I &.f.I._.[.}.}.[._.I.g.g.L h d # + + |.|.|.|.",
"|.|.|.|.. @ & > h L g.f.I._.[.}.}.[._.P.g.I P P P I I I I I I I I I I I I I I P L I &.f.P.).[.}.}.[._.I.g.I L x d # @ + |.|.|.|.",
"|.|.|.|.. @ & > h G I f.I./.[.{.}.[.).P.f.g.P P L I P I I P I I I I I I I I P P L I &.f.P.).[.}.}.[._.I.g.g.H x ; # @ + |.|.|.|.",
"|.|.|.|.. + & > x L g.f.I._.[.}.{.[._.P.f.&.P P P I I I I I I I I I I I I P I P L I g.g.I./.[.[.[.[._.I.h.&.H x > & + . |.|.|.|.",
"|.|.|.|.. + & > h H I f.I._.[.}.{.[./.P.f.&.P P L I I P I I I I I I I P I I P P L I I g.I.).[.}.}.[._.I.h.&.L x d & + . |.|.|.|.",
"|.|.|.|.. @ & d x L g.h.I.).[.}.}.{._.P.g.I P P L I I I I I I I I I I I P I P P P P g.g.I._.[.}.}.[._.I.f.#.G x > & @ . |.|.|.|.",
"|.|.|.|.. + & > x G I h.I._.{.}.}.{._.I.h.g.P P L I I I I I I I I I I I P P P P P P &.g.I._.{.}.}.[._.I.h.g.G x > & @ + |.|.|.|.",
"|.|.|.|.. + & > x H g.g.I._.{.}.}.{._.I.g.g.G L P P P P I I I I I I I I I I I I L I g.f.I._.{.}.}.[._.I.h.I H x > & @ . |.|.|.|.",
"|.|.|.|.. @ & > x H g.f.I._.[.}.}.{./.I.g.g.P L P P P P I I I I I I P P I I P P L I I f.P./.[.[.}.[.).P.h.g.H x > & + . |.|.|.|.",
"|.|.|.|.  @ & > x K P g.J.~.'.].].'.~.J.g.#.L H L L P P L H L L P P L P H L L L H L #.g.J.~._.].[.'.~.H.g.#.K x > & @ . |.|.|.|.",
"|.|.|.|.+ + & ; f n L &.A.U.W.`.`.W.T.h.y.I G G G G G G G G G G H G G G G G G G G K L y.A.T.W.`.Q.W.T.G.y.I n f - & + + |.|.|.|.",
"|.|.|.|.. @ % - d c J %.s.K.Y.R.R.Y.K.s.%.J v v v v n v v n n n n n n n v v v v v v J %.s.K.Y.R.R.Y.K.s.%.J c d - % @ . |.|.|.|.",
"|.|.|.|.. @ % - d k S $.a.b.V.F.V.V.b.i.$.V v v v h n x c n c n c n c c v c v x x n S $.i.b.V.V.V.V.b.a.$.S x d - % @ . |.|.|.|.",
"|.|.|.|.. X % : j z ' O.i.x.N.Z.Z.M.x.e.+.~ S V C J J J J D ' J J D D D S J J V V S ' +.i.x.M.Z.B.N.x.i.O.' M j , % @ . |.|.|.|.",
"|.|.|.|.  $ = 0 m { O.5.p.x.M.N.Z.m.n.c.5.O.$.$.%.=.u.y.u.y.y.y.y.u.y.y.y.y.u.%.$.X.O.5.p.n.M.N.N.M.n.c.5.O.{ m 0 = @   |.|.|.|.",
"|.|.|.|.  @ * u ` 4.i.k.n.n.M.N.N.M.m.x.t.r.a.a.A.G.L.L.L.L.L.L.L.L.H.J.L.H.G.G.s.a.r.c.x.m.M.M.M.M.M.x.c.r.6.) e * @ . |.|.|.|.",
"|.|.|.|.  X * p  .r.x.m.M.M.M.M.M.M.m.n.n.n.b.D.U.!.^././.^./.^.^.^.^.^./.^.!.U.D.b.x.x.n.m.M.M.M.M.M.M.b.x.w. .p 5 $   |.|.|.|.",
"|.|.|.|.  @ * s ..t.k.n.n.n.n.n.n.n.n.l.z.x.D.D.U.^.(.(.(.^.^.^.^.^.^.(.(.(.W.U.D.b.z.l.l.n.n.n.n.n.n.n.n.l.q. .p * $   |.|.|.|.",
"|.|.|.|.  X * u E o.r.t.t.t.k.k.k.k.t.0.r.q.r.a.D.E.U.U.U.K.S.S.K.K.E.U.U.U.K.D.v.r.q.q.w.j.k.k.k.k.j.t.t.4.1.! e * +   |.|.|.|.",
"|.|.|.|.  @ = 9 s ! ) o.<.8.9.9.0.0.9.<...} ] +.r.a.D.v.p.a.r.r.r.r.t.a.v.b.v.r.2. ._  .;.7.9.9.0.9.7.<. .} ! s 9 = @   |.|.|.|.",
"|.|.|.|.@ X @ & : r i E } -.,.7.7.( -./ E i i /  .<.9.( ^ / / / / / / ^ <.8.<. .~ i m a } -.,.7.7.7.-.} ! m r : = $ @ + |.|.|.|.",
"|.|.|.|.@ @ @ % & : q i / -.7.( 7.,.-.) i w r s / -.( ( W R t t 7 t R W ^ -.;.) a w w i / -.7.7.7.,.-.Q a q , & % @ @ . |.|.|.|.",
"|.|.|.|.X X @ % # , q i ..7.0.0.0.9.<.} N w w Z _ <.7.( T Y 7 7 7 7 Y T ^ ,.,...N j w N ) <.9.0.0.9.<.} i q & # # $ @ o |.|.|.|.",
"|.|.|.O $ @ @ @ & - q N  .0.k.l.l.k.r.o.F l z ` o.q.9.:.W Y 7 4 7 7 R / ( j.9. .` l z B o.q.k.l.l.j.t. .N q : # @ @ @ o O |.|.|.",
"|.|.1 O o X @ # # , r ` 4.t.n.m.M.n.k.6._ M Z ] 5.k.k.9.( T Y y 7 t R ^ 9.k.k.5.] V M ' 6.c.m.m.M.n.t.2.` r : # # @ @ o O 2 |.|.",
"|.4 1 O o o @ @ & : r _ 4.z.N.N.B.M.z.5.] Z Z ] 5.x.l.j.:.W T U T W / ( t.l.x.e.[ V Z ] 5.z.N.B.Z.M.l.4.` r : # @ @ @ o O 1 4 |.",
"|.4 1 O o $ @ # & : r _ 4.z.N.F.B.B.z.e.] Z Z [ e.n.m.l.0.:.( ^ ^ ( ( 0.l.m.x.e.[ Z Z [ e.x.N.Z.Z.M.x.4.) r : & # @ o o O 1 4 |.",
"|.4 1 O o o @ @ & : r _ 4.z.N.B.B.N.z.5.] Z Z ] e.x.M.m.l.j.0.9.0.0.t.l.n.M.x.i.[ Z Z [ 5.x.N.Z.Z.M.l.4._ r : # # @ o o O 1 4 |.",
"|.7 1 O o @ @ # # : r _ 4.l.N.B.B.N.x.5.[ Z Z ] 5.x.m.m.n.l.x.l.l.l.l.m.M.m.z.5.] Z Z ] 5.x.N.B.Z.M.l.4._ r : & @ @ X o < 1 4 |.",
"|.4 1 O o @ @ # # : r ` 4.z.N.B.B.N.x.5.] Z Z ' $.p.x.x.n.z.z.x.x.v.z.x.l.x.p.6.{ Z Z ] 5.x.N.B.B.N.z.4._ r , # # @ $ o O 1 4 |.",
"|.4 1 O o @ @ @ & : r ` 4.z.N.B.B.N.x.5.] Z b F ] e.e.w.i.e.i.i.r.r.i.r.r.5.6.X.F b Z ] 5.z.N.N.B.N.z.4._ r , # @ @ $ o O 1 4 |.",
"|.4 1 O o @ @ @ # , r ` 4.l.M.B.Z.m.x.5.[ V z M V [ X.X.+.X.X.X.X.X.X.X.X.X.[ V V z V [ e.x.N.B.B.N.k.4._ r , & # @ X o O 1 4 |.",
"|.4 1 O o o @ % & : > / 4.l.M.B.Z.M.x.5.[ V b x b V V V V V V V V V V V V V V z x c V [ e.z.M.B.B.N.z.4.) r , % @ @ $ o O 1 4 |.",
"|.4 1 < o $ $ $ # : q F 4.z.N.B.Z.N.x.e.X.V x k x x x x x x k x z x x x x x x x h x V X.e.z.M.B.B.N.z.3.) r : # # $ o o < 1 4 |.",
"|.4 1 < O O o $ % - q / 2.z.N.B.Z.N.x.e.X.V x k h h x k x x x x x x h k x x h h h x V X.e.v.N.Z.F.N.k.3.! q & @ @ $ O O 2 1 4 |.",
"4 4 4 1 2 O O $ $ $ 0 a 2.l.N.B.Z.N.x.e.X.V x x x k k x x x x x x x x x x x x x x x V X.e.x.N.Z.B.N.l.2.E 0 = o o * < 2 1 4 4 4 ",
"|.|.4 4 1 1 < o o $ 9 E 1.l.N.B.Z.M.x.5.X.V x k h x z x x x x x x x k x x c k x k x V X.e.x.M.B.B.M.k.1.a 9 $ . o < 1 1 1 4 |.|.",
"|.|.|.|.|.|.1 O o $ 5 E  .k.n.M.m.n.k.5.] M x k k x k k k k z k k k k k l k k k k x V ] 4.z.n.M.m.n.t.;.a 5 o o O 1 |.|.|.|.|.|.",
"|.|.|.|.|.|.1 2 O o 6 p / 7.t.k.k.j.q.2.~ m l j j l l l l j j l l l l l l l l j j l m ~ ;.9.j.k.k.j.9./ a 6 O o < 3 |.|.|.|.|.|.",
"|.|.|.|.|.|.3 2 < < 6 t W ^ :.:.,.:.-.Q E e r e w e e e e e e e e e e e e e e e w e u E ~ -.:.:.:.:.^ W t 6 < < 2 3 |.|.|.|.|.|.",
"|.|.|.|.|.|.4 3 3 2 1 y y U R T T T U Y t y 8 6 8 8 8 8 8 8 8 8 8 8 8 8 8 8 8 8 8 8 y y U U T T T R U t y 1 1 1 3 3 |.|.|.|.|.|.",
"|.|.|.|.|.|.|.|.|.|.|.|.|.|.4 4 4 4 4 4 4 4 4 7 4 4 4 4 4 4 4 4 4 4 4 4 4 4 4 4 4 4 4 4 4 4 4 4 4 4 |.|.|.|.|.|.|.|.|.|.|.|.|.|.",
"|.|.|.|.|.|.|.|.|.|.|.|.|.|.|.|.|.|.|.|.|.|.|.|.|.|.|.|.|.|.|.|.|.|.|.|.|.|.|.|.|.|.|.|.|.|.|.|.|.|.|.|.|.|.|.|.|.|.|.|.|.|.|.|.",
"|.|.|.|.|.|.|.|.|.|.|.|.|.|.|.3 |.|.|.|.|.|.|.|.|.|.|.|.|.|.|.|.|.|.|.|.|.|.|.|.|.|.|.|.|.|.|.|.3 |.|.|.|.|.|.|.|.|.|.|.|.|.|.|.",
"|.|.|.|.|.|.|.|.|.|.|.|.|.|.|.4 3 3 |.|.|.|.|.|.|.|.|.|.|.|.|.|.|.|.|.|.|.|.|.|.|.|.|.|.|.|.3 3 3 |.|.|.|.|.|.|.|.|.|.|.|.|.|.|.",
"|.|.|.|.|.|.|.|.|.|.|.|.|.|.|.4 4 4 4 4 4 4 4 4 4 4 4 4 4 4 4 4 4 4 4 4 4 4 4 4 4 4 4 4 4 4 4 4 4 |.|.|.|.|.|.|.|.|.|.|.|.|.|.|.",
"|.|.|.|.|.|.|.|.|.|.|.|.|.|.|.4 4 4 4 4 4 4 4 4 4 4 4 4 4 4 4 4 4 4 4 4 4 4 4 4 4 4 4 4 4 4 4 4 4 |.|.|.|.|.|.|.|.|.|.|.|.|.|.|."
};
