/* XPM */
static char *result[] = {
/* columns rows colors chars-per-pixel */
"64 64 195 2 ",
"   c #1E292E",
".  c #1D262A",
"X  c #152732",
"o  c #1E2B32",
"O  c #1C3034",
"+  c #1C323E",
"@  c #202E36",
"#  c #2B2D3E",
"$  c #272D3A",
"%  c #203037",
"&  c #223139",
"*  c #29303E",
"=  c #1D3441",
"-  c #2E2F41",
";  c #322F44",
":  c #3D2D4B",
">  c #243641",
",  c #253A45",
"<  c #273D4A",
"1  c #2A3A47",
"2  c #33354B",
"3  c #462E53",
"4  c #4B2B55",
"5  c #4E2D59",
"6  c #522C5A",
"7  c #522957",
"8  c #4A335C",
"9  c #4E3664",
"0  c #652B69",
"q  c #632B68",
"w  c #732A72",
"e  c #7B2A79",
"r  c #762772",
"t  c #29414D",
"y  c #3F4747",
"u  c #374348",
"i  c #2A4554",
"p  c #244959",
"a  c #2C4B5C",
"s  c #274656",
"d  c #394B5D",
"f  c #2E4E61",
"g  c #2F5164",
"h  c #2E5369",
"j  c #315266",
"k  c #315469",
"l  c #34596E",
"z  c #3B5768",
"x  c #2D5D75",
"c  c #345C73",
"v  c #355F78",
"b  c #385874",
"n  c #3A4966",
"m  c #36617A",
"M  c #39647E",
"N  c #386177",
"B  c #404747",
"V  c #414D53",
"C  c #41545F",
"Z  c #726C5F",
"A  c #445A66",
"S  c #425F70",
"D  c #456375",
"F  c #59686E",
"G  c #6B6A61",
"H  c #706B60",
"J  c #6F787D",
"K  c #67757D",
"L  c #71787C",
"P  c #9B917F",
"I  c #AC987D",
"U  c #396782",
"Y  c #3B6A86",
"T  c #3C6D8A",
"R  c #366887",
"E  c #3E718F",
"W  c #3E7392",
"Q  c #3E799E",
"!  c #3B779C",
"~  c #3E7CA2",
"^  c #426C85",
"/  c #4A7187",
"(  c #5F7B8A",
")  c #417695",
"_  c #427B9D",
"`  c #4A7E9E",
"'  c #417798",
"]  c #537C95",
"[  c #677A84",
"{  c #437EA1",
"}  c #892983",
"|  c #8F2988",
" . c #4D819E",
".. c #55849E",
"X. c #58859E",
"o. c #65899A",
"O. c #758D97",
"+. c #7B939A",
"@. c #72919D",
"#. c #4481A5",
"$. c #4584AA",
"%. c #4886AC",
"&. c #4988AE",
"*. c #4C83A4",
"=. c #548AAA",
"-. c #5B8DAB",
";. c #5688A4",
":. c #5E90AE",
">. c #4587B0",
",. c #4589B2",
"<. c #4A8CB3",
"1. c #468DBA",
"2. c #4C8FB8",
"3. c #4790BD",
"4. c #4D92BC",
"5. c #5E94B4",
"6. c #5395BC",
"7. c #5D98BB",
"8. c #6993AB",
"9. c #7B9DAB",
"0. c #659CBA",
"q. c #679AB6",
"w. c #749FB7",
"e. c #698EA1",
"r. c #7CA3BA",
"t. c #77A1B5",
"y. c #7FA0AC",
"u. c #4E95C1",
"i. c #5098C4",
"p. c #5096C1",
"a. c #949D97",
"s. c #818882",
"d. c #A2A195",
"f. c #ABAC9F",
"g. c #A5A599",
"h. c #B5AC97",
"j. c #839DA7",
"k. c #83A2AD",
"l. c #88A2AD",
"z. c #98A6A7",
"x. c #8EABB4",
"c. c #87A8BB",
"v. c #97ADB2",
"b. c #92B0B9",
"n. c #BDBDAE",
"m. c #B3B4A7",
"M. c #A0ABB2",
"N. c #AFB3B4",
"B. c #B2B4B6",
"V. c #BFBEB0",
"C. c #A5AAA1",
"Z. c #C4AF91",
"A. c #CAB293",
"S. c #C9B596",
"D. c #DCBB93",
"F. c #D5BC9A",
"G. c #E2BD91",
"H. c #C9BEA6",
"J. c #DFC19A",
"K. c #E4C198",
"L. c #EBC497",
"P. c #F1C696",
"I. c #F4CC9E",
"U. c #F9CE9E",
"Y. c #D9C5A6",
"T. c #C3C1B1",
"R. c #E7CEAB",
"E. c #E8CEAB",
"W. c #E7CAA5",
"Q. c #EED2AD",
"!. c #FCD4A5",
"~. c #FFD9A7",
"^. c #FED7A8",
"/. c #FFDAAA",
"(. c #F5D4AA",
"). c #8EB2C7",
"_. c #8FB4CB",
"`. c #91B5CB",
"'. c #92B8CF",
"]. c #89B0C8",
"[. c #A5BCCA",
"{. c #AAC3D2",
"}. c #B1CADA",
"|. c #A8C0CE",
" X c #CAD4DA",
".X c #C5CACD",
"XX c #C4D9E6",
"oX c #C7DAE6",
"OX c #DEE1E2",
"+X c #E3E4E4",
"@X c #E6E7E8",
"#X c #E4ECF1",
"$X c #E9EFF3",
"%X c #EAF1F5",
"&X c None",
/* pixels */
"&X&X&X&Xo O O o o O < a v W { { { ~ ~ ~ { { W v < = = f U { p.p.u.u.4.4.4.4.4.2.4.4.4.4.4.4.4.u.u.4.$.Y g , @ . &X&X&X&X&X&X&X&X",
"&X&X&X&X& & O & O & , a m W { { { { ~ { { { ) v f < < h ) { u.u.u.4.4.4.4.4.4.4.4.4.4.4.4.2.4.6.u.4.$.T j < @ @ &X&X&X&X&X&X&X&X",
"&X&X&X&X; ; - # $ & < a v W { %.=.=.-.*.{ ' ^ S z C n D ' &.2.u.4.4.4.4.4.4.4.4.4.4.4.4.4.4.4.4.4.4.%.) c a < , &X&X&X&X&X&X&X&X",
"&X&X&X: 3 3 3 : ; $ < a v W *.8.w.c.w.8.] ^ ^ S F [ [ ( ] =.<.1.2.4.4.4.u.u.u.6.4.4.4.4.4.4.4.4.6.4.&._ T c k a i &X&X&X&X&X&X&X",
"O & ; 3 6 0 q 5 : - , p x W =.t.'.{.[.l.[ S S F s.v.M.l.w.=.1.,.<.2.4.p.4.u.u.4.6.4.4.4.4.4.4.4.u.4.<.%.{ ) Y c a < & &X&X&X&X&X",
"O & ; 5 w e e 0 4 - < p x W =.].}.oX XM.[ d A K z..XoX[.c.-.{ >.>.2.4.4.4.4.4.4.4.4.4.4.4.4.4.4.4.4.4.2.<.$._ U j < & o &X&X&X&X",
"O & ; 6 w } } w 4 ; , p x W :._.XX#X+XN.[ V V L B.+X#XXX].:.{ { >.2.4.2.<.{ { <.2.2.4.4.4.4.4.4.4.4.4.2.<.$.' M a , & o &X&X&X&X",
"O O ; 6 w | | w 7 ; , p x W :.'.oX%X+XB.L V V L B.@X%XXX_.:.{ { >.2.4.{ ' ) ) ' $.2.4.4.4.4.4.4.4.4.<.%.{ ) U k i , & @ &X&X&X&X",
"O & ; 5 w | | r 7 ; < p x E :._.oX%X+XB.L V V L B.+X$XXX).-.~ ~ >.2.&.' M l c U ) &.3.4.4.4.4.4.6.4.<._ Y b g i , * % % &X&X&X&X",
"O & ; 5 w } } w 6 ; < p x E :._.XX#X+XN.L V V L N.+X#XXX).5.$.$.,.2.%.) b a a l E &.4.p.u.4.4.u.u.4.$.W c a , > & & % % &X&X&X&X",
"O & - 4 q e e 0 4 - , p x W :._.XX#X+XN.L V V L N.+X#XXX).5.{ $.,.<.%.) c a s b E &.4.4.u.4.4.4.u.4.%.) c a < > & & + % &X&X&X&X",
"o + - : 6 q q 7 : - = p x W 5.'.oX$X+XB.L V V L B.+X$XXX`.-.$.$.,.2.>.) U l b U ! <.4.6.6.4.4.4.4.4.<._ Y l a t t & & % &X&X&X&X",
"O & $ ; : 3 3 : - @ , p x ! 8.'.oX%X@XB.L V V L B.+X$XXX).:.$.~ ,.2.2.{ ' ) ) ) #.2.4.4.4.4.4.4.4.4.<.%._ W M k i > @ @ &X&X&X&X",
"& & & * - - - - $ > , p x W :._.XX#XOXN.L V V L N.OX#XXX).-.{ $.>.2.2.<.&.%.%.<.<.2.4.4.4.4.4.4.4.4.4.4.<.$.' M g , &   &X&X&X&X",
"& & & & & & @ $ # - 2 f b T *.].}.oX XM.[ C A [ M. XoX}.].=.{ $.>.2.6.u.u.2.2.2.4.4.4.4.4.4.4.4.4.4.4.4.u.4.$.T j < & @ &X&X&X&X",
"& & O o o + @ - : 4 8 9 n b / o.).[.[.k.[ S S [ j.[.{.`.w.=.{ $.>.2.2.u.u.u.p.u.6.4.4.4.4.4.4.4.4.4.4.u.i.6.%.E j < @ @ &X&X&X&X",
"&X&X&XO O O - : 6 q 0 9 9 n z / @.t.t.8...^ ^ ] e.r.c.w.:.*.{ $.,.<.4.u.4.u.6.4.4.4.4.4.4.4.4.4.4.4.4.p.p.4.&.T j t &   &X&X&X&X",
"&X&X&X&XO & - 3 q e e 0 8 2 i l / ..=.;.` ) ) ] *.-.=.=.*.#.#.$.<.4.4.4.4.4.4.4.4.4.4.4.4.4.4.4.4.4.4.4.p.4.%.E j , % @ &X&X&X&X",
"&X&X&X&XO & ; 5 w } } w 5 ; 1 a m W #.#.#._ _ #.{ { { _ { { { %.<.2.4.4.4.4.4.4.4.4.4.4.4.4.4.4.4.4.4.p.p.4.$.T j < O o &X&X&X&X",
"&X&X&X&XO & ; 6 w | | r 6 ; > p x T ! ~ #.#.#.Q Q Q Q Q _ { { $.<.2.4.4.4.4.4.4.4.u.4.u.u.u.6.4.p.4.u.i.i.4.%.T k t & o &X&X&X&X",
"&X&X&X&XO & ; 6 w | | w 5 ; , p x T Q { { #.~ _ _ Q _ Q _ _ #.$.<.4.4.4.4.4.4.4.u.4.p.p.p.p.p.u.u.u.p.i.i.u.&.E k < & o &X&X&X&X",
"&X&X&X&XO & ; 5 w } } w 4 ; , a m W { #.#._ _ #.{ { { { { _ #.%.&.2.4.4.4.4.4.4.4.4.4.4.4.4.4.4.4.4.4.4.u.4.$.T j < & o &X&X&X&X",
"&X&X&X&XO & ; 3 q e e 0 4 ; , a v W _ #.#.{ _ #.{ _ { _ _ { { $.&.<.4.4.4.4.2.2.<.<.$.$.$.$.$.$.$.$.$.<.&.$.' M f , & o &X&X&X&X",
"&X&X&X&XO & - : 6 q q 6 : # < a m W { #.#._ #._ { ` { { _ { { #.$.&.<.<.4.2.2.$.' ^ T Y T E ^ T T T T ^ E Y M k s > & o &X&X&X&X",
"&X&X&X&XO & * ; : 3 3 : ; $ < a m ! #.#.#._ { { { { { _ { _ { #.#.#.$.<.2.4.&.' Y l j g j j k j j j j h k j g i < * & % &X&X&X&X",
"&X&X&X&X@ & & * - - - # $ & , a m W _ #.#.{ { _ _ { { { _ { { { { #.#.<.2.2.%.) c a < , , < < < < < < t < < , > & & % % &X&X&X&X",
"&X&X&X&X& @ & & & & % @ @ & , i l Y W Q _ { { { { _ { { #.{ #.{ #.#.*.<.2.2.$.) c a < & & & & % % & & & & & & & & & % & &X&X&X&X",
"&X&X&X&X&X& & O O O O o o & > i f l M T W ' { { { #._ #.#.$.$.$.$.$.$.<.2.<.<.{ Y c a i , & @ o   @ o o   o @ o & & % &X&X&X&X&X",
"&X&X&X&X&X&X&X&X&X&X&XO % % & , t s j N T ) { { { _ { $.$.&.<.&.<.&.<.2.4.2.<.$.{ W m j i > %     &X&X&X&X&X&X&X&X&X&X&X&X&X&X&X",
"&X&X&X&X&X&X&X&X&X&X&X&X@ % & & & , i j M W _ { #.{ #.$.,.<.2.4.2.2.2.4.4.4.4.4.<.$.' U a , % o &X&X&X&X&X&X&X&X&X&X&X&X&X&X&X&X",
"&X&X&X&X&X&X&X&X&X&X&X&X& % & @ % % , f m W _ #.{ { { $.<.2.4.4.4.4.4.4.4.4.4.4.u.3.$.T j < & o &X&X&X&X&X&X&X&X&X&X&X&X&X&X&X&X",
"&X&X&X&X&X&X&X&X&X&X&X&X&X& @ @ @ % > a m W _ #.{ { ~ $.,.1.3.3.3.3.3.3.3.1.3.u.u.u.$.T k t & o &X&X&X&X&X&X&X&X&X&X&X&X&X&X&X&X",
"&X&X&X&X&X&X&X&X&X&X&X&X&X&X&Xo o o , a x W _ ~ ~ Q ~ $.,.1.3.3.3.3.3.3.3.3.3.u.u.u.>.T h < + o &X&X&X&X&X&X&X&X&X&X&X&X&X&X&X&X",
"&X&X&X&X&X&X&X&X&X&X&X&X&X&X&X&Xo & , a m W  .#.#. .#.$.<.4.4.4.4.6.4.4.4.4.4.4.6.4.$.R h t & o &X&X&X&X&X&X&X&X&X&X&X&X&X&X&X&X",
"&X&X&X&X&X&X&X&X&X&X&X&X&X&X&X&Xo & , a m W #. . .....-.:.q.0.0.0.0.0.0.0.0.0.0.0.0.;.Y k t O . &X&X&X&X&X&X&X&X&X&X&X&X&X&X&X&X",
"&X&X&X&X&X&X&X&X&X&X&X&X&X&X&X&X  @ , p c W  .;.o.@.+.j.l.x.x.x.x.x.x.x.x.x.b.b.b.x.9.K A u % o &X&X&X&X&X&X&X&X&X&X&X&X&X&X&X&X",
"&X&X&X&X&X&X&X&X&X&X&X&X&X&X&X&X  @ > a x W  .o.+.a.g.f.m.n.n.T.n.n.n.n.n.n.n.T.T.V.C.P F u & X &X&X&X&X&X&X&X&X&X&X&X&X&X&X&X&X",
"&X&X&X&X&X&X&X&X&X&X&X&X&X&X&X&Xo & < a v E ..@.a.h.S.J.Y.W.W.E.E.R.R.R.R.R.R.Q.Q.R.S.d.G y & X &X&X&X&X&X&X&X&X&X&X&X&X&X&X&X&X",
"&X&X&X&X&X&X&X&X&X&X&X&X&X&X&X&X, < s h R W ..+.d.Z.D.L.I.!.^././.^.^.^.^././././.~.D.I H y & X &X&X&X&X&X&X&X&X&X&X&X&X&X&X&X&X",
"&X&X&X&X&X&X&X&X&X&X&X&X&X&X&Xi a h c v T ) X.+.d.A.J.P.U.!.~./././.~.~./././././.~.K.I Z y & X &X&X&X&X&X&X&X&X&X&X&X&X&X&X&X&X",
"&X&X&X&X&X&X&X&X&X& O @   @ > a c U T ! ! { X.+.d.Z.G.L.U.!.~.~.~./.~.~.~.~././././.K.I Z B & X &X&X&X&X&X&X&X&X&X&X&X&X&X&X&X&X",
"&X&X&X&X&X&X&X&X% & & @ @ @ < j Y _ $.$.{ { ..+.d.Z.G.L.U.!.~././.^.^.^.^.^.^./././.K.I H y & X &X&X&X&X&X&X&X&X&X&X&X&X&X&X&X&X",
"&X&X&X&X&X&X&X&X& & & & * , a c W $.<.,.$.#...+.d.Z.D.L.U.U.~.~.^.^.^.^.^.^./././.^.K.I Z y & X &X&X&X&X&X&X&X&X&X&X&X&X&X&X&X&X",
"&X&X&X&X&X&X&X&Xo & > , i g c Y _ $.<.>.$.#.X.O.d.A.G.P.U.!.~.~././.^.~./././././.~.K.I Z B & X &X&X&X&X&X&X&X&X&X&X&X&X&X&X&X&X",
"&X&X&X&X&X&X&X&Xo & , a l U W _ #.$.$.$.~ { X.+.d.Z.G.P.U.!.~.~./.^.^./.^.^././././.K.I Z B % X &X&X&X&X&X&X&X&X&X&X&X&X&X&X&X&X",
"&X&X&X&X&X&X&X&Xo & < a M ' $.%.$.#.#.~ ~ { ..+.d.Z.D.L.I.!.~.~.^.^.^.^.^.^././././.D.I Z y & X &X&X&X&X&X&X&X&X&X&X&X&X&X&X&X&X",
"&X&X&X&X&X&X&X&Xo & , f M ' #.%.$.{ { _ ~ { ..@.a.h.Z.F.J.R.E.Q.(.(.!.!.!.!.!.(.(.R.S.d.G u O X &X&X&X&X&X&X&X&X&X&X&X&X&X&X&X&X",
"&X&X&X&X&X&X&X&Xo & , i l U W ' _ _ { ~ { _  .o.+.a.g.f.m.n.T.Y.W.L.I.I.U.I.W.W.Y.T.C.s.F u % . &X&X&X&X&X&X&X&X&X&X&X&X&X&X&X&X",
"&X&X&X&X&X&X&X&X% % * < s g c M E _ #.#.~ _  ...o.@.+.9.k.x.v.m.Y.J.L.P.P.L.J.Y.n.v.9.( A t & . &X&X&X&X&X&X&X&X&X&X&X&X&X&X&X&X",
"&X&X&X&X&X&X&X&X@ & & & & t i l U W _ #.#.{ {  . ...X.-.:.q.t.l.f.A.D.K.G.J.S.m.x.9.-.^ z t & o &X&X&X&X&X&X&X&X&X&X&X&X&X&X&X&X",
"&X&X&X&X&X&X&X&X& % & @ O & , a b Y ) ' _ _ { _ #.~ #.%.<.2.7.y.z.h.S.S.A.Z.h.z.y.5.$.T h 1 & o &X&X&X&X&X&X&X&X&X&X&X&X&X&X&X&X",
"&X&X&X&X&X&X&X&X&X& @ @ @ o & i h c M T W ' #.#.#.#.>.,.1.3.6.q.k.z.C.f.f.g.z.k.q.6.$.R h < %   &X&X&X&X&X&X&X&X&X&X&X&X&X&X&X&X",
"&X&X&X&X&X&X&X&X&X&X&X&X&X&X&X< i a j c Y ' { $.>.>.,.3.3.3.6.7.q.t.y.k.k.y.t.q.7.4.$.R h < % @ &X&X&X&X&X&X&X&X&X&X&X&X&X&X&X&X",
"&X&X&X&X&X&X&X&X&X&X&X&X&X&X&X&X> , i j M W #.$.<.<.2.2.4.3.4.6.5.5.5.q.5.5.5.7.6.6.$.E j < & o &X&X&X&X&X&X&X&X&X&X&X&X&X&X&X&X",
"&X&X&X&X&X&X&X&X&X&X&X&X&X&X&X&Xo & < a m W #.&.<.3.2.2.&.%.%.$.$.$.&.&.<.2.4.4.6.4.$.T j t % o &X&X&X&X&X&X&X&X&X&X&X&X&X&X&X&X",
"&X&X&X&X&X&X&X&X&X&X&X&X&X&X&X&X  @ , a c W #.<.4.4.2.&._ E E U R T W ! #.>.3.3.u.4.%.T j < & o &X&X&X&X&X&X&X&X&X&X&X&X&X&X&X&X",
"&X&X&X&X&X&X&X&X&X&X&X&X&X&X&X&X  @ > a N ) $.<.4.4.2._ Y b j f h h c U W ~ <.3.4.4.&.T j < & o &X&X&X&X&X&X&X&X&X&X&X&X&X&X&X&X",
"&X&X&X&X&X&X&X&X&X&X&X&X&X&X&X&X@ % , a c W { <.2.4.$.) c a < > + t i k U ! $.<.2.2.$.E j < &   &X&X&X&X&X&X&X&X&X&X&X&X&X&X&X&X",
"&X&X&X&X&X&X&X&X&X&X&X&X&X&X&X&X@ % , s b Y W { #.$._ Y j t % @ O % , a l R W  .$.$._ Y j < % @ &X&X&X&X&X&X&X&X&X&X&X&X&X&X&X&X",
"&X&X&X&X&X&X&X&X&X&X&X&X&X&X&X&X% % > t a l m U Y Y U c a > @ .   O & t a k m R Y Y U c f 1 & &X&X&X&X&X&X&X&X&X&X&X&X&X&X&X&X&X",
"&X&X&X&X&X&X&X&X&X&X&X&X&X&X&X&X@ & * , t a a j j j j a i &X&X  @ @ & > t s a g g g j a i &X&X&X&X&X&X&X&X&X&X&X&X&X&X&X&X&X&X&X",
"&X&X&X&X&X&X&X&X&X&X&X&X&X&X&X&X@ % & * * , , , 1 < , t &X&X&X&X@ & & & > , , , t 1 , < &X&X&X&X&X&X&X&X&X&X&X&X&X&X&X&X&X&X&X&X",
"&X&X&X&X&X&X&X&X&X&X&X&X&X&X&X&X% % % % + % % & & & % & &X&X&X&X@ % % % % % & & % % & & &X&X&X&X&X&X&X&X&X&X&X&X&X&X&X&X&X&X&X&X",
"&X&X&X&X&X&X&X&X&X&X&X&X&X&X&X&X% % % % @ O   @ o   @   &X&X&X&X& % @ @ @ @ @ O @   @ o &X&X&X&X&X&X&X&X&X&X&X&X&X&X&X&X&X&X&X&X"
};
