/* XPM */
static char *result[] = {
/* columns rows colors chars-per-pixel */
"32 32 69 1 ",
"  c #4E2F37",
". c #4E3038",
"X c #4F3038",
"o c #503038",
"O c #503139",
"+ c #513139",
"@ c #52323A",
"# c #53323B",
"$ c #53333B",
"% c #54333B",
"& c #54333C",
"* c #55343C",
"= c #56343D",
"- c #57353D",
"; c #58353E",
": c #58363E",
"> c #59363F",
", c #5A363F",
"< c #5A373F",
"1 c #5A3740",
"2 c #5B3740",
"3 c #5B3841",
"4 c #5C3841",
"5 c #5D3842",
"6 c #5E3942",
"7 c #5E3943",
"8 c #5F3A43",
"9 c #603A44",
"0 c #603B44",
"q c #613B44",
"w c #613B45",
"e c #633C46",
"r c #643D47",
"t c #663E48",
"y c #673F49",
"u c #683F49",
"i c #683F4A",
"p c #68404A",
"a c #69404A",
"s c #6A414B",
"d c #6B414B",
"f c #6B414C",
"g c #6C424C",
"h c #6E434E",
"j c #70444F",
"k c #714550",
"l c #724550",
"z c #744752",
"x c #754753",
"c c #764853",
"v c #774854",
"b c #794A55",
"n c #794A56",
"m c #7B4B57",
"M c #7E4D59",
"N c #824F5C",
"B c #83505C",
"V c #83505D",
"C c #84505D",
"Z c #84515D",
"A c #85515E",
"S c #86525E",
"D c #86525F",
"F c #87525F",
"G c #875360",
"H c #885360",
"J c #895360",
"K c #895461",
"L c None",
/* pixels */
"LLLLHHHiNNpJHHHpNb0BKpNNiHHHLLLL",
"LCJDhmAtMk2fzZZru8%tg2kMtAmhDJCL",
"Levc670-7>@=100=*@X&-@>7-076cveL",
"L312&:2$#OXXO$$OXXXXXXO#$2:&213L",
"Fj8-ooOXXXXXXXXXXXXXXXXXXOoo-8jF",
"xSl.XXXXXXXXXXXXXXXXXXXXXXXX.lSx",
"101XXXXXXXXXXXXXXXXXXXXXXXXXX101",
"=,=XXXXXXXXXXXXXXXXXXXXXXXXXX=,=",
"VntXXXXXXXXXXXXXXXXXXXXXXXXXXtnV",
"d9*XXXXXXXXXXXXXXXXXXXXXXXXXX*9d",
"sy5XXXXXXXXXXXXXXXXXXXXXXXXXX5ys",
"KGlXXXXXXXXXXXXXXXXXXXXXXXXXXlGK",
"ba<XXXXXXXXXXXXXXXXXXXXXXXXXX<ab",
"44;XXXXXXXXXXXXXXXXXXXXXXXXXX;44",
"4>&XXXXXXXXXXXXXXXXXXXXXXXXXX&>4",
">=&+XXXXXXXXXXXXXXXXXXXXXXXX+&=>",
"BBCw XXXXXXXXXXXXXXXXXXXXXX wCBB",
"ZNh>.XXXXXXXXXXXXXXXXXXXXXX.>hNZ",
"094$XXXXXXXXXXXXXXXXXXXXXXXX$490",
"42&+XXXXXXXXXXXXXXXXXXXXXXXX+&24",
"42OXXXXXXXXXXXXXXXXXXXXXXXXXXO24",
"2-OXXXXXXXXXXXXXXXXXXXXXXXXXXO-2",
"gq=XXXXXXXXXXXXXXXXXXXXXXXXXX=qg",
"VntXXXXXXXXXXXXXXXXXXXXXXXXXXtnV",
"=,=XXXXXXXXXXXXXXXXXXXXXXXXXX=,=",
"101XXXXXXXXXXXXXXXXXXXXXXXXXX101",
"xSl.XXXXXXXXXXXXXXXXXXXXXXXX.lSx",
"Fj8-ooOXXXXXXXXXXXXXXXXXXOoo-8jF",
"L312&:2$#OXXO$$OXXXXXXO#$2:&213L",
"Levc670-7>@=100=*@X&-@>7-076cveL",
"LCJDhmAtMk2fzZZru8%tg2kMtAmhDJCL",
"LLLLHHHiNNpJHHHpNb0BKpNNiHHHLLLL"
};
