/* XPM */
static char *result[] = {
/* columns rows colors chars-per-pixel */
"64 64 57 1 ",
"  c #000101",
". c #060609",
"X c #07080B",
"o c #090B0E",
"O c #0B0D13",
"+ c #0F1116",
"@ c #12141C",
"# c #131621",
"$ c #151922",
"% c #191D26",
"& c #1A1E29",
"* c #1D212D",
"= c #1E2434",
"- c #212634",
"; c #242935",
": c #212639",
"> c #242A3D",
", c #282E3F",
"< c #2A303E",
"1 c #272D41",
"2 c #282F43",
"3 c #2B3145",
"4 c #2D3449",
"5 c #30374D",
"6 c #31394E",
"7 c #343D54",
"8 c #373F58",
"9 c #374057",
"0 c #384057",
"q c #374058",
"w c #3B445C",
"e c #3F485E",
"r c #3D4660",
"t c #3F4963",
"y c #40485D",
"u c #414B66",
"i c #434D69",
"p c #46516C",
"a c #48536F",
"s c #4A5572",
"d c #4E5976",
"f c #4F5A78",
"g c #505B76",
"h c #515D7B",
"j c #54607F",
"k c #566282",
"l c #596686",
"z c #5B6886",
"x c #5B6788",
"c c #5D6A8B",
"v c #606D8F",
"b c #626F91",
"n c #647294",
"m c #677598",
"M c #68769A",
"N c #6A799C",
"B c #6D7BA0",
/* pixels */
"::=:=:========137wttutuuuiuiiiiiuuuuutr73>===:==>=====>=>==#O   ",
">>>1>>1112>>11248tuuuuuuuuuuuutuuuuiiut7431>>>1>1>111>1>11=$O.  ",
"444444334444446qruppapiutttrrrrtttiiipur9643444444444444441*#O. ",
"wwwwweeerwwwwrttsdfhhfdpt887788rttupsdsaitwwwwewwrrrewtrtr73*@OO",
"fffddddddfdfddffkkxcxlkst7444467rriafkkkhfsfdddfdffffffhggpq1*$@",
"cccccccccccccccvbbbbbbldr61112367rpdlcbbncccccccccccccccvcji71==",
"mMmMmmmMmmmmmmmmbbbbbblsr421>>168takxbmMMmmmmmmnnbbbbnbnnbxdu742",
"MMMMMMMNNMNNNNmnbccxcxksr741>126tskxcmMMNMMNNNMnvcxxxxxxcxkgsutr",
"MMMNNmMNNNMNNNMvlkffhfdatw741147iklcnmmMMNNNBMmvlkdkdkfkghhhhghh",
"mmmmmmmmmmmmMMnxksipppiiurq7314wslbMmmmmmmmmMmnxksppipppipsgkxcc",
"mmmmmmmnnnnvnccldiuuuuuiiur7414wdcmMMmmmmmmnmvcksiuutuutuuidkcbb",
"MMmmNmnncxlllljfsitttutuiur7424wfvMBNNmmmmmnvxkfsiutttutuuidhlcc",
"mMMNMmmclhgfffsaiiututuuuur7424rfvMBMmmmMMnclhdaiuuttuttttipsfkh",
"mmmmmmnxjspppppiiuuuuuuuiur8424wdcmMNmmmMmnxhspiuuuutiiuituiippp",
"bbnnnbckfiuuippiiuuuuuuiiur7424qslvmmmmnnnckfptituuuititittitiuu",
"llllxlkfaiupssfsaiuuuuuuiur74148ikxbnmmnbxkfaittuuuitititiititiu",
"ffffffdapiishkkkaiitttiiuuu84227tskxbmnvzhfspuuutuuutitiittiiiii",
"pppppapiuuifkcxkdpuuuituuur74224qtakcbbxjsiiuuuuiuuuitittiittttt",
"tititittuuidkcckdpututittrw742247wtdkcclfputuuuuuiuutitiiittww88",
"tuutttituupdkklkdiitiittr875221246widklhsiuttututtutitttttt86422",
"itititituuisdhddaitiiitr864211>2346risfsaittuutututitttiuuw51*%#",
"titttitiuuuiiiiiiiittir86321>>>>1146wiipiiuiuuuutitttittiu03&@O.",
"trrrrrttrrrrrrwrrrrrrr8742>>>>>>>>147wtrtrttupppptpiptpiapw3%O  ",
"8787778777777777777877742>::>:>>=>>3477777qtpsfhkkkdkkkkjgi3%.  ",
"4444444444444444444444321==1:>>:>>>12444447wsjlxxxxxxllxcls6*X  ",
"2221222122212212222122211>=1>>>>>>>11121>34rfzvnnbbbnbnnmvjw;+  ",
"44444444444444444444444444431>>>>>>1>1>1237uhcmmnnbbvbnmmmlu<*+o",
"wwwwrwwwwwwwwwwwr8rrwwrrrr874,:>>>>===126wuflnmnvczlllcvmmvgy4;;",
"ddffddffddfdddffddddddddfdpr71::=>>===26wshzvmmvlkffghjzbmnjgayy",
"cccccccccvcccccccxcccccvvcksq3>>1>>>114rakcmmnnxhsppiasjvbMbvjvj",
"MmmmmmmmmmmMMmmmMMmmMmmmNmchi7421>>1136tfzvmnbckfpttuuigjcvnnnnm",
"NNMNNNNNNNNNNBNNBMBMBBMBBMnxfuq631246rtsflxxxlkfsittyyiajjvbmMBB",
"mBBmmBmBBBBBBBBBBBBBmBBBBBmvlkar6336taffkskkdddstpttttppsdkkvmBB",
"nnnBmmmBnnnmbmbmnnnmmmnmnmmmvclp844qakxlkstpstpspttttptitppkxbmm",
"Bnmnbbbbvbbbbbbbvvbbvbnvvvnnmmxdw44qslclkttpttttptptttpttppkkxbn",
"mmmbvxkkkllxxkkkllllllllllxvmmcfr438afkkfatttttittptpttttttdkkxx",
"Bmnvkkkkkksdkskkdkffksddfkklnmvkr436tsfdattttpttttpttiittttppkks",
"mmnlkstttpstpstpppptpspptapkxbcdr434qtippptttttptpttittiptpptppt",
"bvxlkttttpttpttptpttptpttttkkxlsr4248ttitttttpttttppttitttptpttt",
"lkkksstttttttttttttttttttttakkkp83247rtiptppttptptttpttitpttttpt",
"ksfsttttttttttttttttttttttpsskst63248rtptttptpttuuuuuuuuttttpppt",
"stpppttpptpttppttpptpttptptsttt852346rtttptttptpuuuuuuuutptttttt",
"tttpttpttttttptttttttptptttttr8731147rrrttptttttuuuuuuuuttttr8r8",
"tttttpttptppptptptptttttttttr8741111468wttptptppiuuuuutupttw5211",
"ttttpptttptttpptttttttttttt87421>>=12458tttpptttuuuuuuuuuuw4:%#@",
"ttpttttptttpttttptttpttptttw54111>>>1246rtttttttuuuuuuuiiu03=@o.",
"sstttsttttrrtttttstsptsspptt8544344444568rrrtrrrttiiippaapu5-$+O",
"kkkssttt8888888tpsskkkskdfksttr8rrrrwwww8768r8qrrtupafghhgay62;-",
"kxkkstt886542478pkllllllxxlkkkskggggggau87444477qtisfkllllkgaiyy",
"bvxkktt85411115tslbnnnbbbbbvvcxxcccvvcksw4111136qtifkcnnnbvczlll",
"bbclktt85111138tkcmmMmmnnnbbbbbvbbbnmnvhi741>125qishznMMmmmmnvvv",
"xxxkkkkt711158rklbmBBmmnvxxlxxxlxxcbmMnxguw41127rshxnmMNNMmnvvcz",
"kkkkllkt8324rpklvmBBBBmvlkkfdkkfffklbnMbxjaw6237ihlcmmMNNNmczjjh",
"tttsxcxtw447tlcbmmnmmmblkaasttpspashxnnMncka744qslnmmmmmmmnljspp",
"ttskkxlkw34rfxmmmbbbbblkspttttstipshlcbnnbla844wfcmMmnnvnbckfput",
"tttkkkkt844rdcBmbclllkkkpttttttsssfkkklcczjp844wfcMmvxllllkfaitt",
"tttpdfst634rfbmblkdksfdspuuttiisfklkkfffffst634rfvMblkfffffsiitt",
"tptpppt8423rdcbcksiipippiiitttifkccxfspaaaiw424rfcbxkdaipipiiuuu",
"tptttrr6414wdlclkiuttuuttuittipfkcckfpituur74248skxksiuuuuuuuuuu",
"ptrrr8642148pfkfsiuttttiuutittidkkkfspttttr74237rpsspitttuutuuuu",
"tttr8442>137tsdspittttttuuuutiipdddapittuur741227qwrtttutuuuuuuu",
"ptrr5411>126wtpiiuiuiuiiuuiuittiipppiutiuur842111457wtuuuuuuuuuu",
"ttr85211=1248ttiiuuuuuittititiittttitiiiuur852>::1248tuuuuuuiuuu",
"ptr852===>248tttuuuuuuutitititiitttittituur852>:::147tuiiuuuuuuu"
};
