/* XPM */
static char *result[] = {
/* columns rows colors chars-per-pixel */
"32 32 66 1 ",
"  c #3B622F",
". c #3E6232",
"X c #416336",
"o c #44653B",
"O c #476B3B",
"+ c #49693F",
"@ c #4C5E48",
"# c #535F53",
"$ c #5A5E5C",
"% c #476240",
"& c #4B6644",
"* c #4D6A45",
"= c #4E6748",
"- c #4F6849",
"; c #50634D",
": c #52694C",
"> c #536252",
", c #586657",
"< c #566B53",
"1 c #596C56",
"2 c #5E6C5D",
"3 c #5B7156",
"4 c #5E735A",
"5 c #5F5E63",
"6 c #605F66",
"7 c #5F6462",
"8 c #626167",
"9 c #626E63",
"0 c #66646B",
"q c #68676E",
"w c #666E68",
"e c #696A6E",
"r c #657463",
"t c #647860",
"y c #697B65",
"u c #677068",
"i c #6B716D",
"p c #6D7B6B",
"a c #707D6F",
"s c #6C6A72",
"d c #716F77",
"f c #716F78",
"g c #6E7272",
"h c #717376",
"j c #727C73",
"k c #76747D",
"l c #78767F",
"z c #76797A",
"x c #79797E",
"c c #758273",
"v c #7B837C",
"b c #797681",
"n c #7D7B83",
"m c #817E87",
"M c #827E88",
"N c #7E8381",
"B c #818384",
"V c #838985",
"C c #85838B",
"Z c #88858F",
"A c #8A8A8E",
"S c #898690",
"D c #8D8B93",
"F c #908F95",
"G c #929097",
"H c #94929A",
/* pixels */
"HHHHZbkkhbbhbbkkkhbkkkkkkkbZHHHH",
"HHGDClkkbbfbbfkkkbhbkkkkkkbCDHHH",
"HHDCnkkkbhbbbbbbkbbbbbbkkbbnMDHH",
"HFCkkkkkbfhffhfkfbffkfhkkfhklCFH",
"SCmldssssssssssssqqsqssssqqdknCZ",
"bbkhs8886560666760066066060dkkbx",
"222975800qq0qqq0q00qqq00qsfhkkkh",
"ooXo;50sfdddddhhffffshddlMZMlklk",
"oXoo@#8gkkkkkkkkkkkkkkkkxNVxxkll",
"2992-o<sbbbklllkkkbkkkbkh43rkbll",
"hkkh1o=ikbkkkkkkkkbkkkkbi:+1gsgh",
"sskh0=,sbkkkkklkkkkkkkbkhpt3::::",
"60sfs60dkkkkkkkkkkkkkkkknAVto ..",
"56qsq6qfkbkkklkkbkkkkkkknDGj<*-:",
"666666qfklkkkkklkkkkkkkknDGBhiii",
"##$5550fkkkkkkkkkkkkkkkbnDDNu9uu",
"Xo#555qfhbbbfbbbkkkkzhbbnFAc&X+%",
" o;0650dbbfhbbfhbkkkzlfszDAyO...",
"@#8sq60dbbfbhbbbkkkkkkw14NFv9,42",
"55sfs6qdbhbbhbhbkkkkll7+&cFClhhh",
"ssss06qfbbhbbbhfkbkkbb4X+cGSbbbb",
"ffs656qdfbkkhbbbkkkkbh7X&cGCbzbh",
"bfsq650fbffbbfbbkkkbs9<=3vGCbfbh",
"bbffq50fkbbhbhfhkkbh2&&2jAGCbbhb",
"hbbbq6qbnnnnnnnnnbhu1*1jCDGCbbhb",
"bbbhq6sMDDDDDDDDDNt-3cNAGHGCbhbb",
"dfbbs0dZGGFDDDFGHV3O4NDFGGFCbhdf",
"qsdhfshMSSNjyaNZCNy3:ccNCCMnbfsq",
"50sbkhkklbj1O-hbbbhg<O*ibbbbbs05",
"550sfbg77gg-.&ghbbbh<.%ubbfds055",
"5550shr&*ug>.&ebbbbh<.&ebbbs0555",
"5555sz9X.9g<.*ebbbbh<.&ehbfs5555"
};
