/* XPM */
static char *result[] = {
/* columns rows colors chars-per-pixel */
"32 32 255 2 ",
"   c #2F372F",
".  c #2F3F2B",
"X  c #2F392E",
"o  c #30372F",
"O  c #30392E",
"+  c #30382F",
"@  c #30392F",
"#  c #31392F",
"$  c #32392F",
"%  c #313A2F",
"&  c #323A2F",
"*  c #313D2D",
"=  c #303E2C",
"-  c #303F2C",
";  c #313133",
":  c #303232",
">  c #303332",
",  c #313332",
"<  c #303233",
"1  c #313233",
"2  c #313333",
"3  c #323233",
"4  c #333233",
"5  c #323333",
"6  c gray20",
"7  c #343333",
"8  c #363233",
"9  c #303730",
"0  c #313730",
"q  c #323730",
"w  c #303432",
"e  c #313432",
"r  c #313532",
"t  c #333432",
"y  c #323532",
"u  c #333532",
"i  c #333632",
"p  c #343731",
"a  c #333134",
"s  c #333234",
"d  c #343334",
"f  c #373234",
"g  c #3B3331",
"h  c #383533",
"j  c #3C3431",
"k  c #3F3533",
"l  c #3F3633",
"z  c #383234",
"x  c #393234",
"c  c #393335",
"v  c #3B3235",
"b  c #3B3335",
"n  c #3A3336",
"m  c #3B3336",
"M  c #3C3336",
"N  c #3D3336",
"B  c #383434",
"V  c #393435",
"C  c #3A3435",
"Z  c #3A3535",
"A  c #393635",
"S  c #3C3436",
"D  c #3D3436",
"F  c #3D3437",
"G  c #3E3437",
"H  c #313830",
"J  c #323830",
"K  c #323930",
"L  c #323B31",
"P  c #343831",
"I  c #343B31",
"U  c #353B31",
"Y  c #343B32",
"T  c #323C31",
"R  c #333C31",
"E  c #333F30",
"W  c #343C31",
"Q  c #343F30",
"!  c #343E31",
"~  c #393932",
"^  c #3F3C32",
"/  c #4F342D",
"(  c #50352E",
")  c #58352B",
"_  c #59352C",
"`  c #5A362C",
"'  c #5B362C",
"]  c #403633",
"[  c #423135",
"{  c #423136",
"}  c #443036",
"|  c #443136",
" . c #423736",
".. c #403C33",
"X. c #413836",
"o. c #423836",
"O. c #443A34",
"+. c #453936",
"@. c #453837",
"#. c #463A36",
"$. c #473A36",
"%. c #473A37",
"&. c #413F34",
"*. c #483937",
"=. c #483A37",
"-. c #493B37",
";. c #4D3E36",
":. c #453539",
">. c #45353A",
",. c #46353A",
"<. c #4A3238",
"1. c #4B3238",
"2. c #4B3239",
"3. c #4C3139",
"4. c #4A353B",
"5. c #4A373A",
"6. c #4A363B",
"7. c #483938",
"8. c #493A38",
"9. c #493B38",
"0. c #4A3B38",
"q. c #4A3B39",
"w. c #493C38",
"e. c #4A3C38",
"r. c #4B3C38",
"t. c #4B3F39",
"y. c #5B3B33",
"u. c #5B3C33",
"i. c #5C3C33",
"p. c #5D3C34",
"a. c #50353C",
"s. c #51343D",
"d. c #53363E",
"f. c #52373E",
"g. c #53373E",
"h. c #56363F",
"j. c #56373F",
"k. c #523F3A",
"l. c #573E3A",
"z. c #693E33",
"x. c #693F33",
"c. c #6A3F33",
"v. c #6A3F34",
"b. c #6B3F34",
"n. c #2D4F21",
"m. c #2D4D22",
"M. c #2D4E22",
"N. c #2D4E23",
"B. c #2D4825",
"V. c #2D4925",
"C. c #2E4925",
"Z. c #2D4A25",
"A. c #2E4A25",
"S. c #2E4B25",
"D. c #2E4826",
"F. c #2E4926",
"G. c #2E4F26",
"H. c #2F4F26",
"J. c #2D4229",
"K. c #2E4229",
"L. c #2E4329",
"P. c #2F4329",
"I. c #2F4428",
"U. c #2F4528",
"Y. c #2E4429",
"T. c #2F4429",
"R. c #304329",
"E. c #31432A",
"W. c #33442A",
"Q. c #30432D",
"!. c #37432C",
"~. c #31442D",
"^. c #37442C",
"/. c #344E2D",
"(. c #354E2D",
"). c #3A4D2B",
"_. c #3A4E2A",
"`. c #3B4D2E",
"'. c #394E2E",
"]. c #2D5021",
"[. c #2D5121",
"{. c #2D5022",
"}. c #2E5122",
"|. c #2F5223",
" X c #2F5323",
".X c #2F5423",
"XX c #2E5523",
"oX c #335A26",
"OX c #345D27",
"+X c #345E27",
"@X c #36502D",
"#X c #3F542D",
"$X c #3F542E",
"%X c #34582A",
"&X c #35592A",
"*X c #35582B",
"=X c #345C28",
"-X c #3F582D",
";X c #3C4F30",
":X c #376329",
">X c #376428",
",X c #40592E",
"<X c #41582F",
"1X c #424034",
"2X c #53423A",
"3X c #54413B",
"4X c #54423C",
"5X c #61423B",
"6X c #61433B",
"7X c #62453B",
"8X c #61423C",
"9X c #64433C",
"0X c #744539",
"qX c #764639",
"wX c #71493E",
"eX c #72493E",
"rX c #73493E",
"tX c #744A3F",
"yX c #5C3741",
"uX c #5C3841",
"iX c #754A40",
"pX c #764A40",
"aX c #7A4B41",
"sX c #794D42",
"dX c #7A4D42",
"fX c #7B4D42",
"gX c #7A4E42",
"hX c #7B4E42",
"jX c #7C4E43",
"kX c #7C4F43",
"lX c #7D4F43",
"zX c #865041",
"xX c #875142",
"cX c #885142",
"vX c #895142",
"bX c #8A5243",
"nX c #8C5343",
"mX c #8B5344",
"MX c #8B5345",
"NX c #8C5344",
"BX c #8F5445",
"VX c #905546",
"CX c #915647",
"ZX c #925747",
"AX c #935747",
"SX c #945848",
"DX c #955848",
"FX c #955948",
"GX c #955949",
"HX c #965848",
"JX c #965948",
"KX c #965949",
"LX c #975949",
"PX c #975A49",
"IX c None",
/* pixels */
"IXIXIXIXIXIXIXIXIXIXIXIXIXIXIXIXIXIXIXIXIXIXIXIXIXIXIXIXIXIXIXIX",
"IXIXIXIXIXIXIXIXIXIXIXIXIXIXIXIXIXIXIXIXIXIXIXIXIXIXIXIXIXIXIXIX",
"IXIXIXIXIXIXIXIXIXIXIXIXIXIX5 5 5 5 5 5 5 5 IXIXIXIXIXIXIXIXIXIX",
"IXIXIXIXIXIXIXIXIXIXIXIXIXIXx b S F F S b x IXIXIXIXIXIXIXIXIXIX",
"IXIXIXIXIXIXIXIXIXIX6 6 5 x | 2.a.g.g.a.2.| x 5 IXIXIXIXIXIXIXIX",
"IXIXIXIXIXIXIXIXIXIX4 6 6 z { 1.a.f.f.a.<.[ f 2 IXIXIXIXIXIXIXIX",
"IXIXIXIXIXIX6 6 4 4 4 4 6 7 f x m m m m x 8 4 2 5 6 4 4 6 6 IXIX",
"IXIXIXIXIXIX6 i R Q E R i B X.%.-.e.w.e.e.w.=.o.B i W W i 6 IXIX",
"IXIXIXIXIXIX4 I (.*X*X/.L  .5XiXgXkXkXkXkXgXiX8X .T (.(.W 4 IXIX",
"IXIXIXIXIXIX4 U `.-X,X;XY =.pXVXHXPXLXLXLXDXVXpX=.L /.@X! 4 IXIX",
"IXIXIXIXIXIX5 h O.;.2Xt.A 9.hXHXLXLXLXKXJXJXHXjX0.r L ! IXIXIXIX",
"IXIXIXIXIXIX5 x } 3.s.4.c #.eXvXcXzXzXbXCXZXNXeX$.1 ; 4 IXIXIXIX",
"IXIXIXIXIXIXIXIXx v N n d ] i.b.v.x.z.0XmXNXqXu.l 1 IXIXIXIXIXIX",
"IXIXIXIXIXIXIXIX5 5 5 5 5 j ( ' ` _ ) x.xXcXc./ g 5 IXIXIXIXIXIX",
"IXIXIXIXIXIXIXIX6 6 4 3 5 j ( ' ` _ ) x.xXcXc./ g 5 IXIXIXIXIXIX",
"IXIXIXIXIXIXIXIX6 u J H e ] p.b.v.x.z.0XmXNXqXy.k 2 IXIXIXIXIXIX",
"IXIXIXIXIXIXs s 4 J T.L.+ %.rXvXcXzXzXbXCXZXnXwX#.< IXIXIXIXIXIX",
"IXIXIXIXIXIX& J t & F.V.X q.jXHXKXKXGXFXSXJXPXlXe.: IXIXIXIXIXIX",
"IXIXIXIXa $ U.R.q $ F.V.X 7.pXVXSXGXGXDXSXJXLXkXe.: IXIXIXIXIXIX",
"IXIXIXIXK * U.U.* - A.Z.. ..6XaXMXAXDXJXJXJXDXsX9.: IXIXIXIXIXIX",
"IXIXs $ T.U.* * I.A.N.N.Z.W.^ l.aXBXSXLXLXDXBXtX%.: IXIXIXIXIXIX",
"IXIXs % F.F.$ K D.].{.}. XH.Q.&.7XiXfXlXlXdXiX9X+.< IXIXIXIXIXIX",
"IXIXs % F.F.K K D.].n.|.oX=X%X'.1X*.0.r.r.0.=.@.IXIXIXIXIXIXIXIX",
"IXIXs & D.A.- * T.A.m..X+X:X>X&X~.  > w o X O @ IXIXIXIXIXIXIXIX",
"IXIXs & D.M.S.T.* = Z.XX+X:X:XOXG.J.9 0 K.B.B.Y.# s IXIXIXIXIXIX",
"IXIXs & D.[.[.F.# p !.).$X<X<X#X_.^.P # F.[.[.F.& s IXIXIXIXIXIX",
"IXIXs & D.[.[.C.@ C 8.k.3X4X4X3Xk.9.Z % F.[.[.F.& s IXIXIXIXIXIX",
"IXIXs $ T.F.F.E.~ >.h.yXh.d.d.h.yXd.F H P.F.F.T.$ s IXIXIXIXIXIX",
"IXIXIXIX$ % % ~ 5.j.uXj.:.M M ,.j.g.G y H & & $ IXIXIXIXIXIXIXIX",
"IXIXIXIXs 3 3 F g.uXj.6.C , , D g.g.F 5 3 s s s IXIXIXIXIXIXIXIX",
"IXIXIXIXIXIX3 F g.j.:.V 7 5 , D g.g.F 5 IXIXIXIXIXIXIXIXIXIXIXIX",
"IXIXIXIXIXIX5 F g.g.D , 5 5 5 F g.g.F 5 IXIXIXIXIXIXIXIXIXIXIXIX"
};
