/* XPM */
static char *result[] = {
/* columns rows colors chars-per-pixel */
"32 32 52 1 ",
"  c #2F392F",
". c #30372F",
"X c #313A2E",
"o c #323333",
"O c #3C3435",
"+ c #333B31",
"@ c #3B3A33",
"# c #4F342D",
"$ c #50352E",
"% c #5A362C",
"& c #413434",
"* c #453936",
"= c #493B37",
"- c #453539",
"; c #4B353A",
": c #4A3B38",
"> c #5C3C33",
", c #53373E",
"< c #533D3B",
"1 c #6A3F33",
"2 c #2E4726",
"3 c #2E4A25",
"4 c #2F4429",
"5 c #304D25",
"6 c #32432B",
"7 c #39442D",
"8 c #354C2B",
"9 c #3A4D2B",
"0 c #2E5222",
"q c #335D26",
"w c #35522C",
"e c #3E542D",
"r c #35592A",
"t c #3F582D",
"y c #3C4F30",
"u c #356027",
"i c #376329",
"p c #40582F",
"a c #494234",
"s c #53423B",
"d c #63433C",
"f c #754639",
"g c #73493E",
"h c #5D3742",
"j c #5D3842",
"k c #754A40",
"l c #7C4E42",
"z c #865041",
"x c #8B5243",
"c c #915647",
"v c #965948",
"b c None",
/* pixels */
"bbbbbbbbbbbbbboooooooobbbbbbbbbb",
"bbbbbbbbbbbbbboooooooobbbbbbbbbb",
"bbbbbbbbbboooooooooooooobbbbbbbb",
"bbbbbbbbbboooO-:::::::OObbbbbbbb",
"bbbbbbooooooo*dgllllllkk-ooooobb",
"bbbbbboo+6++o=gcvvvvvvxk:o++oobb",
"bbbbbbo+8rr8X=gvvvvvvvvl:+8w+obb",
"bbbbbbo@ytty+=gzxxzxcvxk*+8y7obb",
"bbbbbboo*<<:O&>f111fxzf$O+++bbbb",
"bbbbbboO&;,;OO$%%%%dzzf#Oooobbbb",
"bbbbbbbbOOOOoO$%%%$1zzf#oobbbbbb",
"bbbbbbbbooooo&>111ffxxf>&obbbbbb",
"bbbbbbbbooooo=fxzzzzccxg*obbbbbb",
"bbbbbbbboo..o=lvcvvvvvvl:obbbbbb",
"bbbbbbooo.64.*gcvvvvvvvl:obbbbbb",
"bbbbbb++..52@=dlxcvvvvvl*obbbbbb",
"bbbboX44..28*j:sfcvvvvcg=obbbbbb",
"bbbbXX44X438a:@@dgglllgd*obbbbbb",
"bboX44 625308536*=s:==**bbbbbbbb",
"bboX226 223000056+o.. X bbbbbbbb",
"bbo+2024XX30qruqr8+o2234+obbbbbb",
"bboX2002XX50riiiuw+.2002Xobbbbbb",
"bbo+2002+X20iiiiq5XX2002+obbbbbb",
"bboX4226@@79yttr86+.6234oobbbbbb",
"bbbb++XOOjaass@:s:Ooo+X+bbbbbbbb",
"bbbboooOjjjjhhjjh,Oooooobbbbbbbb",
"bbbbbboOjjjjhjjjh,Oobbbbbbbbbbbb",
"bbbbbboO-jjjjjjjj,Oobbbbbbbbbbbb",
"bbbbbboO-jjj-oO-,,Oobbbbbbbbbbbb",
"bbbbbbo&jjjOOooO,,Oobbbbbbbbbbbb",
"bbbbbboO-j-ObboO;jOobbbbbbbbbbbb",
"bbbbbboOjjOobboojjOobbbbbbbbbbbb"
};
