/* XPM */
static char *result[] = {
/* columns rows colors chars-per-pixel */
"32 32 51 1 ",
"  c #2F392F",
". c #30372F",
"X c #313A2E",
"o c #323333",
"O c #3C3435",
"+ c #333B31",
"@ c #3B3A33",
"# c #4F342D",
"$ c #50352E",
"% c #5A362C",
"& c #413434",
"* c #453936",
"= c #493B37",
"- c #453539",
"; c #4B353A",
": c #4A3B38",
"> c #5C3C33",
", c #53373E",
"< c #533D3B",
"1 c #6A3F33",
"2 c #2E4726",
"3 c #2E4A25",
"4 c #2F4429",
"5 c #304D25",
"6 c #32432B",
"7 c #39442D",
"8 c #354C2C",
"9 c #3A4D2C",
"0 c #2E5222",
"q c #335D26",
"w c #35552B",
"e c #3E552D",
"r c #36592A",
"t c #3C4F30",
"y c #356027",
"u c #376329",
"i c #41582F",
"p c #494234",
"a c #54423B",
"s c #63433C",
"d c #754639",
"f c #73493E",
"g c #5C3741",
"h c #5E3842",
"j c #754A40",
"k c #7C4E42",
"l c #865041",
"z c #8B5243",
"x c #915647",
"c c #965948",
"v c None",
/* pixels */
"vvvvvvvvvvvvvvvvvvvvvvvvvvvvvvvv",
"vvvvvvvvvvvvvvvvvvvvvvvvvvvvvvvv",
"vvvvvvvvvvvvvvooooOooovvvvvvvvvv",
"vvvvvvvvvvvvvvoooooooovvvvvvvvvv",
"vvvvvvoooooooooooooooooovvoooovv",
"vvvvvvoo++OooO&=*::a:***vv++oOvv",
"vvvvvvo+88+oo*sfkkkkkkjs-788+ovv",
"vvvvvvo7wr8+o*fxccccccxj-+rw7ovv",
"vvvvvvo+rur8+=kcccccccck:7rr7ovv",
"vvvvvvo+9iit+=fzllllxczf- 88+ovv",
"vvvvvvoO*:a:@O>1111dzzd>O+++vvvv",
"vvvvvvoO&-g;OO$%%%%1zl1$Oooovvvv",
"vvvvvvvvOOOOoO#%%%%1zls$Oovvvvvv",
"vvvvvvvvooooo&11111dzzd>Oovvvvvv",
"vvvvvvvvooooo=fzlllzxxzj*ovvvvvv",
"vvvvvvvvoo...;fcccccccck:ovvvvvv",
"vvvvvvoooX46 -jxxcccccck:.vvvvvv",
"vvvvvvX.o.22+-jkzxccccck*ovvvvvv",
"vvvvo+44.X35=,:akzcccczj*ovvvvvv",
"vvvvXX22XX38p=+@sjkkkkjs*ovvvvvv",
"vvo+44X655358836**::::**vvvvvvvv",
"vvoX23XX253000056+oo    vvvvvvvv",
"vvo+2032X630rqyrr8+.4224+ovvvvvv",
"vvO.2003..30yuyuyw+ 2002+ovvvvvv",
"vvo+5033  40uuuuq5XX2003oovvvvvv",
"vvo.6232++7teert97+.4336+ovvvvvv",
"vvvv.+.@@ggpapap<=Ooo.+.vvvvvvvv",
"vvvvoooOggggggggg,Oooooovvvvvvvv",
"vvvvvvoOgggg-OO-,,Oovvvvvvvvvvvv",
"vvvvvvoOggg@OooO,,Oovvvvvvvvvvvv",
"vvvvvvoOg--OvvoOg;OOvvvvvvvvvvvv",
"vvvvvvo-ggOovvoO;gOovvvvvvvvvvvv"
};
