/* XPM */
static char *result[] = {
/* columns rows colors chars-per-pixel */
"32 32 254 2 ",
"   c #2F392E",
".  c #2F382F",
"X  c #30372F",
"o  c #303F2B",
"O  c #30392E",
"+  c #30382F",
"@  c #31382F",
"#  c #30392F",
"$  c #31392F",
"%  c #32392F",
"&  c #313A2F",
"*  c #323A2F",
"=  c #313C2D",
"-  c #313D2D",
";  c #303F2C",
":  c #313F2C",
">  c #323133",
",  c #303232",
"<  c #303332",
"1  c #313332",
"2  c #303233",
"3  c #313233",
"4  c #313333",
"5  c #323233",
"6  c #333233",
"7  c #323333",
"8  c gray20",
"9  c #303431",
"0  c #303730",
"q  c #323730",
"w  c #313432",
"e  c #313532",
"r  c #323432",
"t  c #333432",
"y  c #333532",
"u  c #323632",
"i  c #333632",
"p  c #333134",
"a  c #333234",
"s  c #353334",
"d  c #3B3331",
"f  c #383533",
"g  c #3C3431",
"h  c #3F3533",
"j  c #3F3633",
"k  c #393234",
"l  c #3B3235",
"z  c #3A3336",
"x  c #3C3336",
"c  c #3D3336",
"v  c #383534",
"b  c #3A3535",
"n  c #3A3735",
"m  c #3A3436",
"M  c #3D3436",
"N  c #3D3437",
"B  c #313830",
"V  c #323830",
"C  c #323930",
"Z  c #313B31",
"A  c #323A31",
"S  c #333A31",
"D  c #323B31",
"F  c #343831",
"G  c #373931",
"H  c #343B31",
"J  c #353B31",
"K  c #343B32",
"L  c #333D30",
"P  c #333C31",
"I  c #333F30",
"U  c #343C31",
"Y  c #343F30",
"T  c #343E31",
"R  c #383B31",
"E  c #393933",
"W  c #3A3933",
"Q  c #3E3C32",
"!  c #3C3934",
"~  c #4F342D",
"^  c #50352E",
"/  c #58352B",
"(  c #59352C",
")  c #5A362C",
"_  c #5B362C",
"`  c #403533",
"'  c #403633",
"]  c #443036",
"[  c #403C33",
"{  c #423836",
"}  c #443A34",
"|  c #453936",
" . c #453837",
".. c #473937",
"X. c #463A36",
"o. c #473A37",
"O. c #483937",
"+. c #483A37",
"@. c #493C37",
"#. c #4A3D37",
"$. c #4D3E36",
"%. c #453539",
"&. c #463539",
"*. c #4C3139",
"=. c #493739",
"-. c #4A373A",
";. c #4B353C",
":. c #4A3839",
">. c #493B38",
",. c #4A3B38",
"<. c #4A3C38",
"1. c #4B3C38",
"2. c #4C3F3A",
"3. c #5B3B33",
"4. c #5C3B33",
"5. c #5C3C33",
"6. c #5D3C33",
"7. c #51343D",
"8. c #50363D",
"9. c #52363E",
"0. c #53363E",
"q. c #53373E",
"w. c #56363F",
"e. c #56373F",
"r. c #523C3B",
"t. c #523F3A",
"y. c #573F3A",
"u. c #53383D",
"i. c #693E33",
"p. c #693F33",
"a. c #6A3F33",
"s. c #6A3F34",
"d. c #6B3F34",
"f. c #2E4726",
"g. c #2D4E22",
"h. c #2D4E23",
"j. c #2D4825",
"k. c #2E4925",
"l. c #2D4A25",
"z. c #2E4B24",
"x. c #2E4A25",
"c. c #2E4B25",
"v. c #2D4826",
"b. c #2E4826",
"n. c #2F4826",
"m. c #2E4926",
"M. c #2F4C27",
"N. c #2E4229",
"B. c #2E4329",
"V. c #2F4528",
"C. c #2E4429",
"Z. c #2F4429",
"A. c #304926",
"S. c #304E24",
"D. c #304F26",
"F. c #304329",
"G. c #32432A",
"H. c #33442A",
"J. c #32432D",
"K. c #37432C",
"L. c #3A442D",
"P. c #364929",
"I. c #364A28",
"U. c #364B28",
"Y. c #334E2D",
"T. c #344D2D",
"R. c #344E2D",
"E. c #354E2D",
"W. c #3A4D2A",
"Q. c #3B4D2B",
"!. c #3B4D2E",
"~. c #2D5121",
"^. c #2D5022",
"/. c #2E5323",
"(. c #2F5323",
"). c #2F5423",
"_. c #2E5523",
"`. c #2F5523",
"'. c #305924",
"]. c #325A25",
"[. c #345D27",
"{. c #345E27",
"}. c #345F27",
"|. c #34532A",
" X c #36502D",
".X c #3F542D",
"XX c #3F542E",
"oX c #35582A",
"OX c #35582B",
"+X c #355C28",
"@X c #3F582D",
"#X c #3C4F30",
"$X c #356027",
"%X c #366228",
"&X c #376229",
"*X c #376329",
"=X c #40592E",
"-X c #41582F",
";X c #494234",
":X c #53413B",
">X c #53423A",
",X c #54413B",
"<X c #54423C",
"1X c #61433B",
"2X c #60443A",
"3X c #64433C",
"4X c #64423D",
"5X c #64443C",
"6X c #744539",
"7X c #764639",
"8X c #71493E",
"9X c #72483E",
"0X c #72493E",
"qX c #73493E",
"wX c #744A3F",
"eX c #5C3741",
"rX c #5B3841",
"tX c #754A40",
"yX c #764A40",
"uX c #7A4C40",
"iX c #7A4C41",
"pX c #794D42",
"aX c #7A4D42",
"sX c #7B4D42",
"dX c #7B4E42",
"fX c #7B4E43",
"gX c #7C4E42",
"hX c #7C4E43",
"jX c #7C4F43",
"kX c #7D4F43",
"lX c #865041",
"zX c #875142",
"xX c #885142",
"cX c #895142",
"vX c #8A5243",
"bX c #8C5343",
"nX c #8B5344",
"mX c #8A5345",
"MX c #8C5344",
"NX c #8F5445",
"BX c #905546",
"VX c #915647",
"CX c #925747",
"ZX c #935747",
"AX c #945848",
"SX c #955848",
"DX c #955948",
"FX c #955949",
"GX c #965848",
"HX c #965948",
"JX c #965949",
"KX c #975949",
"LX c #975A49",
"PX c None",
/* pixels */
"PXPXPXPXPXPXPXPXPXPXPXPXPXPXPXPXPXPXPXPXPXPXPXPXPXPXPXPXPXPXPXPX",
"PXPXPXPXPXPXPXPXPXPXPXPXPXPXPXPXPXPXPXPXPXPXPXPXPXPXPXPXPXPXPXPX",
"PXPXPXPXPXPXPXPXPXPXPXPXPXPXPXPXPXPXPXPXPXPXPXPXPXPXPXPXPXPXPXPX",
"PXPXPXPXPXPXPXPXPXPXPXPXPXPXPXPXPXPXPXPXPXPXPXPXPXPXPXPXPXPXPXPX",
"PXPXPXPXPXPXPXPXPXPXPXPXPXPX8 8 8 8 8 8 8 8 PXPXPXPXPXPXPXPXPXPX",
"PXPXPXPXPXPXPXPXPXPXPXPXPXPX7 7 5 5 5 5 5 3 PXPXPXPXPXPXPXPXPXPX",
"PXPXPXPXPXPXPXPXPXPX8 8 8 7 3 3 3 3 3 3 3 3 3 2 PXPXPXPXPXPXPXPX",
"PXPXPXPXPXPXPXPXPXPX6 6 8 v { +.,.<.<.<.1.>.o.| PXPXPXPXPXPXPXPX",
"PXPXPXPXPXPX8 8 6 6 6 5 5 { 1XtXdXkXkXkXkXaXwX5X| 3 > 6 8 8 PXPX",
"PXPXPXPXPXPX8 i P Y I D e +.yXBXGXLXKXKXKXSXBXtX+.e P U i 8 PXPX",
"PXPXPXPXPXPX6 H E.OXOXY.Z ,.hXGXKXKXKXJXHXHXGXfX,.D R.E.U 6 PXPX",
"PXPXPXPXPXPX6 J !.@X=X#XK ..0XcXxXlXlXvXVXCXMX9X..D R. XT 6 PXPX",
"PXPXPXPXPXPX7 f } $.>X2.n j 5.d.s.p.i.6XnXMX7X4.` u P T PXPXPXPX",
"PXPXPXPXPXPX7 k ] *.7.;.m g ^ _ ) ( / p.zXxXa.~ d 7 5 6 PXPXPXPX",
"PXPXPXPXPXPXPXPXk l c z s g ^ _ ) ( / p.zXxXa.~ d 7 PXPXPXPXPXPX",
"PXPXPXPXPXPXPXPX7 7 7 5 7 ' 6.d.s.p.i.6XnXMX7X3.h 4 PXPXPXPXPXPX",
"PXPXPXPXPXPXPXPX8 8 6 3 3 o.qXcXxXlXlXvXVXCXbX8XX.2 PXPXPXPXPXPX",
"PXPXPXPXPXPXPXPX8 y V + 9 ,.gXGXJXJXFXDXAXHXLXkX<., PXPXPXPXPXPX",
"PXPXPXPXPXPXa a 6 V Z.B.. +.yXBXAXFXFXSXAXHXKXjX<., PXPXPXPXPXPX",
"PXPXPXPXPXPX* V t & k.A.R :.4XiXmXZXSXHXHXHXSXpX>., PXPXPXPXPXPX",
"PXPXPXPXp % V.F.q $ m.I.#.8.=.y.uXNXAXKXKXSXNXwXo., PXPXPXPXPXPX",
"PXPXPXPXC - V.V.- o l.U.;X@.G Q 2XtXsXkXkXaXtX3X| 2 PXPXPXPXPXPX",
"PXPXa % Z.V.- - V.z.h.S.U.P.n.H.[ O.,.1.1.,.+. .PXPXPXPXPXPXPXPX",
"PXPXa * m.c.: = V.c.h.^./.).`.D.J.A w < X   O # PXPXPXPXPXPXPXPX",
"PXPXa * b.g.x.Z.- ; k.(.].[.[.+XoXT.S 0 N.j.j.C.$ a PXPXPXPXPXPX",
"PXPXa * b.~.~.b.$ @ f.`.{.*X&X%X$X|.L $ b.~.~.m.* a PXPXPXPXPXPX",
"PXPXa * b.~.~.m.$ $ v._.{.*X*X}.'.M.* % m.~.~.m.* a PXPXPXPXPXPX",
"PXPXa % Z.m.m.G.W ! L.Q.XX-X-X.XW.K.F V F.m.m.Z.% a PXPXPXPXPXPX",
"PXPXPXPX% & & E -.u.r.t.:X<X<X,Xt.>.b r B * * % PXPXPXPXPXPXPXPX",
"PXPXPXPXa 5 5 N q.rXe.9.9.9.9.w.eX0.N 7 5 a a a PXPXPXPXPXPXPXPX",
"PXPXPXPXPXPX5 N q.e.&.M N M x %.e.q.N 7 PXPXPXPXPXPXPXPXPXPXPXPX",
"PXPXPXPXPXPX7 N q.q.M 1 1 1 1 M q.q.N 7 PXPXPXPXPXPXPXPXPXPXPXPX"
};
