/* XPM */
static char *result[] = {
/* columns rows colors chars-per-pixel */
"32 32 47 1 ",
"  c #2C2F32",
". c #2D2F32",
"X c #373633",
"o c #373634",
"O c #393734",
"+ c #4B4137",
"@ c #4C4237",
"# c #4D4337",
"$ c #4E4437",
"% c #4F4437",
"& c #574939",
"* c #63513B",
"= c #6A553C",
"- c #6D573C",
"; c #6D583C",
": c #6E583C",
"> c #6F583D",
", c #6F593D",
"< c #7C613F",
"1 c #8C6B42",
"2 c #8D6B42",
"3 c #967144",
"4 c #977244",
"5 c #987343",
"6 c #997343",
"7 c #997444",
"8 c #9A7444",
"9 c #9B7544",
"0 c #A67B46",
"q c #B68649",
"w c #B78649",
"e c #BA8849",
"r c #BB8949",
"t c #BD8A4A",
"y c #BF8C4B",
"u c #CC944D",
"i c #D2984D",
"p c #D4994D",
"a c #D59A4E",
"s c #D69B4E",
"d c #D79B4F",
"f c #DE9F4F",
"g c #DFA04F",
"h c #E0A14F",
"j c #E2A250",
"k c #E3A350",
"l c None",
/* pixels */
"llllllllllll ...... llllllllllll",
"llllllllllllooXXXXoollllllllllll",
"llllllllllll+@####@+llllllllllll",
"lllllllllll&*=:,,:=*&lllllllllll",
"lllllllllO#*<249942<*#Olllllllll",
"llllllll O$=10wyyw01=$O llllllll",
"llllllll O%-3qudduq3-%O llllllll",
"llllllll O%>8tskkst8>%O llllllll",
"llllllll O%:7tajjat7:%O llllllll",
"llllllll O%:6rphhpr6:%O llllllll",
"llllllll O$;5riggir5;$O llllllll",
"llllllll O$;5eiffie5;$O llllllll",
"llllllll O$;5eiffie5;$O llllllll",
"llllllll O$;5eiffie5;$O llllllll",
"llllllll O$;5eiffie5;$O llllllll",
"llllllll O$;5eiffie5;$O llllllll",
"llllllll O$;5eiffie5;$O llllllll",
"llllllll O$;5eiffie5;$O llllllll",
"llllllll O$;5eiffie5;$O llllllll",
"llllllll O$;5eiffie5;$O llllllll",
"llllllll O$;5eiffie5;$O llllllll",
"llllllll O$;5riggir5;$O llllllll",
"llllllll O%:6rphhpr6:%O llllllll",
"llllllll O%:7tajjat7:%O llllllll",
"llllllll O%>8tskkst8>%O llllllll",
"llllllll O%-3qudduq3-%O llllllll",
"llllllll O$=10wyyw01=$O llllllll",
"lllllllllO#*<249942<*#Olllllllll",
"lllllllllll&*=:,,:=*&lllllllllll",
"llllllllllll+@####@+llllllllllll",
"llllllllllllooXXXXoollllllllllll",
"llllllllllll ...... llllllllllll"
};
