/* XPM */
static char *result[] = {
/* columns rows colors chars-per-pixel */
"32 32 174 2 ",
"   c #2B2B2C",
".  c #2C2E32",
"X  c #353534",
"o  c #393734",
"O  c #373837",
"+  c #3B3934",
"@  c #373838",
"#  c #3A3A3A",
"$  c #463F36",
"%  c #4B4336",
"&  c #4E4A35",
"*  c #4E4438",
"=  c #524736",
"-  c #524C35",
";  c #524738",
":  c #5F4E3A",
">  c #595236",
",  c #54503A",
"<  c #604F3B",
"1  c #675F37",
"2  c #66543A",
"3  c #6B563D",
"4  c #6D583D",
"5  c #7A5E3E",
"6  c #6B6237",
"7  c #796C36",
"8  c #74643A",
"9  c #766839",
"0  c #796C39",
"q  c #756937",
"w  c #4B4B4C",
"e  c #484542",
"r  c #504E4B",
"t  c #54534C",
"y  c #545140",
"u  c #4D4E50",
"i  c #4F5051",
"p  c #535455",
"a  c #585957",
"s  c #59595B",
"d  c #6F5D48",
"f  c #796F42",
"g  c #736555",
"h  c #797150",
"j  c #666768",
"k  c #6B6B6C",
"l  c #67696C",
"z  c #766E65",
"x  c #79776F",
"c  c #787468",
"v  c #747474",
"b  c #787877",
"n  c #77787A",
"m  c #797A7B",
"M  c #80653E",
"N  c #8E6C3E",
"B  c #877939",
"V  c #8D7D39",
"C  c #99773F",
"Z  c #8D6C42",
"A  c #967145",
"S  c #997345",
"D  c #997842",
"F  c #997A57",
"G  c #A47D44",
"H  c #9E8B3A",
"J  c #9B873A",
"K  c #A68C3E",
"L  c #A7933A",
"P  c #AC963A",
"I  c #B59E3C",
"U  c #BBA23C",
"Y  c #CAAD3D",
"T  c #CDB03C",
"R  c #D4B53C",
"E  c #DCBF3E",
"W  c #E7BA3E",
"Q  c #E3C33F",
"!  c #ECC43D",
"~  c #ECCA3F",
"^  c #F1CB3E",
"/  c #A68046",
"(  c #B78E44",
")  c #B68748",
"_  c #BC8B49",
"`  c #AB9A4D",
"'  c #BD9047",
"]  c #BE9048",
"[  c #BC945F",
"{  c #A28A6D",
"}  c #AB9E64",
"|  c #C39648",
" . c #D09C4A",
".. c #CDA245",
"X. c #CFA942",
"o. c #D1A247",
"O. c #D5A14A",
"+. c #DAA34C",
"@. c #DFB246",
"#. c #D2B543",
"$. c #DDA654",
"%. c #DEA950",
"&. c #D1B855",
"*. c #E1AC45",
"=. c #E1AE4A",
"-. c #E4B546",
";. c #E9BD44",
":. c #E6B349",
">. c #E8B44A",
",. c #E7BB45",
"<. c #E5B658",
"1. c #DEAB63",
"2. c #D6AA61",
"3. c #C8A87B",
"4. c #D0BD72",
"5. c #E3B465",
"6. c #E7BD65",
"7. c #E4BB7A",
"8. c #EDC344",
"9. c #E9C248",
"0. c #F2C545",
"q. c #F1CB42",
"w. c #F8CE42",
"e. c #F2CE4C",
"r. c #F0C549",
"t. c #F6D042",
"y. c #EBC559",
"u. c #F4CF5C",
"i. c #F4D459",
"p. c #EDC961",
"a. c #F4D569",
"s. c #EAC974",
"d. c #F3CC73",
"f. c #F2D978",
"g. c #8C8B82",
"h. c #87888B",
"j. c #9D9C9C",
"k. c #A79989",
"l. c #A49F99",
"z. c #ABA482",
"x. c #A9A695",
"c. c #A9AAAB",
"v. c #B4B1A2",
"b. c #ACAEB2",
"n. c #BAB7B0",
"m. c #BBB9B5",
"M. c #CEBB9E",
"N. c #E4BC82",
"B. c #C8C19F",
"V. c #D6CA96",
"C. c #ECCC8E",
"Z. c #E7C38A",
"A. c #EBD88B",
"S. c #F4DB8C",
"D. c #F2D689",
"F. c #E6D19B",
"G. c #C8C2A0",
"H. c #C9C1B0",
"J. c #D2CBB4",
"K. c #D2CDB9",
"L. c #ECD3A3",
"P. c #E2D7A9",
"I. c #F2DFA1",
"U. c #E7D8B7",
"Y. c #EAD8B4",
"T. c #F5E4BB",
"R. c #F2E4B5",
"E. c #CDCBC7",
"W. c #D1CFC6",
"Q. c #D4D3D0",
"!. c #E9DFCB",
"~. c #E6E0CA",
"^. c #EDE6D4",
"/. c None",
/* pixels */
"/./././././././././././.        .   . X /./././././././././././.",
"/./././././././././././.# # O o O o X X /./././././././././././.",
"/./././././././././././.u i w r e * % % /./././././././././././.",
"/././././././././././.s l v v z g d 3 : = /././././././././././.",
"/././././././././.@ w l h.j.x.k.{ F Z d < $   /././././././././.",
"/./././././././.. e s n j.n.H.M.3.[ G N 4 = $ X /./././././././.",
"/./././././././.w p k g.v.K.Y.L.Z.2.| G M 2 = $ /./././././././.",
"/././././././.s l v { x.B.P.I.S.d.<.o.( C M 4 < ; /././././././.",
"/././././.# i l h.j.v.M.V.A.f.a.u.9.@. .) G Z M < * o /././././.",
"/./././.  # p v j.m.K.P.A.f.i.i.e.8.8.-. .| G Z 2 * o . /./././.",
"/./././.  # p m c.E.!.R.D.a.e.q.t.q.0.;.=. .G S 3 * o . /./././.",
"/./././.  # p m b.Q.^.T.D.p.9.! ~ ^ 0.0.>. .| S 4 ; o . /./././.",
"/./././.  # p m b.Q.^.T.C.6.>.W ! ^ q.8.>.+._ S 3 * O . /./././.",
"/./././.  # p m c.W.!.Y.Z.5.+.W ! 8.0.;.:.+._ S 4 = + . /./././.",
"/./././.  # t b x.J.U.P.N.1.$.*.8.8.q.;.:. ._ S 3 * o . /./././.",
"/./././.  # t h z.V.F.C.7.1.$.*.,.8.0.8.:. ._ S 3 * o . /./././.",
"/./././.. # , h } 4.s.s.5.$.+.@.,.8.q.;.>. ._ S 3 $ X   /./././.",
"/./././.. + , f ` &.y.y.<.%.+.%.;.! q.8.=.+._ S d $ $ . /./././.",
"/./././.. o - 0 P #.8.r.>.=.@.-.;.q.q.;.>.+.| A 5 $ $ . /./././.",
"/./././.. o - 7 P R ! q.8.>.-.,.8.q.0.;.>.$.G A 3 $ $   /./././.",
"/./././.. O - 7 P R ^ ^ q.8.8.8.q.q.q.8.>.+.| A 3 ; o . /./././.",
"/./././.. + - 7 L Y ! ^ t.q.q.q.q.q.8.;.=. .) Z 3 ; o . /./././.",
"/./././.. + - 6 J U R 8.~ ~ q.w.t.0.;.@.o.] G Z 3 * o . /./././.",
"/././././.+ & 6 B H U Y E ~ t.w.q.8.@...( G Z f < $ # /././././.",
"/././././././.> 1 7 V L Y Q q.w.0.>.o.( A Z 3 < ; /././././././.",
"/./././././././.& > 6 V U R Q 9.:.o.| G 8 3 ; $ /./././././././.",
"/./././././././.X + > 7 H U Y X. .( G A 3 ; + X /./././././././.",
"/././././././././.X % 6 B J K K K C N d < $ X /././././././././.",
"/././././././././././.> 6 8 9 8 4 4 2 < ; /././././././././././.",
"/./././././././././././.& & - = = * % % /./././././././././././.",
"/./././././././././././.X X o X o o X X /./././././././././././.",
"/./././././././././././.. . . . . . . . /./././././././././././."
};
