/* XPM */
static char *result[] = {
/* columns rows colors chars-per-pixel */
"32 32 179 2 ",
"   c #2B2B2C",
".  c #2C2E32",
"X  c #363534",
"o  c #383734",
"O  c #3D3936",
"+  c gray22",
"@  c #373838",
"#  c #463F36",
"$  c #4B4337",
"%  c #4D4935",
"&  c #4C4338",
"*  c #514B35",
"=  c #534739",
"-  c #524D3B",
";  c #5F4E3B",
":  c #595236",
">  c #614F3B",
",  c #675E37",
"<  c #6B563D",
"1  c #6E583D",
"2  c #66543B",
"3  c #725F3B",
"4  c #7A5F3F",
"5  c #6B6137",
"6  c #736737",
"7  c #796C36",
"8  c #776939",
"9  c #796C39",
"0  c #75653A",
"q  c #4B4C4D",
"w  c #414242",
"e  c #514E40",
"r  c #51504B",
"t  c #525047",
"y  c #4D4E50",
"u  c #515152",
"i  c #58595B",
"p  c #585857",
"a  c #7A6F43",
"s  c #7A7251",
"d  c #6B6B6C",
"f  c #66686A",
"g  c #797669",
"h  c #757575",
"j  c #797A7C",
"k  c #77787B",
"l  c #80663F",
"z  c #877839",
"x  c #8C7C39",
"c  c #8D6C42",
"v  c #967145",
"b  c #997344",
"n  c #997842",
"m  c #A47D45",
"M  c #A87F45",
"N  c #9D8A3A",
"B  c #A5883F",
"V  c #A88F3D",
"C  c #A7923A",
"Z  c #AB953A",
"A  c #AB9537",
"S  c #B49D3B",
"D  c #BBA33C",
"F  c #CAAD3D",
"G  c #CDB13D",
"H  c #D3B53D",
"J  c #D9BB3E",
"K  c #E2AF3F",
"L  c #E4B33E",
"P  c #E4C33E",
"I  c #EBC63D",
"U  c #ECC93E",
"Y  c #F4CD3F",
"T  c #A18041",
"R  c #B78E45",
"E  c #BA8F46",
"W  c #B78748",
"Q  c #BC8B49",
"!  c #AC9A4E",
"~  c #BF9247",
"^  c #BE9048",
"/  c #AC9F66",
"(  c #C69B45",
")  c #D49E4A",
"_  c #CCA444",
"`  c #CFAE40",
"'  c #D1A247",
"]  c #DEAA44",
"[  c #D6A24A",
"{  c #DAA34C",
"}  c #DFAB4E",
"|  c #D3B642",
" . c #DEB245",
".. c #DDA857",
"X. c #D2B956",
"o. c #E2AE41",
"O. c #E1AE4A",
"+. c #E4B445",
"@. c #E7BA42",
"#. c #EABD44",
"$. c #E5B24A",
"%. c #E8B449",
"&. c #E8BA49",
"*. c #E5B552",
"=. c #E8BC51",
"-. c #DEAC65",
";. c #D0BD72",
":. c #E3B665",
">. c #E3B675",
",. c #EDC344",
"<. c #EDCB44",
"1. c #ECC24D",
"2. c #EFCF49",
"3. c #E5C641",
"4. c #F0C442",
"5. c #F2CB43",
"6. c #F0C549",
"7. c #F1CC4D",
"8. c #EFD04A",
"9. c #F5D244",
"0. c #F5D34B",
"q. c #FBD849",
"w. c #EFC856",
"e. c #EBC45B",
"r. c #ECC758",
"t. c #F6D654",
"y. c #F7D952",
"u. c #FCDC53",
"i. c #F4D25A",
"p. c #F9DB5B",
"a. c #F7D95D",
"s. c #F1C958",
"d. c #D4C074",
"f. c #EDC761",
"g. c #F0CE61",
"h. c #F3D164",
"j. c #F9DC64",
"k. c #FADD6B",
"l. c #F5D668",
"z. c #EAC974",
"x. c #EED376",
"c. c #FBDF73",
"v. c #F3D576",
"b. c #FDE06B",
"n. c #FEE062",
"m. c #FCE173",
"M. c #FDE47D",
"N. c #898987",
"B. c #9D9D9C",
"V. c #AAA488",
"C. c #A9A799",
"Z. c #AAAAAB",
"A. c #B4B1A2",
"S. c #BBB9AF",
"D. c #ADAEB2",
"F. c #BBB9B5",
"G. c #E4BC82",
"H. c #C8C19E",
"J. c #D3C698",
"K. c #DCD095",
"L. c #EAC98C",
"P. c #EAD88B",
"I. c #F4DB8A",
"U. c #EAD79C",
"Y. c #FDE580",
"T. c #CBC4A7",
"R. c #D2CCB5",
"E. c #E6D6A8",
"W. c #E7DAB4",
"Q. c #EFDAB5",
"!. c #F2E0A0",
"~. c #F4E4B9",
"^. c #CDCBC7",
"/. c #D1CFC6",
"(. c #D4D3D0",
"). c #E9DFCB",
"_. c #E6E0CA",
"`. c #EDE6D4",
"'. c None",
/* pixels */
"'.'.'.'.'.'.'.'.        . . . . . . . . .   . . '.'.'.'.'.'.'.'.",
"'.'.'.'.'.'.'.'.+ + o o o o O o o o o X o o o o '.'.'.'.'.'.'.'.",
"'.'.'.'.'.'.'.'.y u r r e - % * * % % % & & & $ '.'.'.'.'.'.'.'.",
"'.'.'.'.'.'.'.i d h h g s a 9 7 7 7 7 8 3 1 < > = '.'.'.'.'.'.'.",
"'.'.'.'.'.X q f N.B.C.V./ ! Z A A Z V B T n c 4 ; # X '.'.'.'.'.",
"'.'.'.'.X w i h B.S.T.J.d.X.| G H H G _ ( E T c < = O X '.'.'.'.",
"'.'.'.'.q p d N.A.R.W.E.x.e.,.I I I I #.+.[ ~ m l 2 = # '.'.'.'.",
"'.'.'.p f h N.V.H.E.!.Y.v.s.6.4.Y Y 5.5.#.%.' R n l 1 > = '.'.'.",
"  + q d N.B.A.H.K.P.v.x.f.*.&.#.U Y Y Y 5.,.+.' E m c 4 > # o . ",
"  + u h B.F.R.E.P.x.g.r.*.$.O.%.,.5.9.9.5.,.#.O.' Q m c 2 $ o . ",
"  + u k Z.^.).~.I.h.1.&.$.] $.*.1.7.0.0.9.9.5.#.O.) W v < & o . ",
"  @ u j D.(.`.~.I.f.&.L o. .$.=.w.i.y.y.0.9.5.#.%.{ Q b 1 & o . ",
"  + u j D.(.`.~.L.:.$.o.+.@.&.s.h.j.k.p.t.0.5.#.%.) ( b 1 # o . ",
"  + u j Z./.).Q.L.:.} o.@.#.2.i.l.c.m.k.p.0.5.#.%.) W v 1 = O . ",
"  + r g C.R.W.E.G.-.{ ] @.,.0.a.m.M.M.m.p.0.5.#.O.) Q v 1 & X . ",
"  + t g V.J.U.L.>...{ ] @.,.0.p.m.M.Y.m.p.t.6.&.%.) Q b 1 & o . ",
"  + - s / ;.z.z.:...{ ] @.<.0.a.m.M.Y.m.p.t.5.#.%.) M v 1 = + . ",
". + - a ! X.r.r.*.} } O.@.<.y.a.m.M.M.m.p.0.6.#.%.) ( v 1 # # . ",
". o * 9 Z | ,.1.$.O.} $.1.7.i.a.m.m.m.k.p.7.5.#.%.) ( b 1 # X . ",
". o * 7 A H I Y #.%.$.=.w.i.j.k.k.k.k.p.y.0.5.#.%.) W b 1 # X . ",
". o * 7 Z H U Y 5.,.1.s.h.k.k.k.j.j.t.u.0.9.5.,.} { ( v 1 = # . ",
". o * 7 C G I Y 5.<.7.i.l.m.m.k.p.t.0.q.9.5.,.#.} ) M v 1 # X . ",
". o * 6 N D H P I 5.0.p.b.m.m.n.p.0.9.Y Y 5.@. .) ( M c < # X . ",
". X % 5 z N S G J <.9.u.n.b.n.n.u.0.9.Y 5.#. ._ W m c l > # X . ",
"'.'.'.: , 7 x C F P 8.u.u.u.p.u.q.9.9.5.#.+.' W b l 1 > = '.'.'.",
"'.'.'.'.$ : 5 x D H 3.9.0.8.2.2.5.<.,.@.+.) ( m l < = # '.'.'.'.",
"'.'.'.'.X O : 9 N D G | H J | | H H F _ ( E M c < # # X '.'.'.'.",
"'.'.'.'.'.X $ 5 z N Z A Z Z A A Z Z V B m n c l > # X '.'.'.'.'.",
"'.'.'.'.'.'.'.: 5 6 7 7 7 7 7 7 9 9 8 0 3 3 2 > = '.'.'.'.'.'.'.",
"'.'.'.'.'.'.'.'.% % % * * * * % * * * % $ = # # '.'.'.'.'.'.'.'.",
"'.'.'.'.'.'.'.'.X o o o o o o X o o o X o X X O '.'.'.'.'.'.'.'.",
"'.'.'.'.'.'.'.'.. . . . . . . . . . . . . . . . '.'.'.'.'.'.'.'."
};
