/* XPM */
static char *result[] = {
/* columns rows colors chars-per-pixel */
"32 32 164 2 ",
"   c #2B2B2C",
".  c #2B2D33",
"X  c #353534",
"o  c #383734",
"O  c #383837",
"+  c #373738",
"@  c #373838",
"#  c gray22",
"$  c #423F34",
"%  c #4B4635",
"&  c #4D4935",
"*  c #514C35",
"=  c #524D3B",
"-  c #595236",
";  c #675E37",
":  c #6B6137",
">  c #736737",
",  c #796C36",
"<  c #796C38",
"1  c #4B4C4D",
"2  c #414242",
"3  c #514E40",
"4  c #525047",
"5  c #51504B",
"6  c #4D4E50",
"7  c #515152",
"8  c #585857",
"9  c #58595B",
"0  c #7A6F43",
"q  c #7A7251",
"w  c #666768",
"e  c #6B6B6C",
"r  c #66686C",
"t  c #797563",
"y  c #77766F",
"u  c #79786F",
"i  c #757575",
"p  c #77787B",
"a  c #797A7C",
"s  c #877839",
"d  c #8C7C39",
"f  c #9D8A3A",
"g  c #A7923A",
"h  c #AB953A",
"j  c #AB9637",
"k  c #B49C3B",
"l  c #BBA23C",
"z  c #C8AD3C",
"x  c #CDB13D",
"c  c #D3B53D",
"v  c #D5B83F",
"b  c #DCBD3D",
"n  c #E5B43E",
"m  c #E4C23E",
"M  c #EBC93E",
"N  c #ECC63D",
"B  c #F2CD3E",
"V  c #F4D13B",
"C  c #AC9A4E",
"Z  c #AC9F66",
"A  c #DFAB47",
"S  c #DDA54C",
"D  c #DFAB4B",
"F  c #D3B641",
"G  c #DCA652",
"H  c #DEA950",
"J  c #D2B956",
"K  c #E1AD44",
"L  c #E1AD4A",
"P  c #E5B443",
"I  c #E8B647",
"U  c #E7BA44",
"Y  c #EABC44",
"T  c #E5B44B",
"R  c #E8B74A",
"E  c #E8BB49",
"W  c #E7B850",
"Q  c #E8BB52",
"!  c #E4B354",
"~  c #DEAA63",
"^  c #D0BD72",
"/  c #E3B365",
"(  c #E6BC65",
")  c #E3B675",
"_  c #E5C640",
"`  c #ECC442",
"'  c #E7C841",
"]  c #EDCA42",
"[  c #ECC24D",
"{  c #EFCF4E",
"}  c #F2CC42",
"|  c #F1CE4B",
" . c #F0C547",
".. c #F4D244",
"X. c #F5D44B",
"o. c #FEDC4B",
"O. c #EFC856",
"+. c #ECC45B",
"@. c #ECC758",
"#. c #F0C859",
"$. c #F7D753",
"%. c #FCDB53",
"&. c #F4D259",
"*. c #F7D85D",
"=. c #FBDC5D",
"-. c #D4C074",
";. c #EDC761",
":. c #F0CE61",
">. c #F3D163",
",. c #FADC64",
"<. c #FADE6B",
"1. c #F3D16E",
"2. c #ECC771",
"3. c #E7CA76",
"4. c #EED475",
"5. c #FBDF72",
"6. c #F3D576",
"7. c #FEE060",
"8. c #FFE26A",
"9. c #FDE273",
"0. c #FEE57D",
"q. c #8C8A82",
"w. c #868789",
"e. c #86888D",
"r. c #9D9D9C",
"t. c #ACA585",
"y. c #A7A38F",
"u. c #A7A497",
"i. c #ABA99A",
"p. c #A7A8AC",
"a. c #ACACAA",
"s. c #B4B1A2",
"d. c #BBB9AF",
"f. c #ADAEB2",
"g. c #BBB9B5",
"h. c #E4BC82",
"j. c #C8C19E",
"k. c #D3C798",
"l. c #DCD095",
"z. c #ECCC8D",
"x. c #E7C38A",
"c. c #EAD88B",
"v. c #F2D788",
"b. c #F8DF8D",
"n. c #F2DB88",
"m. c #EAD79C",
"M. c #FFE680",
"N. c #C8C1A0",
"B. c #CDC7AE",
"V. c #D2CCB3",
"C. c #D2CDB9",
"Z. c #E2D7A6",
"A. c #E8D5A9",
"S. c #E7DAB4",
"D. c #EFDAB5",
"F. c #F2E1A0",
"G. c #F4E4B9",
"H. c #CDCBC7",
"J. c #D1CFC6",
"K. c #D4D3D0",
"L. c #E9DFCB",
"P. c #E6E0CA",
"I. c #EDE6D4",
"U. c None",
/* pixels */
"U.U.U.U.U.U.U.U.      . .   . . . . . . . . . . U.U.U.U.U.U.U.U.",
"U.U.U.U.U.U.U.U.# # # o o o o O o o o o o O o o U.U.U.U.U.U.U.U.",
"U.U.U.U.U.U.U.U.6 7 5 4 3 = * * * * * * * * & & U.U.U.U.U.U.U.U.",
"U.U.U.U.U.U.U.9 r i y t q 0 < < , , , , < < > ; - U.U.U.U.U.U.U.",
"U.U.U.U.U.X 1 r e.r.u.t.Z C h j k j j h h h f s ; % X U.U.U.U.U.",
"U.U.U.U.X 2 9 i r.d.B.k.^ J F x c c c v F F l f < - $ X U.U.U.U.",
"U.U.U.U.1 8 e q.s.V.S.F.6.+.[ N n Y ` ` ` M c k d : - % U.U.U.U.",
"U.U.U.8 w i q.y.j.Z.F.b.6.#.E Y ` ` ` } } } m z g d < ; - U.U.U.",
"  # 1 e w.r.s.j.l.c.6.1.;.W L L L L R Y } } M b z k f s : & o . ",
"  O 7 i r.g.C.A.c.4.:.@.W L L S S D L R ` } ] ] _ c l f > & o . ",
"  # 7 p p.H.L.G.n.>.[ E P L S S S S D T [ | X.X...' F g < * o . ",
"  + 7 a f.K.I.G.v.;.E n K K A L K L T Q O.&.%.%.o...F g , * o . ",
"  # 7 a f.K.I.G.z.( T K n U Y Y Y Y Q O.:.,.<.=.%...F h < * o . ",
"  # 7 a a.J.L.D.x./ D K U Y ` ` ` ] | &.<.5.9.8.=.X.F g , * o . ",
"  o 5 u i.V.S.A.h.~ G A U ` B V B } X.*.9.0.0.9.=.X.F g , * o . ",
". o 5 t t.k.m.x.) ~ G A n M B V V ..X.,.9.M.0.9.,.{ c j , * o . ",
". o 3 q Z ^ 3.2./ G S D U ` B V V ..X.=.9.0.M.9.=.{ F g , * o . ",
". o = 0 C J +.+.! H S D Y ] } ..V ..$.=.9.0.0.9.=.{ F j , * o . ",
". o * < h F `  .R L L W [ | X.X.X.$.$.,.<.9.9.8.=.{ v g , * o . ",
". o * < j c N } ` R T Q @.&.*.*.=.>.,.,.<.9.7.7.%.| v j , * o . ",
". o * , j c B V ` ` [ #.>.<.5.5.9.9.5.<.,.*.*.%.o...v h , * o . ",
". o * , g z m B } } | &.,.5.0.0.0.0.9.8.>.$.X.....M x g , * o . ",
". o * > f l c m M } X.%.8.9.0.M.0.0.9.8.=.X...M m c l f > & o . ",
". o * ; s f k z b ] X.%.7.8.9.9.9.9.8.7.%...M b z k f s : & o . ",
"U.U.U.- ; < d g x m ..o.%.=.7.7.=.=.=.%.o...m z g d < : - U.U.U.",
"U.U.U.U.% - > d k v ' ..{ | { { X.{ X.| } ' c k d : - % U.U.U.U.",
"U.U.U.U.. $ - < f l x v v F F F F F F F v x l f , * % X U.U.U.U.",
"U.U.U.U.U.X % ; s f g h j j g j g g h j j g f s : % . U.U.U.U.U.",
"U.U.U.U.U.U.U.- : > , , , , , , , , , , < < > : - U.U.U.U.U.U.U.",
"U.U.U.U.U.U.U.U.& * & * * * * * * * * * * * & & U.U.U.U.U.U.U.U.",
"U.U.U.U.U.U.U.U.o o o O o o o o o o o o o o o o U.U.U.U.U.U.U.U.",
"U.U.U.U.U.U.U.U.. . . . .   . . . . . . . . . . U.U.U.U.U.U.U.U."
};
