/* XPM */
static char *result[] = {
/* columns rows colors chars-per-pixel */
"32 32 192 2 ",
"   c #2B2C2E",
".  c #2C2E32",
"X  c #363534",
"o  c #383734",
"O  c #3F3A35",
"+  c #453F35",
"@  c #4B4336",
"#  c #4D4935",
"$  c #4C4439",
"%  c #514C35",
"&  c #534739",
"*  c #5F4E3A",
"=  c #554937",
"-  c #595236",
";  c #614F3A",
":  c #604E35",
">  c #675E37",
",  c #66543D",
"<  c #6C563B",
"1  c #6E593D",
"2  c #7A5E3D",
"3  c #725F3B",
"4  c #6B6137",
"5  c #736737",
"6  c #786C36",
"7  c #786C38",
"8  c #76673A",
"9  c #4F4A45",
"0  c #514E46",
"q  c #51504A",
"w  c #6E5C45",
"e  c #796F43",
"r  c #726453",
"t  c #797252",
"y  c #746C64",
"u  c #78746A",
"i  c #80663F",
"p  c #8B693E",
"a  c #956F3F",
"s  c #877839",
"d  c #8C7C39",
"f  c #8D6C42",
"g  c #806748",
"h  c #967143",
"j  c #997242",
"k  c #997842",
"l  c #997A56",
"z  c #A47D45",
"x  c #A87F48",
"c  c #A37F53",
"v  c #9D8A3A",
"b  c #A78C3E",
"n  c #A7923A",
"m  c #AB9539",
"M  c #AC983F",
"N  c #B49C3B",
"B  c #BBA23C",
"V  c #C8AD3C",
"C  c #CDB13D",
"Z  c #D3B63D",
"A  c #D5B83F",
"S  c #DCBD3D",
"D  c #E3B23F",
"F  c #E3C23E",
"G  c #ECC63E",
"H  c #ECC93F",
"J  c #F1CB3F",
"K  c #A48148",
"L  c #BA8F46",
"P  c #BC8B4B",
"I  c #B78A49",
"U  c #AB9B4F",
"Y  c #BF9148",
"T  c #A38157",
"R  c #BE8D50",
"E  c #A0876A",
"W  c #AB9F67",
"Q  c #BD9563",
"!  c #B8966D",
"~  c #D09C4A",
"^  c #C69B45",
"/  c #CDA743",
"(  c #D1A247",
")  c #DEAA44",
"_  c #D6A24A",
"`  c #DAA44D",
"'  c #DFAB4E",
"]  c #D3B641",
"[  c #DEB245",
"{  c #D6A253",
"}  c #DCA654",
"|  c #D8A65F",
" . c #D1B957",
".. c #E2AE41",
"X. c #E0AD4A",
"o. c #E4B445",
"O. c #E7BA42",
"+. c #E9BC44",
"@. c #E4B34B",
"#. c #E9B448",
"$. c #E8B949",
"%. c #E4B453",
"&. c #E8BC51",
"*. c #D4A569",
"=. c #D9A86C",
"-. c #D9A864",
";. c #DFB266",
":. c #C6A77F",
">. c #D3AD7B",
",. c #D8BA75",
"<. c #E3B463",
"1. c #E4BA65",
"2. c #E6BA74",
"3. c #E6C640",
"4. c #ECC343",
"5. c #EDCA43",
"6. c #EBC24C",
"7. c #EFCF4C",
"8. c #E7C841",
"9. c #F1C444",
"0. c #F2CC42",
"q. c #F1CD4B",
"w. c #F1C649",
"e. c #F5D244",
"r. c #F5D34B",
"t. c #FDDB4B",
"y. c #F9D748",
"u. c #EFC956",
"i. c #EBC25A",
"p. c #EDCA5B",
"a. c #ECC355",
"s. c #F0C859",
"d. c #F6D554",
"f. c #FCDB53",
"g. c #F4D25A",
"h. c #FBDC5B",
"j. c #F7D95D",
"k. c #EDCA64",
"l. c #F0CF68",
"z. c #FBDD63",
"x. c #FADE6B",
"c. c #F5D664",
"v. c #EBCC74",
"b. c #EBC974",
"n. c #EFD077",
"m. c #F2D472",
"M. c #F7DC78",
"N. c #FFE169",
"B. c #FEE060",
"V. c #FDE273",
"C. c #FEE57D",
"Z. c #A59688",
"A. c #A9A397",
"S. c #ABA586",
"D. c #D0AC80",
"F. c #CDB08C",
"G. c #E4BC83",
"H. c #E1BB8C",
"J. c #CBB9A0",
"K. c #D2C79A",
"L. c #E5C18B",
"P. c #E7C98D",
"I. c #ECCE8F",
"U. c #EDD388",
"Y. c #F4DD8C",
"T. c #E3C291",
"R. c #E9C292",
"E. c #EED79D",
"W. c #EBDA9C",
"Q. c #F0D39E",
"!. c #FFE680",
"~. c #F6E09B",
"^. c #DEC4A3",
"/. c #D1C9AF",
"(. c #CFC4B1",
"). c #EBD2A7",
"_. c #E9D3AB",
"`. c #F4DEA9",
"'. c #EAD5B6",
"]. c #EDDBBA",
"[. c #EADAB7",
"{. c #F5E4AD",
"}. c #F6E3A1",
"|. c #EFE0BF",
" X c #F1E4B7",
".X c #EED9C0",
"XX c #EEE2CD",
"oX c #F1E7CD",
"OX c #EFE6D5",
"+X c #F0E6D7",
"@X c #F1E9D4",
"#X c None",
/* pixels */
"#X#X#X#X#X#X#X#X. . .       . . . . . .   . . . #X#X#X#X#X#X#X#X",
"#X#X#X#X#X#X#X#XX X o o o o o X X X o X o o o o #X#X#X#X#X#X#X#X",
"#X#X#X#X#X#X#X#X@ @ $ & q q q q 0 = % % % % # # #X#X#X#X#X#X#X#X",
"#X#X#X#X#X#X#X& : , w r y u u u t e 7 6 6 6 5 4 - #X#X#X#X#X#X#X",
"#X#X#X#X#XX + = 2 p l E Z.A.A.S.W U M m m n v s > # X #X#X#X#X#X",
"#X#X#X#XX O = < f T Q :.J././.K.,. .] Z Z C B v 6 - O X #X#X#X#X",
"#X#X#X#X+ & , g c Q >.H._.[.[.W.n.p.8.H J G Z N d 4 - @ #X#X#X#X",
"#X#X#X& ; 1 g l ! >.T.E.`.{.}.Y.m.p.6.J J J F V n d 7 > - #X#X#X",
". o + ; i h c ! F.^._.).~.!.n.m.1.&.$.+.0.J H S V N v s 4 # o . ",
". o @ < p x Q D.^..X.X`.~.m.l.a.&.@.@.o.4.5.5.H 3.Z B v 5 # o . ",
"  o @ < a c =.H.'.XX+X XU.l.6.O...X.@.@.6.q.r.y.e.H C n 7 % o . ",
"  o @ < h ~ =.H..X+X@X|.U.k.$.D ..o.@.&.u.g.j.f.t.7.Z m 7 % o . ",
". o = < j ^ =.H..X+X+X].P.<.@.D o.+.&.u.l.z.z.B.f.e.A m 7 % o . ",
"  o + < a ^ =.H.'.XXXX'.L.<.} ..D 4.q.d.x.V.V.N.h.7.] m 6 # o . ",
". o @ 1 a ~ *.G.Q.].'.).G.-.` ..D 4.q.j.V.C.C.V.B.7.] n 6 % o . ",
". o + 1 a x *.2.I.`.Q.I.2.| ` ) +.4.d.h.V.C.!.V.B.7.] m 6 % o . ",
"  X + w h I { 1.b.n.n.b.;.} } ) D 0.r.j.V.!.!.V.z.r.] m 6 % X . ",
". + + w h ^ { %.i.p.p.&.%.' ` X.4.q.d.h.V.C.C.V.h.7.] n 6 % o . ",
". + + i h ^ ~ #.+.w.5.6.@.) X.@.6.7.d.z.V.V.V.N.h.q.] m 6 % o . ",
". . + w j x ` #.9.0.J 4.O.@.@.&.u.p.z.z.x.x.x.h.f.r.A m 6 % X . ",
". . + w h P ` #.+.J J J H 4.6.s.l.x.x.x.x.z.h.f.t.e.] m 6 % o . ",
". + + < h I ~ X.+.J J J J 0.q.g.x.x.V.x.j.d.r.e.e.8.C n 6 % X . ",
"  + + w f z L ( [ +.9.J J e.r.j.x.N.V.N.h.r.e.H F Z B v 5 % o . ",
"  + + ; 2 f z L ( [ 4.0.J e.y.f.z.x.N.z.f.e.8.S V N v s 4 # X . ",
"#X#X#X& ; w g a L ( o.4.0.0.y.t.f.h.f.f.t.e.3.V n d 6 > - #X#X#X",
"#X#X#X#X+ & , p z Y _ o.+.4.5.5.5.7.r.r.5.3.Z N d 4 - # #X#X#X#X",
"#X#X#X#XX O = < f z L ^ / C Z Z ] ] ] A ] C B v 6 - @ X #X#X#X#X",
"#X#X#X#X#XX + * 2 f k z K n n m m m m m m n v s > @ . #X#X#X#X#X",
"#X#X#X#X#X#X#X& ; , 1 3 8 7 6 6 6 6 6 6 7 7 5 4 - #X#X#X#X#X#X#X",
"#X#X#X#X#X#X#X#X+ @ & # # % # # % % % % % % % # #X#X#X#X#X#X#X#X",
"#X#X#X#X#X#X#X#Xo o o X X o o o o o o o X o o X #X#X#X#X#X#X#X#X",
"#X#X#X#X#X#X#X#X. . . . . . . . . . . . . . . . #X#X#X#X#X#X#X#X"
};
