/* XPM */
static char *result[] = {
/* columns rows colors chars-per-pixel */
"32 32 186 2 ",
"   c #2B2C2C",
".  c #33312B",
"X  c #2B2E32",
"o  c #363534",
"O  c #393734",
"+  c #3B3934",
"@  c #373838",
"#  c #33343A",
"$  c #463F35",
"%  c #4B452F",
"&  c #4C4336",
"*  c #4E4A35",
"=  c #4E4439",
"-  c #42403B",
";  c #524636",
":  c #534D35",
">  c #524739",
",  c #5F4E3A",
"<  c #5E4C35",
"1  c #595235",
"2  c #59533B",
"3  c #604F3A",
"4  c #604E35",
"5  c #675E35",
"6  c #66543D",
"7  c #6C563B",
"8  c #6E593D",
"9  c #695F35",
"0  c #7A5E3D",
"q  c #6B6237",
"w  c #726737",
"e  c #796D37",
"r  c #74643A",
"t  c #776A3A",
"y  c #796C38",
"u  c #776A37",
"i  c #4E4841",
"p  c #504D4B",
"a  c #4D4E51",
"s  c #595853",
"d  c #6F5C45",
"f  c #6E6951",
"g  c #736453",
"h  c #595B61",
"j  c #676A6F",
"k  c #766D64",
"l  c #76726F",
"z  c #6A6B70",
"x  c #757574",
"c  c #80663F",
"v  c #8B683E",
"b  c #946F3F",
"n  c #877939",
"m  c #8D7D39",
"M  c #867637",
"N  c #8D6C42",
"B  c #806748",
"V  c #967142",
"C  c #997342",
"Z  c #997842",
"A  c #997B56",
"S  c #A47D45",
"D  c #A77E4B",
"F  c #A37F53",
"G  c #9D8A3B",
"H  c #9B873A",
"J  c #A68C3E",
"K  c #A7923B",
"L  c #AC973B",
"P  c #B59E3C",
"I  c #BBA23C",
"U  c #CAAD3D",
"Y  c #CDB13E",
"T  c #D3B53E",
"R  c #DCBF3E",
"E  c #ECBD3E",
"W  c #E4C43F",
"Q  c #EDCA3F",
"!  c #ECC63F",
"~  c #F1C93F",
"^  c #F5CB3C",
"/  c #8C804D",
"(  c #A68147",
")  c #B78F45",
"_  c #BC8B4B",
"`  c #B6884C",
"'  c #BA9547",
"]  c #A38156",
"[  c #BE8D50",
"{  c #8C876F",
"}  c #A2896A",
"|  c #A79B65",
" . c #BD9663",
".. c #B8966D",
"X. c #C59846",
"o. c #D09C4A",
"O. c #CEA644",
"+. c #D1A247",
"@. c #D7A34A",
"#. c #DAA34B",
"$. c #DEA84C",
"%. c #DFB245",
"&. c #D2B642",
"*. c #D6A253",
"=. c #DDA654",
"-. c #DEA950",
";. c #D9A65F",
":. c #C8B355",
">. c #E2AE4A",
",. c #E3AD47",
"<. c #E5B546",
"1. c #EBBE45",
"2. c #E5B34A",
"3. c #E8B448",
"4. c #E7B846",
"5. c #E4B255",
"6. c #C09763",
"7. c #D4A569",
"8. c #D9A86C",
"9. c #DAA964",
"0. c #D4AE7C",
"q. c #DFB475",
"w. c #E2B464",
"e. c #E5BC65",
"r. c #E6BA74",
"t. c #E6C041",
"y. c #ECC243",
"u. c #EDC943",
"i. c #ECC149",
"p. c #E2C448",
"a. c #F1C444",
"s. c #F2CC41",
"d. c #F8CE43",
"f. c #F1CA4B",
"g. c #F6D042",
"h. c #EBC359",
"j. c #EFCB5B",
"k. c #EACC50",
"l. c #F0D25E",
"z. c #DCC767",
"x. c #ECC761",
"c. c #F0D165",
"v. c #EBC873",
"b. c #EDD379",
"n. c #F3D873",
"m. c #87898F",
"M. c #9D9D9B",
"N. c #A59E98",
"B. c #A79887",
"V. c #B4AF97",
"C. c #BAB7AF",
"Z. c #C9A980",
"A. c #D0AC80",
"S. c #CBB689",
"D. c #E4BC83",
"F. c #E1BB8C",
"G. c #CFBBA0",
"H. c #E5C18B",
"J. c #E7C98D",
"K. c #ECCE8F",
"L. c #ECD188",
"P. c #F3DC8C",
"I. c #E5C391",
"U. c #E9C292",
"Y. c #EED79D",
"T. c #E2D49D",
"R. c #F2D49F",
"E. c #F7E19B",
"W. c #DEC4A4",
"Q. c #CAC0B1",
"!. c #D2CBB0",
"~. c #EBD2A7",
"^. c #EBD4AB",
"/. c #F4DDA8",
"(. c #EAD5B6",
"). c #EDDBBB",
"_. c #E6D7B9",
"`. c #F4E1AC",
"'. c #EFE1BC",
"]. c #F1E4B5",
"[. c #EED9C0",
"{. c #EEE2CD",
"}. c #F0E7CD",
"|. c #EFE6D6",
" X c #F0E8D6",
".X c None",
/* pixels */
".X.X.X.X.X.X.X.X.X.X.X.XX X X X         .X.X.X.X.X.X.X.X.X.X.X.X",
".X.X.X.X.X.X.X.X.X.X.X.Xo O o o @ @ @ o .X.X.X.X.X.X.X.X.X.X.X.X",
".X.X.X.X.X.X.X.X.X.X.X.X& & = i p p a a .X.X.X.X.X.X.X.X.X.X.X.X",
".X.X.X.X.X.X.X.X.X.X.X; < 7 d g k l x z h .X.X.X.X.X.X.X.X.X.X.X",
".X.X.X.X.X.X.X.X.Xo $ < 0 N A } B.N.M.m.j a # .X.X.X.X.X.X.X.X.X",
".X.X.X.X.X.X.X.X. $ > 7 N D  .A.G.Q.C.M.x s - . .X.X.X.X.X.X.X.X",
".X.X.X.X.X.X.X.X$ > d B F 6.0.U.^._.!.V.{ f 1 % .X.X.X.X.X.X.X.X",
".X.X.X.X.X.X.X; 3 8 d A ..0.F./.`.`.T.S.| / y q 1 .X.X.X.X.X.X.X",
".X.X.X.X.XO & 4 0 N F ..S.W.^./.E.P.b.z.:.' G M 9 : O .X.X.X.X.X",
".X.X.X.XX O ; 6 v D 6.A.W._.[.`.E.n.l.k.p.&.I H w : O X .X.X.X.X",
".X.X.X.XX O ; 7 V ` 7.F.(.{.}.].P.l.f.g.s.W T K u : O X .X.X.X.X",
".X.X.X.X  O ; 7 V [ 8.U.[. X}.'.L.x.u.^ ^ Q T L u : O X .X.X.X.X",
".X.X.X.XX O $ 7 V X.8.F.[. X}.).J.e.%.W ^ ! T L y : O X .X.X.X.X",
".X.X.X.XX O ; 7 V ` 8.F.).{.{.(.H.w.>.4.a.y.T L y : O X .X.X.X.X",
".X.X.X.XX O * 7 V ` 7.D.R.'.).~.D.9.-.,.y.t.T L y : + X .X.X.X.X",
".X.X.X.XX O * 7 V [ ;.r.K.~.R.J.r.9.$.,.y.t.T L y : O X .X.X.X.X",
".X.X.X.XX O > 7 V _ *.e.v.b.v.v.w.=.-.,.1.1.T L u : O X .X.X.X.X",
".X.X.X.XX O $ 7 V _ *.5.h.j.j.h.-.-.$.>.a.t.T L e : O X .X.X.X.X",
".X.X.X.XX $ > 8 C _ #.3.1.f.u.i.2.>.>.3.u.t.T L y : + X .X.X.X.X",
".X.X.X.XX O $ 7 V X.o.3.a.a.~ ! 4.4.3.1.d.u.T L y : + X .X.X.X.X",
".X.X.X.XX O > d V X.o.3.y.~ ~ Q y.y.u.a.g.u.T L y : O X .X.X.X.X",
".X.X.X.XX O > 7 V D o.,.4.u.~ d.s.u.s.u.s.! Y K y : @ X .X.X.X.X",
".X.X.X.XX O $ 6 N D X.o.%.4.a.d.g.g.u.Q W Y I G w : O X .X.X.X.X",
".X.X.X.X.X$ $ 3 0 N S _ O.%.y.d.g.g.Q R U P G n q : O .X.X.X.X.X",
".X.X.X.X.X.X.X> 3 8 B b ) +.4.a.g.g.R U G H t 5 1 .X.X.X.X.X.X.X",
".X.X.X.X.X.X.X.X$ > 6 c S X.+.4.t.W T P n w : & .X.X.X.X.X.X.X.X",
".X.X.X.X.X.X.X.Xo + > 8 N S ' X.O.O.I G e 1 $ o .X.X.X.X.X.X.X.X",
".X.X.X.X.X.X.X.X.Xo $ , 0 N C ( J K H n q * o .X.X.X.X.X.X.X.X.X",
".X.X.X.X.X.X.X.X.X.X.X> , 6 8 0 r w w q 1 .X.X.X.X.X.X.X.X.X.X.X",
".X.X.X.X.X.X.X.X.X.X.X.X& & & * : * * * .X.X.X.X.X.X.X.X.X.X.X.X",
".X.X.X.X.X.X.X.X.X.X.X.Xo o o O O o O @ .X.X.X.X.X.X.X.X.X.X.X.X",
".X.X.X.X.X.X.X.X.X.X.X.XX X X X X X X X .X.X.X.X.X.X.X.X.X.X.X.X"
};
