/* XPM */
static char *result[] = {
/* columns rows colors chars-per-pixel */
"32 34 163 2 ",
"   c #272726",
".  c #262E2D",
"X  c #2C2D2D",
"o  c #302F2F",
"O  c #372F30",
"+  c #2E3232",
"@  c #343434",
"#  c #3B3434",
"$  c #3D3C3D",
"%  c #443435",
"&  c #473738",
"*  c #4B3739",
"=  c #4C3A3C",
"-  c #403B3B",
";  c #5C3437",
":  c #523638",
">  c #5B3639",
",  c #523A3D",
"<  c #59383A",
"1  c #64363A",
"2  c #68373B",
"3  c #683B3E",
"4  c #753A3E",
"5  c #4F3F41",
"6  c #513F41",
"7  c #7D3C41",
"8  c #743D41",
"9  c #424244",
"0  c #4C4244",
"q  c #444349",
"w  c #48474A",
"e  c #474A4D",
"r  c #494A4E",
"t  c #534346",
"y  c #554649",
"u  c #55494B",
"i  c #4D4E51",
"p  c #545357",
"a  c #56545A",
"s  c #58565B",
"d  c #5A595E",
"f  c #64484D",
"g  c #764145",
"h  c #7F4045",
"j  c #7D474B",
"k  c #634B51",
"l  c #675154",
"z  c #695256",
"x  c #72595D",
"c  c #5D5D61",
"v  c #59566A",
"b  c #625F72",
"n  c #626065",
"m  c #65646A",
"M  c #6E626B",
"N  c #7E6065",
"B  c #6D6A73",
"V  c #716D74",
"C  c #737177",
"Z  c #76747B",
"A  c #833C41",
"S  c #8F3F45",
"D  c #834046",
"F  c #824348",
"G  c #8C444A",
"H  c #8D494F",
"J  c #964047",
"K  c #9B4047",
"L  c #97464D",
"P  c #9D424A",
"I  c #9E4950",
"U  c #895056",
"Y  c #84565C",
"T  c #915057",
"R  c #9A5259",
"E  c #A2424A",
"W  c #AD444D",
"Q  c #A94A52",
"!  c #B34A53",
"~  c #BD4D56",
"^  c #B64F58",
"/  c #BC4F58",
"(  c #BD525B",
")  c #845C62",
"_  c #955C63",
"`  c #A65B63",
"'  c #BE5760",
"]  c #BC5963",
"[  c #8C6066",
"{  c #8C6369",
"}  c #906269",
"|  c #98656C",
" . c #8F6A71",
".. c #956E75",
"X. c #9C6E75",
"o. c #9E737A",
"O. c #AA646C",
"+. c #BE616B",
"@. c #BF6973",
"#. c #A7767E",
"$. c #C1525B",
"%. c #C05760",
"&. c #C25A63",
"*. c #C25F69",
"=. c #C4636C",
"-. c #C56771",
";. c #C66973",
":. c #CB6B75",
">. c #C76E78",
",. c #CC6F79",
"<. c #CA727C",
"1. c #6F6B83",
"2. c #7A7783",
"3. c #7A7985",
"4. c #79768C",
"5. c #807E87",
"6. c #817E8B",
"7. c #807C93",
"8. c #A87780",
"9. c #CC7781",
"0. c #C77A84",
"q. c #CC7B85",
"w. c #D27883",
"e. c #84838D",
"r. c #858293",
"t. c #8A8992",
"y. c #89859A",
"u. c #898593",
"i. c #928F9D",
"p. c #96939F",
"a. c #BD808A",
"s. c #918EA1",
"d. c #9794A1",
"f. c #9996A2",
"g. c #9C99A4",
"h. c #9995A8",
"j. c #9D99AC",
"k. c #A29EAE",
"l. c #A49FB1",
"z. c #A5A1AF",
"x. c #A5A0B1",
"c. c #AAA6B5",
"v. c #ACA9B6",
"b. c #AEAABA",
"n. c #B2AEBD",
"m. c #B5B1BF",
"M. c #C3828C",
"N. c #CC828D",
"B. c #D0858F",
"V. c #C78B95",
"C. c #CD8994",
"Z. c #D08691",
"A. c #D28B96",
"S. c #D58E99",
"D. c #D795A0",
"F. c #D897A2",
"G. c #DD9AA5",
"H. c #B7B2C1",
"J. c #BAB6C4",
"K. c #BDB8C6",
"L. c #BEBAC8",
"P. c #C0BCCA",
"I. c None",
/* pixels */
"I.I.I.I.I.I.I.I.I.I.I.X + X + + + + + + @ I.I.I.I.I.I.I.I.I.I.I.",
"I.I.I.I.I.I.I.I.I.I.I.0 0 0 0 0 = & & % & I.I.I.I.I.I.I.I.I.I.I.",
"I.I.I.I.I.I.I.I.X . $ z  .....} U F 7 4 ; o . . I.I.I.I.I.I.I.I.",
"I.I.I.I.I.I.I.# # @ 0 { M.S.C.0.+.! W J 8 = $ - - I.I.I.I.I.I.I.",
"I.I.I.I.I.I.% ; 2 8 j O.<.w.9.,.*.$.! ! R ) N N x u I.I.I.I.I.I.",
"I.I.I.I.I.# < A P Q ^ ^ ( &.%.$.( $.( ( @.M.V.V.#.l # I.I.I.I.I.",
"I.I.I.I.u z Y ` ] $.$.( ( / / / / ( ~ &.<.S.G.G.a.Y < % I.I.I.I.",
"I.I.I.$ x 8.M.N.9.=.( ~ / ( / ( ( ( ~ $.,.A.F.D.q.` A ; # I.I.I.",
"I.I.% , _ V.G.F.C.-.( / $.( ( ( ( ( / ( ;.q.B.B.9.] E 4 : % I.I.",
"+ % 1 D O.C.G.F.C.=.( / / ( / ( ( ( ( ( &.=.=.=.+.( ~ S A 1 % @ ",
"+ & 4 E +.N.S.A.q.=.( ( ( ( ( ( ( / ( ( ( ( ( ( ( ( / ! E 8 & + ",
"+ & D ! &.;.>.>.-.&.( / ( / ( ( / / / / / / / / ( ( ( ~ ! 7 & + ",
"+ & F ! $.%.( $.( ( ( ( ( / ( ( ( ( %.' $.( ( / / / $.$.! F & + ",
"+ & A ! ~ ( / / ( $.$.( $.$.$.*.:.<.<.,.-.$.$.$.$.$.~ $.! D & + ",
"+ & 4 E ! / ( / ( ( ( ( ( / / ] 9.A.S.N.>.' / / / ( / ! E 8 & + ",
"@ # > 4 K ! ~ $.^ I G G G G G T | o.o.X._ H G G L Q ! S A > # + ",
"@ @ # : 7 E ! / Q g : * * * = , t y y t 0 , * = 3 S E 7 : # @ @ ",
"@ @ + @ ; A S L H f r r i i i i i r i i i i r e y g 7 > @ + @ @ ",
"I.I.+ @ % : > < f M 2.e.t.t.t.t.t.t.t.t.t.t.e.3.V k : % @ + I.I.",
"I.I.O @ @ @ @ $ s 3.k.n.m.J.H.H.H.H.H.m.H.H.m.c.u.a # X @ @ I.I.",
"I.I.I.I.+ @ 9 c 3.h.n.K.P.P.L.L.K.L.K.K.L.L.K.J.d.d @ X I.I.I.I.",
"I.I.I.I.X @ p e.l.b.H.H.H.H.J.J.J.J.J.J.J.J.J.H.p.c @ X I.I.I.I.",
"I.I.I.I.I.@ s p.n.K.m.k.s.j.n.K.J.J.J.J.J.J.b.h.2.i @ I.I.I.I.I.",
"I.I.I.I.I.@ c f.J.L.b.y.1.7.v.J.J.J.J.H.K.H.j.4.v q @ I.I.I.I.I.",
"I.I.I.I.I.@ n g.P.P.n.s.4.y.l.n.n.n.n.n.n.n.j.7.b q + I.I.I.I.I.",
"I.I.I.I.I.@ c g.J.P.H.c.k.k.l.l.l.l.l.l.z.x.x.x.r.a @ I.I.I.I.I.",
"I.I.I.I.I.@ c g.L.J.J.J.J.n.c.l.l.l.l.l.l.l.n.m.k.V i 9 I.I.I.I.",
"I.I.I.I.I.@ c g.J.L.J.L.L.J.H.H.n.m.H.n.H.n.m.K.n.g.e.n $ I.I.I.",
"I.I.I.I.I.@ n g.J.J.H.n.v.v.c.c.v.v.c.c.v.v.b.m.J.J.z.B $ X I.I.",
"I.I.I.I.I.@ n g.L.J.c.t.Z B C C V Z C C B C t.v.L.L.k.B $ X I.I.",
"I.I.I.I.I.@ c f.m.c.i.B q $ $ $ $ $ - - $ 9 m g.n.v.i.m $ X I.I.",
"I.I.I.I.I.@ a Z 5.2.B p @   X X X X X X   X a Z 5.2.B a $ I.I.I.",
"I.I.I.I.I.I.I.w w q q 9 I.I.I.I.I.I.I.I.I.I.I.w w w 9 9 I.I.I.I.",
"I.I.I.I.I.I.I.@ X o o I.I.I.I.I.I.I.I.I.I.I.I.X X o o I.I.I.I.I."
};
