/* XPM */
static char *result[] = {
/* columns rows colors chars-per-pixel */
"32 32 105 2 ",
"   c #2E2E2E",
".  c #2D302F",
"X  c #30302F",
"o  c #2E3231",
"O  c #303232",
"+  c #353738",
"@  c #473234",
"#  c #4A3536",
"$  c #4F3738",
"%  c #503637",
"&  c #513739",
"*  c #523A3C",
"=  c #64383C",
"-  c #693B3E",
";  c #73373C",
":  c #75393D",
">  c #403F45",
",  c #553E40",
"<  c #6D3E42",
"1  c #7A3F44",
"2  c #434446",
"3  c #4A494D",
"4  c #564446",
"5  c #54474A",
"6  c #59474B",
"7  c #56484B",
"8  c #5B4A4D",
"9  c #4D4D51",
"0  c #504F52",
"q  c #4E5054",
"w  c #515154",
"e  c #6C474B",
"r  c #6E4B50",
"t  c #724C50",
"y  c #5C5A6C",
"u  c #606068",
"i  c #6C6B72",
"p  c #746E79",
"a  c #8D3E44",
"s  c #933F46",
"d  c #87494F",
"f  c #964047",
"g  c #984147",
"h  c #97454C",
"j  c #99474D",
"k  c #99484E",
"l  c #9B5057",
"z  c #9E555C",
"x  c #B3464E",
"c  c #A44B52",
"v  c #AD4850",
"b  c #B44750",
"n  c #B24C54",
"m  c #BB4E57",
"M  c #B64F58",
"N  c #BD4F58",
"B  c #A55057",
"V  c #B7525C",
"C  c #BD515A",
"Z  c #B55760",
"A  c #BB5C65",
"S  c #936C72",
"D  c #A76E76",
"F  c #AB6F77",
"G  c #B3727A",
"H  c #C0525C",
"J  c #C35D66",
"K  c #C55E68",
"L  c #C4626B",
"P  c #C8737D",
"I  c #7B788E",
"U  c #7E7A91",
"Y  c #817D93",
"T  c #AD7C84",
"R  c #B57C85",
"E  c #CA7680",
"W  c #CE7882",
"Q  c #C47E88",
"!  c #84818B",
"~  c #8A8794",
"^  c #918D9C",
"/  c #96939E",
"(  c #98959F",
")  c #9796A0",
"_  c #9996A0",
"`  c #A19EAB",
"'  c #A39FB0",
"]  c #A4A1AD",
"[  c #A6A1B2",
"{  c #A9A5B5",
"}  c #ACA7B8",
"|  c #AFAABB",
" . c #B2AEBD",
".. c #B4B0BE",
"X. c #CF848E",
"o. c #D1848E",
"O. c #D48691",
"+. c #D797A2",
"@. c #DA97A2",
"#. c #B3AEC0",
"$. c #B5B1C0",
"%. c #BAB6C4",
"&. c #BCB8C6",
"*. c #BEB9C8",
"=. c None",
/* pixels */
"=.=.=.=.=.=.=.=.=.=.=.=.o o o . O O O O =.=.=.=.=.=.=.=.=.=.=.=.",
"=.=.=.=.=.=.=.=.=.=.=.=.7 8 8 6 * * $ # =.=.=.=.=.=.=.=.=.=.=.=.",
"=.=.=.=.=.=.=.=.o o o 7 S T T F z h f ; @ o . . =.=.=.=.=.=.=.=.",
"=.=.=.=.=.=.=.=.# # $ t G O.O.W J m v h e 7 7 4 =.=.=.=.=.=.=.=.",
"=.=.=.=.=.=.. @ ; a h c A L L J H C m V F T T S 5 . =.=.=.=.=.=.",
"=.=.=.=.=.=.5 r l V C C C C m C C C N L o.@.@.T r @ =.=.=.=.=.=.",
"=.=.=.=.. 5 S R Q P J C C C C C C C C L o.@.@.X.l ; @ o =.=.=.=.",
"=.=.=.=.@ r R @.@.X.L m C C C C C C C J E X.X.P V s = # =.=.=.=.",
"=.=.O # ; l Q +.+.X.L m C C C C C C C H J L L J C v f ; # o =.=.",
"=.=.o $ a V P O.X.E J C N C C C C C C C m N m C C m b a $ o =.=.",
"=.=.o * h C J L L J V C N C N N C m H N C C N N C C C h * o =.=.",
"=.=.o * j m N C N C C H H H N J K L L K V C H C C C C h * o =.=.",
"=.=.O $ f v m C C C C H H H C K W O.O.W J H H C C m x d $ o =.=.",
"=.=.O # ; s v m C M c j j j h z D T T D z j j c n v s : # O =.=.",
"=.=.=.=.# * g b H c < % % * % , 4 7 7 4 * * % - g f - # =.=.=.=.",
"=.=.=.=.o # : s h d 8 9 9 w w w w w q q w q 9 6 1 : # o =.=.=.=.",
"=.=.=.=.=.=.$ % $ 8 p ~ / ) ) / / / / ) ) ^ ~ p 6 @ =.=.=.=.=.=.",
"=.=.=.=.=.=.o + 2 u ^ | %.*.*.&.&.&.&.&.&.%.#.~ 9   =.=.=.=.=.=.",
"=.=.=.=.=.=.. 2 i ^ { $.&.&.*.%.%.%.&.&.&.&.%.) w   =.=.=.=.=.=.",
"=.=.=.=.=.=.X 9 ~ | %...[ [ #.%.%.%.%.%.%.$.{ ! 9 X =.=.=.=.=.=.",
"=.=.=.=.=.=.X w / %.%.[ U U [ %.%.%.%.%.%.{ Y y > O =.=.=.=.=.=.",
"=.=.=.=.=.=.  w / *.*.[ U U ' $... . . .$.' U y > O =.=.=.=.=.=.",
"=.=.=.=.=.=.  9 / &.&...[ _ [ [ ] [ [ [ [ [ ' ! 9 X =.=.=.=.=.=.",
"=.=.=.=.=.=.3 i ` &.&.&.&.%.} [ [ [ [ [ [ | %._ 0   =.=.=.=.=.=.",
"=.=.=.=.  0 ! ` ..%.&.*.*.&.%...$.$.......%.&.( 0   =.=.=.=.=.=.",
"=.=.=.=.X w / &.*.| _ ) / / ( ( ( ( ( ( ( ` ..` i 3 =.=.=.=.=.=.",
"=.=.=.=.X 0 ~  .&.] i 0 w w w w w w w w w i ` ..] ! 0 X =.=.=.=.",
"=.=.=.=.X 3 p ~ / ! 7   . X X X X O       w _ *.*./ w X =.=.=.=.",
"=.=.=.=.=.=.3 9 0 0 =.=.=.=.=.=.=.=.=.=.  0 _ &.#.~ 9 X =.=.=.=.",
"=.=.=.=.=.=.X O X X =.=.=.=.=.=.=.=.=.=.X w ! / ~ p 3 X =.=.=.=.",
"=.=.=.=.=.=.=.=.=.=.=.=.=.=.=.=.=.=.=.=.=.=.0 0 9 3 =.=.=.=.=.=.",
"=.=.=.=.=.=.=.=.=.=.=.=.=.=.=.=.=.=.=.=.=.=.X X X O =.=.=.=.=.=."
};
