/* XPM */
static char *result[] = {
/* columns rows colors chars-per-pixel */
"32 32 108 2 ",
"   c #2E2E2E",
".  c #2C302F",
"X  c #30302F",
"o  c #2F3231",
"O  c #303232",
"+  c #353738",
"@  c #473334",
"#  c #4B3536",
"$  c #4F3638",
"%  c #503637",
"&  c #503739",
"*  c #533A3C",
"=  c #693B3E",
"-  c #73373C",
";  c #74383D",
":  c #78393E",
">  c #3D3D43",
",  c #403F45",
"<  c #553E40",
"1  c #6D3E42",
"2  c #7A3F45",
"3  c #434446",
"4  c #46474C",
"5  c #4B4A4E",
"6  c #554345",
"7  c #544649",
"8  c #59464A",
"9  c #55484B",
"0  c #5B4A4D",
"q  c #4D4D51",
"w  c #4E5154",
"e  c #525155",
"r  c #6C484C",
"t  c #6E4B50",
"y  c #585669",
"u  c #5D5A6C",
"i  c #775B60",
"p  c #616168",
"a  c #69676D",
"s  c #6D6B73",
"d  c #776F79",
"f  c #75727D",
"g  c #8D3E45",
"h  c #87494F",
"j  c #97454C",
"k  c #99464C",
"l  c #99484E",
"z  c #9A4A50",
"x  c #9B5057",
"c  c #9E555C",
"v  c #B3464E",
"b  c #A44B52",
"n  c #B54750",
"m  c #B44C55",
"M  c #BB4C55",
"N  c #B64F58",
"B  c #BC4F58",
"V  c #B7525C",
"C  c #BD515A",
"Z  c #B65861",
"A  c #926B72",
"S  c #A76D75",
"D  c #A86F77",
"F  c #B17078",
"G  c #C04F58",
"H  c #C0525B",
"J  c #C15D66",
"K  c #C55E68",
"L  c #C5616B",
"P  c #C8737D",
"I  c #767383",
"U  c #7E7A91",
"Y  c #837F8C",
"T  c #817D93",
"R  c #AD7B84",
"E  c #B57C85",
"W  c #CA7680",
"Q  c #CE7882",
"!  c #C47E88",
"~  c #84818E",
"^  c #898693",
"/  c #8B8996",
"(  c #928E9C",
")  c #96949E",
"_  c #98959F",
"`  c #B8828B",
"'  c #9794A0",
"]  c #9996A0",
"[  c #9C97AB",
"{  c #A19EA9",
"}  c #A49FB1",
"|  c #A6A1B2",
" . c #AAA5B6",
".. c #ACA7B8",
"X. c #AFAABB",
"o. c #B2AEBD",
"O. c #B5B0BF",
"+. c #CF838D",
"@. c #D1848F",
"#. c #CE8E99",
"$. c #D58691",
"%. c #D796A1",
"&. c #D996A2",
"*. c #B6B2C1",
"=. c #BAB6C4",
"-. c #BDB8C7",
";. c #BEBAC8",
":. c None",
/* pixels */
":.:.:.:.:.:.:.:.:.:.:.:.o . . o o o o O :.:.:.:.:.:.:.:.:.:.:.:.",
":.:.:.:.:.:.:.:.:.:.:.:.9 0 0 9 < * $ # :.:.:.:.:.:.:.:.:.:.:.:.",
":.:.:.:.:.:.:.:.:.:.. 7 A ` R D c j j = @ . :.:.:.:.:.:.:.:.:.:.",
":.:.:.:.:.:.:.:.:.:.@ r F $.$.W K M v j r 7 :.:.:.:.:.:.:.:.:.:.",
":.:.:.:.:.:.:.:.. @ - j Z L L J H B M Z F A 7   :.:.:.:.:.:.:.:.",
":.:.:.:.:.:.:.:.7 r j v B C C C C B B L $.` i 6 :.:.:.:.:.:.:.:.",
":.:.:.:.:.:.  7 A F V N C C C C C B C L @.#.` A 7 . :.:.:.:.:.:.",
":.:.:.:.:.:.7 i ` $.L B C C C C C B B L @.%.&.E t @ :.:.:.:.:.:.",
":.:.:.:.o 7 A ` #.@.K B C C C C C C C L +.%.&.! x - # o :.:.:.:.",
":.:.:.:.. 0 R &.&.+.L B C C C C C B B J W +.@.P V g $ o :.:.:.:.",
":.:.:.:.  0 R &.%.+.L B C C C C B B C V J L L J C l * o :.:.:.:.",
":.:.:.:.o 8 S $.@.W J B C C C H Z L L J C B B C C z * o :.:.:.:.",
":.:.:.:.o < c L L J C C C C C J Q @.+.W J M M H H z * o :.:.:.:.",
":.:.:.:.O * l H C C C C H C B L @.&.%.$.L H H H H z * o :.:.:.:.",
":.:.:.:.o * z H C B H H H C H L +.%.%.$.L H C H H z * O :.:.:.:.",
":.:.:.:.o * j B H N b l z l k c S R R S c k k b N z * o :.:.:.:.",
":.:.:.:.o $ g n B b 1 # $ & & * 6 8 8 6 * $ $ 1 j g $ o :.:.:.:.",
":.:.:.:.o $ : g l h 0 q w e e e w w e w w w q 9 2 ; $ O :.:.:.:.",
":.:.:.:.:.:.$ $ & 0 d / ' ] ] ] ) ) ) ) ' ) / d 8 # :.:.:.:.:.:.",
":.:.:.:.:.:.O + 3 p (  .|  .*.-.-.=.-.-.-.*.[ I 4   :.:.:.:.:.:.",
":.:.:.:.:.:.o 3 s (  .} Y U | -.-.=.=.-.-. .U y > O :.:.:.:.:.:.",
":.:.:.:.:.:.  q / *.*.} U T } -.=.=.=.=.=. .~ u , O :.:.:.:.:.:.",
":.:.:.:.:.:.  e ' *.-.*.} | o.=.=.=.=.=.=.O. .~ q X :.:.:.:.:.:.",
":.:.:.:.:.:.  e ' -.-.*.-.*.*.o.o.o.o.o.o.O.-._ e   :.:.:.:.:.:.",
":.:.:.:.:.:.  w _ -.=.=.-.o. .} } } } } { X.*._ e X :.:.:.:.:.:.",
":.:.:.:.:.:.4 a { ;.-.=.-.*...} | | } } } X.*._ e X :.:.:.:.:.:.",
":.:.:.:.X 5 f _ o.-.;.-.-.=.*.*.*.*.*.*.*.*.-._ e X :.:.:.:.:.:.",
":.:.:.:.X 5 d / ( _ _ ] _ _ ] ] ] ] _ { o.-.-._ e X :.:.:.:.:.:.",
":.:.:.:.:.:.q q e e e e e e e e e e e a { ;.;._ e X :.:.:.:.:.:.",
":.:.:.:.:.:.X X X X X X X X X X X     e ] ;.=.( e X :.:.:.:.:.:.",
":.:.:.:.:.:.:.:.:.:.:.:.:.:.:.:.:.:.  e ] *.X.^ q X :.:.:.:.:.:.",
":.:.:.:.:.:.:.:.:.:.:.:.:.:.:.:.:.:.  e ] *.| Y q X :.:.:.:.:.:."
};
