/* XPM */
static char *result[] = {
/* columns rows colors chars-per-pixel */
"32 32 110 2 ",
"   c #2E2E2E",
".  c #2C302F",
"X  c #30302F",
"o  c #2E3231",
"O  c #313332",
"+  c #383334",
"@  c #353738",
"#  c #463435",
"$  c #4B3436",
"%  c #4F3739",
"&  c #503637",
"*  c #503738",
"=  c #523A3C",
"-  c #65383C",
";  c #693A3E",
":  c #73373C",
">  c #72393D",
",  c #3E3D43",
"<  c #403F45",
"1  c #6D3E42",
"2  c #7A3F45",
"3  c #414346",
"4  c #444448",
"5  c #48474C",
"6  c #4B4A4E",
"7  c #554446",
"8  c #54474A",
"9  c #5B474C",
"0  c #57484A",
"q  c #5A4A4D",
"w  c #4D4D51",
"e  c #4D5053",
"r  c #515154",
"t  c #6C474B",
"y  c #6E4B50",
"u  c #724C50",
"i  c #595669",
"p  c #5D5A6D",
"a  c #63626A",
"s  c #6D6B73",
"d  c #756E79",
"f  c #75727C",
"g  c #8D3E45",
"h  c #943F46",
"j  c #87494F",
"k  c #984047",
"l  c #97454C",
"z  c #99464D",
"x  c #914A51",
"c  c #9B5057",
"v  c #9E545B",
"b  c #A44A52",
"n  c #AE4851",
"m  c #B44750",
"M  c #B24B54",
"N  c #BC4E57",
"B  c #B64F58",
"V  c #BC4F58",
"C  c #A55057",
"Z  c #B7525C",
"A  c #BD515A",
"S  c #B55760",
"D  c #BB5C65",
"F  c #936C72",
"G  c #A66D75",
"H  c #AE6E77",
"J  c #B3727A",
"K  c #C0535C",
"L  c #C25D66",
"P  c #C4626B",
"I  c #C9737D",
"U  c #777383",
"Y  c #7B778F",
"T  c #7B788E",
"R  c #7D7A90",
"E  c #837F8C",
"W  c #817E94",
"Q  c #AC7B83",
"!  c #B57C85",
"~  c #CA7680",
"^  c #CE7882",
"/  c #C47E88",
"(  c #85828F",
")  c #898693",
"_  c #8B8895",
"`  c #8F8B9A",
"'  c #918E9B",
"]  c #95939E",
"[  c #98959F",
"{  c #9793A3",
"}  c #9996A2",
"|  c #9F9AAA",
" . c #A19DAC",
".. c #A39FB0",
"X. c #A5A1B2",
"o. c #A9A5B5",
"O. c #ACA7B8",
"+. c #AFAABB",
"@. c #B2AEBD",
"#. c #B4B0BF",
"$. c #CF848E",
"%. c #D1848F",
"&. c #D48590",
"*. c #D797A2",
"=. c #DA97A2",
"-. c #B6B1C1",
";. c #BAB6C4",
":. c #BCB8C6",
">. c #BEBAC8",
",. c None",
/* pixels */
",.,.,.,.,.,.,.,.,.,.,.,.,.,.,.,.,.,.,.,.,.,.,.,.,.,.,.,.,.,.,.,.",
",.,.,.,.,.,.,.,.,.,.,.,.,.,.,.,.,.,.,.,.,.,.,.,.,.,.,.,.,.,.,.,.",
",.,.,.,.,.,.,.,.,.,.,.,.,.,.,.,.,.,.,.,.,.,.,.,.,.,.,.,.,.,.,.,.",
",.,.,.,.,.,.,.,.,.,.,.,.,.,.,.,.,.,.,.,.,.,.,.,.,.,.,.,.,.,.,.,.",
",.,.,.,.,.,.,.,.,.,.,.,.  o . o o o o o ,.,.,.,.,.,.,.,.,.,.,.,.",
",.,.,.,.,.,.,.,.,.,.,.,.8 q q q q 7 = $ ,.,.,.,.,.,.,.,.,.,.,.,.",
",.,.,.,.,.,.,.,.o o o 0 F Q ! Q Q G x : # . . O ,.,.,.,.,.,.,.,.",
",.,.,.,.,.,.,.,.$ $ % u J &.&.&.&.I Z l t q 8 8 ,.,.,.,.,.,.,.,.",
",.,.,.,.,.,.. # : g l b D P P P P L A S H Q Q F 8 . ,.,.,.,.,.,.",
",.,.,.,.,.,.8 y c Z A A V V V V V V V P %.=.=.! y # ,.,.,.,.,.,.",
",.,.,.,.  8 F ! / I L A V A A A V V V P %.=.*./ c : # o ,.,.,.,.",
",.,.,.,.# u ! *.*.$.P A A A A A A V V L ~ %.$.I Z h - # ,.,.,.,.",
",.,.o $ : c / *.*.$.P N A A A A A A A Z L L P L A n k > $ O ,.,.",
",.,.O & g Z I %.$.~ L V A A A A A A A K V V V A A N m g % o ,.,.",
",.,.o = l A L P P L Z A A K A A V A V V V V A A A A V l = o ,.,.",
",.,.o = l V A A V A K K A Z L P P P P P P L D A A A A z = o ,.,.",
",.,.o % k m N A V V V K A P ^ &.%.%.%.%.&.^ L A A V m g % o ,.,.",
",.,.O # ; h n N K B b z z C G Q Q Q Q Q Q G v b M m h : # o ,.,.",
",.,.O + # - k m K b t % = = 7 8 0 7 0 0 8 7 = ; k h > # + O ,.,.",
",.,.O o o # : g z j q 6 e r r e r r r r e e w 9 t : # O O O ,.,.",
",.,.,.,.O + # % & 9 d ) ] { ] ] ] [ ] [ [ ] ) d 0 # + O ,.,.,.,.",
",.,.,.,.O O O @ 3 a ' +.;.>.:.:.:.:.:.:.:.-.@._ r . o @ ,.,.,.,.",
",.,.,.,.,.,.o 4 s ' X.#.>.>.:.;.;.;.;.;.:.:.;.] r   ,.,.,.,.,.,.",
",.,.,.,.,.,.O 8 ) @.;.#.X.X.@.;.;.;.;.;.;.#.o.( 6 X ,.,.,.,.,.,.",
",.,.,.,.,.,.o r ] ;.:.X.T R X.:.;.;.;.:.;.o.W p < O ,.,.,.,.,.,.",
",.,.,.,.,.,.O r [ >.:.X.R T  .#.-.@.@.-.-. .Y i , O ,.,.,.,.,.,.",
",.,.,.,.,.,.X r [ :.:.@.X. ...X........... .{ U 5 X ,.,.,.,.,.,.",
",.,.,.,.,.,.X r ' ;.:.:.:.;.O.X........... .' f 6 X ,.,.,.,.,.,.",
",.,.,.,.,.,.o w ) +.;.:.>.:.-.#.;.#.@.#.@.} a 5 ,.,.,.,.,.,.,.,.",
",.,.,.,.,.,.X 6 d ) ' [ ] [ [ ] }  .@.;.-.' r   ,.,.,.,.,.,.,.,.",
",.,.,.,.,.,.,.,.6 w r r r r r r r s  .;.@.) 6   ,.,.,.,.,.,.,.,.",
",.,.,.,.,.,.,.,.X   X X X +       q [ -.o.( 6 X ,.,.,.,.,.,.,.,."
};
