/* XPM */
static char *result[] = {
/* columns rows colors chars-per-pixel */
"32 32 113 2 ",
"   c #2E2E2D",
".  c #2C302F",
"X  c #30302F",
"o  c #2F3231",
"O  c #313332",
"+  c #383334",
"@  c #353738",
"#  c #463435",
"$  c #4B3536",
"%  c #4F3739",
"&  c #503637",
"*  c #513739",
"=  c #533A3C",
"-  c #65383C",
";  c #693B3E",
":  c #73373C",
">  c #73393D",
",  c #3E3D43",
"<  c #403F45",
"1  c #553E40",
"2  c #6D3E42",
"3  c #7A3F45",
"4  c #414346",
"5  c #444448",
"6  c #48474B",
"7  c #4B494D",
"8  c #564446",
"9  c #54474A",
"0  c #5A474B",
"q  c #56484B",
"w  c #5B4A4D",
"e  c #4D4D51",
"r  c #504F52",
"t  c #4E5054",
"y  c #515154",
"u  c #6C474B",
"i  c #6E4B50",
"p  c #724C50",
"a  c #595669",
"s  c #5D5A6D",
"d  c #615F67",
"f  c #606068",
"g  c #6C6B72",
"h  c #746F7A",
"j  c #74717C",
"k  c #8D3E44",
"l  c #943F46",
"z  c #87494F",
"x  c #984147",
"c  c #97454C",
"v  c #99474D",
"b  c #99484E",
"n  c #9B5057",
"m  c #9E555C",
"M  c #B3464E",
"N  c #A44B52",
"B  c #AE4851",
"V  c #B44750",
"C  c #B24C54",
"Z  c #BB4E57",
"A  c #B64F58",
"S  c #BD4F58",
"D  c #A55057",
"F  c #B7525C",
"G  c #BD515A",
"H  c #B55760",
"J  c #BB5C65",
"K  c #936C72",
"L  c #A76E76",
"P  c #AB6F77",
"I  c #B3727A",
"U  c #C0525C",
"Y  c #C35D66",
"T  c #C55E68",
"R  c #C4626B",
"E  c #C8737D",
"W  c #777383",
"Q  c #7B778F",
"!  c #7B788E",
"~  c #7D7A90",
"^  c #837F8C",
"/  c #817E94",
"(  c #AD7C84",
")  c #B57C85",
"_  c #CA7680",
"`  c #CE7882",
"'  c #C47E88",
"]  c #85828F",
"[  c #898694",
"{  c #8B8895",
"}  c #8D8998",
"|  c #918D9B",
" . c #95939E",
".. c #98959F",
"X. c #9795A2",
"o. c #9A95A7",
"O. c #A19DAC",
"+. c #A49FB0",
"@. c #A5A1B2",
"#. c #A9A5B5",
"$. c #AFAABB",
"%. c #B2AEBD",
"&. c #B4B0BF",
"*. c #CF848E",
"=. c #D1848E",
"-. c #D48691",
";. c #D797A2",
":. c #DA97A2",
">. c #B6B2C1",
",. c #BAB6C4",
"<. c #BCB8C6",
"1. c #BEBAC9",
"2. c None",
/* pixels */
"2.2.2.2.2.2.2.2.2.2.2.2.o   o o o o o O 2.2.2.2.2.2.2.2.2.2.2.2.",
"2.2.2.2.2.2.2.2.2.2.2.2.q w w q = = % $ 2.2.2.2.2.2.2.2.2.2.2.2.",
"2.2.2.2.2.2.2.2.O o . 9 K ( ) L m c x ; #   .   2.2.2.2.2.2.2.2.",
"2.2.2.2.2.2.2.2.# % % p I -.-.` T Z M c i q q 8 2.2.2.2.2.2.2.2.",
"2.2.2.2.2.2.. # > k c D J R R Y U G Z F P ( ( K 9   2.2.2.2.2.2.",
"2.2.2.2.2.2.9 i n F Z U G G Z G G G S R =.:.:.( i # 2.2.2.2.2.2.",
"2.2.2.2.  9 K ) ' E Y G G G G G G G S R =.:.:.*.n > # o 2.2.2.2.",
"2.2.2.2.# i ) :.:.=.R Z G G G G G G G Y _ *.*.E F l - $ 2.2.2.2.",
"2.2.O $ > n ' :.;.*.T S G G G G G G G G Y R R Y G B l > # o 2.2.",
"2.2.o % k F _ *.*._ J S G G G G G G G G G Z Z G G A B x % o 2.2.",
"2.2.o = v G Y R T Y J U G G Z Z G G G G G G Z Z G G Z v = o 2.2.",
"2.2.o = v Z Z G G Z Z U Z U U Y Y R R T U G U U G G Z v = o 2.2.",
"2.2.o = x B Z G S G Z U U U Z T ` -.-._ T U U Z U A V k % o 2.2.",
"2.2.O # ; l B Z U A N v b v v m L ( ( L m v v N C C l 2 # O 2.2.",
"2.2.O + # - l V U N 2 * * = * 1 8 9 q 9 = = & - l l ; # + O 2.2.",
"2.2.O O o # > k c z w e e y y y y y y t y e 7 u p : # O O O 2.2.",
"2.2.2.2.O + # % & w j [  .X.X. ... .....X. .[ h 0 # + O 2.2.2.2.",
"2.2.2.2.O O O @ 4 f | $.<.<.<.<.<.<.<.<.<.>.$.{ e . o + 2.2.2.2.",
"2.2.2.2.2.2.O 5 g | #.>.<.<.<.<.<.<.<.<.<.<.<.X.y . 2.2.2.2.2.2.",
"2.2.2.2.2.2.  r { %.>.&.@.@.%.<.,.>.<.>.<.>.#.] e X 2.2.2.2.2.2.",
"2.2.2.2.2.2.X y  .,.<.@.^ ! #.<.<.>.<.,.<.@.~ s < O 2.2.2.2.2.2.",
"2.2.2.2.2.2.  y | ,.1.@.! ! O.%.&.%.%.%.>.O.Q a , O 2.2.2.2.2.2.",
"2.2.2.2.2.2.  e [ %.,.%.#.O.+.@.@.@.+.@.@.+.o.W 6 X 2.2.2.2.2.2.",
"2.2.2.2.2.2.X 6 h | #.,.1.&.#.O.+.@.@.@.O.o.{ h 7 X 2.2.2.2.2.2.",
"2.2.2.2.2.2.2.2.6 d | $.<.<.&.&.%.%.>.%.#.{ d 6 2.2.2.2.2.2.2.2.",
"2.2.2.2.2.2.2.2.  6 h [  .o.%.<.<.%.O.| { h 6   2.2.2.2.2.2.2.2.",
"2.2.2.2.2.2.2.2.2.2.7 7 r g O.<.1.O.g r e 6 2.2.2.2.2.2.2.2.2.2.",
"2.2.2.2.2.2.2.2.2.2.X     y  .<.1...r     . 2.2.2.2.2.2.2.2.2.2.",
"2.2.2.2.2.2.2.2.2.2.2.2.  y ..1.1...y   2.2.2.2.2.2.2.2.2.2.2.2.",
"2.2.2.2.2.2.2.2.2.2.2.2.  y ..<.,.| r X 2.2.2.2.2.2.2.2.2.2.2.2.",
"2.2.2.2.2.2.2.2.2.2.2.2.  y ..,.$.[ q . 2.2.2.2.2.2.2.2.2.2.2.2.",
"2.2.2.2.2.2.2.2.2.2.2.2.O y ..>.#.] 7 X 2.2.2.2.2.2.2.2.2.2.2.2."
};
