/* XPM */
static char *result[] = {
/* columns rows colors chars-per-pixel */
"32 32 113 2 ",
"   c #2E2E2E",
".  c #2C302F",
"X  c #30302F",
"o  c #2E3231",
"O  c #303232",
"+  c #353738",
"@  c #473234",
"#  c #4A3536",
"$  c #4F3738",
"%  c #503637",
"&  c #513739",
"*  c #523A3C",
"=  c #64383C",
"-  c #693B3E",
";  c #73373C",
":  c #75393D",
">  c #3E3D43",
",  c #403F45",
"<  c #553E40",
"1  c #6D3E42",
"2  c #7A3F44",
"3  c #434446",
"4  c #47464A",
"5  c #48474B",
"6  c #4A494D",
"7  c #564446",
"8  c #54474A",
"9  c #59474B",
"0  c #56484B",
"q  c #5B4A4D",
"w  c #4D4D51",
"e  c #4E5054",
"r  c #515154",
"t  c #6C474B",
"y  c #6E4B50",
"u  c #724C50",
"i  c #595669",
"p  c #5D5B6D",
"a  c #615F67",
"s  c #64636A",
"d  c #6D6B73",
"f  c #736E79",
"g  c #74717C",
"h  c #8D3E44",
"j  c #933F46",
"k  c #87494F",
"l  c #964047",
"z  c #984147",
"x  c #97454C",
"c  c #99474D",
"v  c #99484E",
"b  c #9B5057",
"n  c #9E555C",
"m  c #B3464E",
"M  c #A44B52",
"N  c #AD4850",
"B  c #B44750",
"V  c #B24C54",
"C  c #BB4E57",
"Z  c #B64F58",
"A  c #BD4F58",
"S  c #A55057",
"D  c #B7525C",
"F  c #BD515A",
"G  c #B55760",
"H  c #BB5C65",
"J  c #936C72",
"K  c #A76E76",
"L  c #AB6F77",
"P  c #B3727A",
"I  c #C0525C",
"U  c #C35D66",
"Y  c #C55E68",
"T  c #C4626B",
"R  c #C8737D",
"E  c #777383",
"W  c #7B778F",
"Q  c #7B788E",
"!  c #7D7A90",
"~  c #837F8C",
"^  c #817E94",
"/  c #AD7C84",
"(  c #B57C85",
")  c #CA7680",
"_  c #CE7882",
"`  c #C47E88",
"'  c #85828F",
"]  c #8A8694",
"[  c #8D8998",
"{  c #918D9B",
"}  c #95939E",
"|  c #98959F",
" . c #9795A2",
".. c #9995A4",
"X. c #9E9BA6",
"o. c #A19DAD",
"O. c #A39FB0",
"+. c #A6A1B2",
"@. c #A9A5B5",
"#. c #ADA9B7",
"$. c #AFAABB",
"%. c #B2AEBD",
"&. c #B4B0BF",
"*. c #CF848E",
"=. c #D1848E",
"-. c #D48691",
";. c #D797A2",
":. c #DA97A2",
">. c #B6B2C1",
",. c #BAB6C4",
"<. c #BCB8C6",
"1. c #BEBAC9",
"2. c None",
/* pixels */
"2.2.2.2.2.2.2.2.2.2.2.2.o o o . O O O O 2.2.2.2.2.2.2.2.2.2.2.2.",
"2.2.2.2.2.2.2.2.2.2.2.2.0 q q 9 * * $ # 2.2.2.2.2.2.2.2.2.2.2.2.",
"2.2.2.2.2.2.2.2.o o o 8 J / / L n x l ; @ . . . 2.2.2.2.2.2.2.2.",
"2.2.2.2.2.2.2.2.# # $ u P -.-._ Y C N x t 0 0 7 2.2.2.2.2.2.2.2.",
"2.2.2.2.2.2.. @ ; h x M H T T U I F C D L / / J 8 . 2.2.2.2.2.2.",
"2.2.2.2.2.2.8 y b D F F F F F F F F F T =.:.:./ y @ 2.2.2.2.2.2.",
"2.2.2.2.. 8 J ( ` R U F F F F F F F A T =.:.:.*.b ; # o 2.2.2.2.",
"2.2.2.2.@ y ( :.:.*.T C F F F F F F F H _ *.*.R D j = # 2.2.2.2.",
"2.2.O # ; b ` ;.;.*.T C F F F F F F F I U T T U F N l ; # o 2.2.",
"2.2.o $ h D R -.*.) U F F F F F F F F F A A C A F C N l $ o 2.2.",
"2.2.o * x F U T T U D F F F F F F C I A F F A F F F F x * o 2.2.",
"2.2.o * c C A F F F F I F I F I Y T T Y D F F I F F C x * o 2.2.",
"2.2.O $ l N C F A F I I I I F Y _ -.-._ Y F I F F C m k $ o 2.2.",
"2.2.O # ; j N C F Z M c c c c n K / / K n c c M V N j : # O 2.2.",
"2.2.2.2.# * z B I M 1 % % * % < 7 0 0 7 * * % - z l - # 2.2.2.2.",
"2.2.2.2.o # : j x k q w w r r e r r e e r e w 9 2 : # o 2.2.2.2.",
"2.2.2.2.2.2.$ % % 9 g ] }  .| } } } } }  .} ] f 9 @ 2.2.2.2.2.2.",
"2.2.2.2.2.2.o + 3 s { $.,.<.<.<.<.<.<.1.<.,.$.] w   2.2.2.2.2.2.",
"2.2.2.2.2.2.X 3 d { @.>.<.<.<.<.,.<.<.<.,.1.,.} r   2.2.2.2.2.2.",
"2.2.2.2.2.2.X w ] $.,.&.+.+.%.,.,.>.,.,.,.>.@.' w O 2.2.2.2.2.2.",
"2.2.2.2.2.2.X r } ,.,.+.Q ^ +.<.<.,.,.,.,.@.^ p , O 2.2.2.2.2.2.",
"2.2.2.2.2.2.X r } ,.1.+.Q Q o.&.&.&.%.%.&.o.W i , O 2.2.2.2.2.2.",
"2.2.2.2.2.2.. w ] %.>.>.+.o.o.+.O.+.+.+.+.O...E 5 X 2.2.2.2.2.2.",
"2.2.2.2.2.2.X 5 f { @.>.<.&.#.+.+.+.+.+.o...[ g 6 X 2.2.2.2.2.2.",
"2.2.2.2.2.2.2.2.5 a { $.>.,.&.&.&.>.>.%.@.] a 5 2.2.2.2.2.2.2.2.",
"2.2.2.2.2.2.2.2.  5 f { #.,.,.%.o...| { ] f 5   2.2.2.2.2.2.2.2.",
"2.2.2.2.2.2.2.2.2.2.5 s X.<.<.o.d r r r w 6 2.2.2.2.2.2.2.2.2.2.",
"2.2.2.2.2.2.2.2.2.2.X r | 1.1.| 0     X X X 2.2.2.2.2.2.2.2.2.2.",
"2.2.2.2.2.2.2.2.2.2.  r | <.1.} r   2.2.2.2.2.2.2.2.2.2.2.2.2.2.",
"2.2.2.2.2.2.2.2.2.2.X r | <.,.{ r . 2.2.2.2.2.2.2.2.2.2.2.2.2.2.",
"2.2.2.2.2.2.2.2.2.2.O r | ,.%.] w . 2.2.2.2.2.2.2.2.2.2.2.2.2.2.",
"2.2.2.2.2.2.2.2.2.2.X r | >.@.' 6 X 2.2.2.2.2.2.2.2.2.2.2.2.2.2."
};
