/* XPM */
static char *result[] = {
/* columns rows colors chars-per-pixel */
"32 32 110 2 ",
"   c #2D2E2E",
".  c #2D302F",
"X  c #30302F",
"o  c #2F3231",
"O  c #303232",
"+  c #353738",
"@  c #473334",
"#  c #4B3536",
"$  c #4F3638",
"%  c #503637",
"&  c #503739",
"*  c #533A3C",
"=  c #693B3E",
"-  c #73373C",
";  c #74383D",
":  c #78393E",
">  c #3D3D43",
",  c #403F45",
"<  c #553E40",
"1  c #6D3E42",
"2  c #7A3F45",
"3  c #434446",
"4  c #46474C",
"5  c #48474A",
"6  c #4B4A4E",
"7  c #554345",
"8  c #544649",
"9  c #59464A",
"0  c #55484B",
"q  c #5B4A4D",
"w  c #4D4D51",
"e  c #4E5154",
"r  c #515154",
"t  c #6C484C",
"y  c #6E4B50",
"u  c #585669",
"i  c #5D5B6D",
"p  c #605E65",
"a  c #775B60",
"s  c #64636A",
"d  c #6D6B74",
"f  c #746F7A",
"g  c #8D3E45",
"h  c #87494F",
"j  c #97454C",
"k  c #99464C",
"l  c #99484E",
"z  c #9A4A50",
"x  c #9B5057",
"c  c #9E555C",
"v  c #B3464E",
"b  c #A44B52",
"n  c #B54750",
"m  c #B44C55",
"M  c #BB4C55",
"N  c #B64F58",
"B  c #BC4F58",
"V  c #B7525C",
"C  c #BD515A",
"Z  c #B65861",
"A  c #926B72",
"S  c #A76D75",
"D  c #A86F77",
"F  c #B17078",
"G  c #C04F58",
"H  c #C0525B",
"J  c #C15D66",
"K  c #C55E68",
"L  c #C5616B",
"P  c #C8737D",
"I  c #767383",
"U  c #7E7A91",
"Y  c #827F8C",
"T  c #817E94",
"R  c #AD7B84",
"E  c #B57C85",
"W  c #CA7680",
"Q  c #CE7882",
"!  c #C47E88",
"~  c #85828F",
"^  c #8A8694",
"/  c #8A8996",
"(  c #928E9C",
")  c #95939E",
"_  c #98959F",
"`  c #B8828B",
"'  c #9795A0",
"]  c #9996A2",
"[  c #9E9BA6",
"{  c #9C97AB",
"}  c #A19EAB",
"|  c #A49FB1",
" . c #A6A1B2",
".. c #A9A5B6",
"X. c #ADA9B7",
"o. c #ABA6B8",
"O. c #AFAABB",
"+. c #B2AEBD",
"@. c #B5B0BF",
"#. c #CF838D",
"$. c #D1848F",
"%. c #CE8E99",
"&. c #D58691",
"*. c #D796A1",
"=. c #D996A2",
"-. c #B6B2C1",
";. c #BAB6C4",
":. c #BDB8C7",
">. c #BEBAC8",
",. c None",
/* pixels */
",.,.,.,.,.,.,.,.,.,.,.,.o . . . O O O O ,.,.,.,.,.,.,.,.,.,.,.,.",
",.,.,.,.,.,.,.,.,.,.,.,.0 q q 0 7 & $ # ,.,.,.,.,.,.,.,.,.,.,.,.",
",.,.,.,.,.,.,.,.,.,.. 0 A R ` D c j g - @ . ,.,.,.,.,.,.,.,.,.,.",
",.,.,.,.,.,.,.,.,.,.@ t F &.&.W K B v j t 8 ,.,.,.,.,.,.,.,.,.,.",
",.,.,.,.,.,.,.,.. @ - j Z L L J H C M Z F A 8   ,.,.,.,.,.,.,.,.",
",.,.,.,.,.,.,.,.0 t j v M C C C C C B L &.` a 8 ,.,.,.,.,.,.,.,.",
",.,.,.,.,.,.  8 A F V N C C C C C B C L $.%.` A 8 . ,.,.,.,.,.,.",
",.,.,.,.,.,.8 a ` &.L C C C C C C C B L #.*.=.E y @ ,.,.,.,.,.,.",
",.,.,.,.o 8 A ` %.$.K B C C C C C C B L #.*.=.! x - # o ,.,.,.,.",
",.,.,.,.  q R =.=.#.L B C C C C C B B J W #.#.P V g & o ,.,.,.,.",
",.,.,.,.. q R =.=.$.L B C C C C C M C V J L L J C j * o ,.,.,.,.",
",.,.,.,.o 9 S &.$.Q Z C C C C C J L L J C B B H C z * o ,.,.,.,.",
",.,.,.,.o < c L L J C C C C C J W #.#.W J B B H H z * o ,.,.,.,.",
",.,.,.,.O * l H C C C H H C C L $.*.*.&.L G B H H z * o ,.,.,.,.",
",.,.,.,.o * z H H B H C H C H L #.*.*.&.L H C H H z * O ,.,.,.,.",
",.,.,.,.o * j B H N b k z l k c S R R S c l k b N z * o ,.,.,.,.",
",.,.,.,.o $ g v G b t $ & & & * 7 9 0 7 * & & = j g $ o ,.,.,.,.",
",.,.,.,.o $ : g j h 9 6 e r r r e w r r e e w q 2 : $ O ,.,.,.,.",
",.,.,.,.,.,.$ $ % q f / ) ] _ ) ) ) ) ' ' ) / f 9 # ,.,.,.,.,.,.",
",.,.,.,.,.,.O + 3 s ) .. ...;.:.>.:.:.:.:.+.{ I 4   ,.,.,.,.,.,.",
",.,.,.,.,.,.O 3 d ( ..| U T  .:.:.;.;.:.:. .U u > O ,.,.,.,.,.,.",
",.,.,.,.,.,.  w / +.-.| U U  .;.;.;.;.:.:...T i , O ,.,.,.,.,.,.",
",.,.,.,.,.,.X r ) -.:.+. . .+.:.;.;.;.;.;.@...~ 6 X ,.,.,.,.,.,.",
",.,.,.,.,.,.X r ( ;.;.:.;.;.@.+.+.+.+.+.+.@.;.) r X ,.,.,.,.,.,.",
",.,.,.,.,.,.. w ^ O.-.;.:.+...| | | | | | ....^ w X ,.,.,.,.,.,.",
",.,.,.,.,.,.X 6 f ( X.;.:.@.X. . . ...| | ] / f 6 X ,.,.,.,.,.,.",
",.,.,.,.,.,.,.,.5 s [ :.;.@.-.@.-.-.-.+...^ p 5 ,.,.,.,.,.,.,.,.",
",.,.,.,.,.,.,.,.  r _ :.:.+.} _ _ ] ] ( ^ f 5   ,.,.,.,.,.,.,.,.",
",.,.,.,.,.,.,.,.  r _ :.:.} d e r r r r w 6 ,.,.,.,.,.,.,.,.,.,.",
",.,.,.,.,.,.,.,.X r _ :.;.( w     X X X X X ,.,.,.,.,.,.,.,.,.,.",
",.,.,.,.,.,.,.,.X r _ ;.O.~ w   ,.,.,.,.,.,.,.,.,.,.,.,.,.,.,.,.",
",.,.,.,.,.,.,.,.X r _ @...~ 0 X ,.,.,.,.,.,.,.,.,.,.,.,.,.,.,.,."
};
