/* XPM */
static char *result[] = {
/* columns rows colors chars-per-pixel */
"32 32 120 2 ",
"   c #2E2F2E",
".  c #2C302F",
"X  c #30302F",
"o  c #2E3131",
"O  c #313332",
"+  c #383334",
"@  c #353738",
"#  c #463436",
"$  c #4B3436",
"%  c #4F3739",
"&  c #4F393B",
"*  c #503637",
"=  c #503738",
"-  c #513A3C",
";  c #63373B",
":  c #66393C",
">  c #693A3E",
",  c #74373C",
"<  c #72393D",
"1  c #3E3D43",
"2  c #403F45",
"3  c #6D3E42",
"4  c #7A3F45",
"5  c #414346",
"6  c #444448",
"7  c #48474B",
"8  c #4A494D",
"9  c #554446",
"0  c #55474A",
"q  c #5B474C",
"w  c #57484A",
"e  c #5A4A4D",
"r  c #4C4D51",
"t  c #4D5053",
"y  c #525154",
"u  c #6E4044",
"i  c #6C474B",
"p  c #6E4B4F",
"a  c #724C50",
"s  c #735054",
"d  c #595669",
"f  c #5D5A6D",
"g  c #615F66",
"h  c #63626A",
"j  c #6D6C76",
"k  c #756E79",
"l  c #74717C",
"z  c #8D3E44",
"x  c #943F45",
"c  c #86454A",
"v  c #87494F",
"b  c #984047",
"n  c #96444B",
"m  c #99464D",
"M  c #914A51",
"N  c #9B5057",
"B  c #9E545B",
"V  c #AD474F",
"C  c #B4464F",
"Z  c #A44B52",
"A  c #AF4951",
"S  c #B54750",
"D  c #B54C55",
"F  c #BC4E57",
"G  c #BC4F58",
"H  c #A55057",
"J  c #B7515B",
"K  c #BD515A",
"L  c #AC5C64",
"P  c #B55760",
"I  c #B95760",
"U  c #BB5C65",
"Y  c #936C73",
"T  c #A56C74",
"R  c #AE6E77",
"E  c #B3727A",
"W  c #C0535C",
"Q  c #C35D66",
"!  c #C15E68",
"~  c #C4626B",
"^  c #C9747E",
"/  c #777383",
"(  c #7B778F",
")  c #7B788E",
"_  c #7D7A90",
"`  c #837F8D",
"'  c #817E94",
"]  c #AC7B83",
"[  c #B57D86",
"{  c #CB7680",
"}  c #CE7882",
"|  c #C47E88",
" . c #85828F",
".. c #8A8794",
"X. c #8B8895",
"o. c #8D8998",
"O. c #918D9C",
"+. c #96939E",
"@. c #98959F",
"#. c #9794A3",
"$. c #9995A4",
"%. c #9E9AA6",
"&. c #A19CAF",
"*. c #A39FB0",
"=. c #A6A1B2",
"-. c #A9A4B5",
";. c #ACA8B6",
":. c #AEA9BA",
">. c #B3AEBE",
",. c #B4B0BF",
"<. c #CE838D",
"1. c #D1848F",
"2. c #D48590",
"3. c #D796A2",
"4. c #DA97A2",
"5. c #B6B2C1",
"6. c #BAB6C4",
"7. c #BCB8C6",
"8. c #BEBAC8",
"9. c None",
/* pixels */
"9.9.9.9.9.9.9.9.9.9.9.9.9.9.9.9.9.9.9.9.9.9.9.9.9.9.9.9.9.9.9.9.",
"9.9.9.9.9.9.9.9.9.9.9.9.9.9.9.9.9.9.9.9.9.9.9.9.9.9.9.9.9.9.9.9.",
"9.9.9.9.9.9.9.9.9.9.9.9.9.9.9.9.9.9.9.9.9.9.9.9.9.9.9.9.9.9.9.9.",
"9.9.9.9.9.9.9.9.9.9.9.9.9.9.9.9.9.9.9.9.9.9.9.9.9.9.9.9.9.9.9.9.",
"9.9.9.9.9.9.9.9.9.9.9.9.o . o o O . O O 9.9.9.9.9.9.9.9.9.9.9.9.",
"9.9.9.9.9.9.9.9.9.9.9.9.0 e e e e 9 - # 9.9.9.9.9.9.9.9.9.9.9.9.",
"9.9.9.9.9.9.9.9.O o . w Y ] ] ] ] T M , #   . o 9.9.9.9.9.9.9.9.",
"9.9.9.9.9.9.9.9.# $ & a E 2.2.1.2.^ J m i w e 0 9.9.9.9.9.9.9.9.",
"9.9.9.9.9.9.o $ < z n H U ~ ~ ~ ~ Q K P R ] ] Y 0 . 9.9.9.9.9.9.",
"9.9.9.9.9.9.# ; b A F K K F F K G G G ~ 2.4.4.[ p # 9.9.9.9.9.9.",
"9.9.9.9.o # < b V F K K K K K K G G G ~ 1.4.3.| N , # O 9.9.9.9.",
"9.9.9.9.o & M J U ~ W K K K K K K K G Q { <.<.^ J z $ o 9.9.9.9.",
"9.9.9.9.. 9 T <.1.^ Q K K K K K K K J K Q ~ ~ Q K n & o 9.9.9.9.",
"9.9.9.9.% s [ 4.3.1.~ F K K K K K G K K G G G K W Z u - 9.9.9.9.",
"9.9.o - c L <.3.3.<.~ K K K K G G K K K K G K K K J Z c - O 9.9.",
"9.9.o - n Q ^ <.<.{ Q K K K ~ ~ ~ ~ ~ ~ ~ Q W W K K G m - o 9.9.",
"9.9.o - z D I ~ ~ Q W W W ~ } 1.2.1.1.1.2.} ~ F K G C c * O 9.9.",
"9.9.O # < b V F F J Z m m B T ] ] ] ] ] ] T B Z D A b < # O 9.9.",
"9.9.O + # : b C W Z u = * - 9 w w q 0 0 w 9 & > x b : # + O 9.9.",
"9.9.O O o # < z b v e 8 t y y t y t t y t r r q 4 < # O O O 9.9.",
"9.9.9.9.O + # - = e k ..O.#.#.#.+.+.@.@.@.+...k q # + O 9.9.9.9.",
"9.9.9.9.O O O @ 5 h O.>.6.8.6.8.7.6.7.7.7.5.>...r . o + 9.9.9.9.",
"9.9.9.9.9.9.o 6 j O.=.,.7.7.7.7.6.6.6.6.6.7.6.+.y   9.9.9.9.9.9.",
"9.9.9.9.9.9.o 0  .>.6.,.=.&.5.7.6.6.6.6.6.,.;. .r X 9.9.9.9.9.9.",
"9.9.9.9.9.9.. y +.5.7.=._ _ =.7.6.5.6.8.6.-.' f 2 O 9.9.9.9.9.9.",
"9.9.9.9.9.9.X y @.8.7.=._ ) %.5.5.>.5.5.5.*.( d 1 O 9.9.9.9.9.9.",
"9.9.9.9.9.9.X y @.7.7.,.-.%.*.*.*.*.*.*.*.*.#./ 7 X 9.9.9.9.9.9.",
"9.9.9.9.9.9.O y @.7.6.6.7.6.:.-.-.*.*.*.*.#.o.k 8 X 9.9.9.9.9.9.",
"9.9.9.9.9.9.X y @.6.6.7.8.6.5.>.5.5.5.>.-.X.g 7 9.9.9.9.9.9.9.9.",
"9.9.9.9.9.9.X y @.6.5.;.&.@.$.@.$.@.$.O...k 7   9.9.9.9.9.9.9.9.",
"9.9.9.9.9.9.X y @.6.:.O.h w y y y y y y r 8 9.9.9.9.9.9.9.9.9.9.",
"9.9.9.9.9.9.X y @.5.-.` 7     X X X X X X X 9.9.9.9.9.9.9.9.9.9."
};
